<?xml version="1.0" standalone="no"?>
<!DOCTYPE svg PUBLIC "-//W3C//DTD SVG 1.1//EN" "http://www.w3.org/Graphics/SVG/1.1/DTD/svg11.dtd" >
<svg xmlns="http://www.w3.org/2000/svg">
<metadata>
This is a custom SVG webfont generated by Font Squirrel.
Copyright   :  2008 Microsoft Corporation All Rights Reserved
Designer    : Gary Munch
Foundry     : Microsoft Corporation
Foundry URL : httpwwwmicrosoftcomtypographyctfonts
</metadata>
<defs>
<font id="CandaraRegular" horiz-adv-x="1033" >
<font-face units-per-em="2048" ascent="1484" descent="-564" />
<missing-glyph horiz-adv-x="444" />
<glyph unicode="&#xfb00;" horiz-adv-x="1267" d="M23 791l6 147q139 -6 207 -6q0 115 16 211t61 157t124.5 89.5t186.5 28.5q166 0 287 -63q74 81 206 81q72 0 150 -17l-29 -133q-62 17 -121 17q-92 0 -125 -73t-33 -300q101 0 279 10l-6 -149q-203 6 -273 6q0 -455 13 -797h-179q15 334 15 797h-421q0 -455 12 -797h-178 q15 334 15 797q-62 0 -213 -6zM389 932h419q0 135 16 231q7 44 20 80q-91 52 -220 52q-79 0 -125.5 -20t-71 -65t-31.5 -118t-7 -160z" />
<glyph unicode="&#xfb01;" horiz-adv-x="1109" d="M21 791l7 147q69 -4 120.5 -6t85.5 -2q0 135 16 231t61 157t124.5 89.5t186.5 28.5q215 0 387 -72l-62 -150q-195 99 -325 99q-79 0 -125.5 -20t-71 -65t-31.5 -118t-7 -180q401 0 599 39q-12 -208 -12 -512q0 -240 14 -457h-181q14 201 14 457q0 100 -4.5 187.5 t-12.5 165.5q-107 -7 -210.5 -10t-206.5 -3q0 -455 12 -797h-179q14 564 14 797q-61 0 -213 -6z" />
<glyph unicode="&#xfb02;" horiz-adv-x="1143" d="M23 791l6 147q139 -8 207 -8q0 135 16 231t61 157t124.5 89.5t186.5 28.5q83 0 171 -29l204 10q-20 -272 -20 -672q0 -409 20 -745h-192q18 330 18 745q0 287 -19 544q-99 24 -182 24q-79 0 -125.5 -20t-71 -65t-31.5 -118t-7 -180q99 0 277 10l-6 -149q-203 6 -273 6 q0 -455 12 -797h-178q15 334 15 797q-62 0 -213 -6z" />
<glyph unicode="&#xfb03;" horiz-adv-x="1681" d="M23 791l6 147q138 -8 206 -8q0 115 16 211t61 157t124.5 89.5t186.5 28.5q169 0 291 -64q39 35 94 55q80 29 186 29q215 0 387 -72l-62 -150q-195 99 -325 99q-79 0 -125.5 -20t-71 -65t-31.5 -118t-7 -180q401 0 599 39q-13 -209 -13 -512q0 -240 15 -457h-183 q15 201 15 457q0 215 -20 354q-159 -12 -413 -14q0 -455 12 -797h-178q15 334 15 797h-421q0 -455 12 -797h-178q15 334 15 797q-62 0 -213 -6zM388 930h419q0 135 16 231q7 44 20 80q-91 52 -220 52q-79 0 -125.5 -20t-71 -65t-31.5 -118t-7 -160z" />
<glyph unicode="&#xfb04;" horiz-adv-x="1716" d="M23 791l6 147q139 -8 207 -8q0 115 16 211t61 157t124.5 89.5t186.5 28.5q169 0 291 -64q39 35 94 55q80 29 187 29q83 0 171 -29l204 11q-20 -273 -20 -673q0 -409 21 -745h-193q18 330 18 745q0 287 -19 544q-99 24 -182 24q-79 0 -125.5 -20t-71 -65t-31.5 -118 t-7 -180q99 0 277 10l-6 -149q-203 6 -273 6q0 -455 12 -797h-178q15 334 15 797h-421q0 -455 12 -797h-178q15 334 15 797q-62 0 -213 -6zM389 930h419q0 135 16 231q7 44 20 80q-91 52 -220 52q-79 0 -125.5 -20t-71 -65t-31.5 -118t-7 -160z" />
<glyph unicode="fb" horiz-adv-x="1811" d="M23 791l6 147q139 -8 207 -8q0 135 16 231t61 157t124.5 89.5t186.5 28.5q83 0 171 -29l198 10q-10 -172 -10 -545h8q99 113 312 113q184 0 296.5 -138t112.5 -333q0 -219 -125 -380t-342 -161q-184 0 -250 66h-8l-24 -39h-156q18 330 18 745q0 287 -19 544 q-99 24 -182 24q-79 0 -125.5 -20t-71 -65t-31.5 -118t-7 -180q99 0 277 10l-6 -149q-203 6 -273 6q0 -455 12 -797h-178q15 334 15 797q-62 0 -213 -6zM979 739q0 -354 16 -575q82 -70 211 -70q164 0 246 116t82 279q0 152 -79 256.5t-218 104.5q-180 0 -258 -111z" />
<glyph unicode="ffb" horiz-adv-x="2383" d="M23 791l6 147q139 -8 207 -8q0 115 16 211t61 157t124.5 89.5t186.5 28.5q169 0 291 -64q39 35 94 55q80 29 186 29q84 0 172 -29l204 11q-16 -173 -16 -546h9q98 113 311 113q184 0 296.5 -138t112.5 -333q0 -219 -124.5 -380t-342.5 -161q-184 0 -249 66h-9l-24 -39 h-156q19 330 19 745q-1 287 -20 544q-84 24 -182 24q-79 0 -125.5 -20t-71 -65t-31.5 -118t-7 -180q99 0 277 10l-6 -149q-203 6 -273 6q0 -455 13 -797h-179q15 334 15 797h-421q0 -455 12 -797h-178q15 334 15 797q-62 0 -213 -6zM389 930h419q0 135 16 231q7 44 20 80 q-108 52 -220 52q-79 0 -125.5 -20t-71 -65t-31.5 -118t-7 -160zM1551 739q0 -354 17 -575q82 -70 211 -70q163 0 245 116t82 279q0 152 -78.5 256.5t-218.5 104.5q-180 0 -258 -111z" />
<glyph unicode="fh" horiz-adv-x="1783" d="M23 791l6 147q139 -8 207 -8q0 135 16 231t61 157t124.5 89.5t186.5 28.5q83 0 171 -29l190 10q-8 -305 -8 -565h6q150 131 330 131q160 0 250 -74.5t90 -261.5q0 -18 -2 -74.5t-2 -97.5q0 -143 4 -475h-183q23 262 23 565q0 162 -60.5 219.5t-168.5 57.5 q-150 0 -281 -105q0 -544 8 -737h-184q18 330 18 745q0 287 -19 544q-99 24 -182 24q-79 0 -125.5 -20t-71 -65t-31.5 -118t-7 -180q99 0 277 10l-6 -149q-203 6 -273 6q0 -455 12 -797h-178q15 334 15 797q-62 0 -213 -6z" />
<glyph unicode="ffh" horiz-adv-x="2355" d="M23 791l6 147q139 -8 207 -8q0 115 16 211t61 157t124.5 89.5t186.5 28.5q144 0 291 -64q39 35 94 55q80 29 187 29q83 0 171 -29l190 10q-8 -305 -8 -565h6q150 131 330 131q160 0 250 -74.5t90 -261.5q0 -18 -2 -74.5t-2 -97.5q0 -143 4 -475h-182q22 262 22 565 q0 162 -60.5 219.5t-168.5 57.5q-150 0 -281 -105q0 -544 9 -737h-185q19 330 19 745q-1 287 -20 544q-99 24 -182 24q-79 0 -125.5 -20t-71 -65t-31.5 -118t-7 -180q99 0 277 10l-6 -149q-203 6 -273 6q0 -455 13 -797h-179q15 334 15 797h-421q0 -455 12 -797h-178 q15 334 15 797q-62 0 -213 -6zM389 930h419q0 135 16 231q7 44 20 80q-108 52 -220 52q-79 0 -125.5 -20t-71 -65t-31.5 -118t-7 -160z" />
<glyph unicode="fj" horiz-adv-x="1109" d="M21 793l7 147q69 -4 120.5 -6t85.5 -2q0 135 16 231t61 157t124.5 89.5t186.5 28.5q215 0 387 -72l-62 -150q-195 99 -325 99q-79 0 -125.5 -20t-71 -65t-31.5 -118t-7 -180q401 0 599 39q-17 -309 -17 -623q0 -82 5 -218t5 -185q0 -324 -245 -394l-49 76q88 76 108 160 q33 123 33 520q0 333 -25 504q-159 -12 -414 -12q0 -455 12 -797h-179q14 564 14 797q-61 0 -213 -6z" />
<glyph unicode="ffj" horiz-adv-x="1681" d="M22 791l7 147q138 -8 206 -8v2q0 115 16 211t61 157t124.5 89.5t186.5 28.5q169 0 291 -64q39 35 94 55q80 29 186 29q215 0 387 -72l-62 -150q-195 99 -325 99q-79 0 -125.5 -20t-71 -65t-31.5 -118t-7 -180q401 0 599 39q-17 -309 -17 -623q0 -82 5 -218t5 -185 q0 -324 -245 -394l-49 76q88 76 108 160q33 123 33 520q0 333 -25 504q-159 -12 -414 -12q0 -455 12 -799h-179q14 566 14 799h-418q0 -457 12 -799h-179q14 333 14 797q-61 0 -213 -6zM388 932h419q0 135 16 231q7 44 20 80q-91 52 -220 52q-79 0 -125.5 -20t-71 -65 t-31.5 -118t-7 -160z" />
<glyph unicode="fk" horiz-adv-x="1670" d="M23 791l6 147q139 -8 207 -8q0 135 16 231t61 157t124.5 89.5t186.5 28.5q83 0 171 -29l188 10q-10 -217 -10 -839h6q33 0 208 168.5t175 203.5h221q0 -32 -158 -166q-147 -125 -268 -206v-9q123 -94 318 -321q184 -215 184 -248h-236q0 35 -194 266q-199 240 -250 240 h-6q0 -213 10 -506h-176q18 330 18 745q0 287 -19 544q-99 24 -182 24q-79 0 -125.5 -20t-71 -65t-31.5 -118t-7 -180q99 0 277 10l-6 -149q-203 6 -273 6q0 -455 12 -797h-178q15 334 15 797q-62 0 -213 -6z" />
<glyph unicode="ffk" horiz-adv-x="2242" d="M23 791l6 147q139 -8 207 -8q0 115 16 211t61 157t124.5 89.5t186.5 28.5q169 0 291 -64q39 35 94 55q80 29 186 29q84 0 172 -29l188 11q-10 -218 -10 -840h6q33 0 208 168.5t175 203.5h221q0 -32 -157 -166q-148 -125 -269 -206v-9q123 -94 318 -321q184 -215 184 -248 h-235q0 35 -195 266q-199 240 -250 240h-6q0 -213 10 -506h-176q19 330 19 745q-1 287 -20 544q-89 24 -182 24q-79 0 -125.5 -20t-71 -65t-31.5 -118t-7 -180q99 0 277 10l-6 -149q-203 6 -273 6q0 -455 13 -797h-179q15 334 15 797h-421q0 -455 12 -797h-178 q15 334 15 797q-62 0 -213 -6zM389 930h419q0 135 16 231q7 44 20 80q-91 52 -220 52q-79 0 -125.5 -20t-71 -65t-31.5 -118t-7 -160z" />
<glyph horiz-adv-x="444" />
<glyph horiz-adv-x="444" />
<glyph unicode="&#xd;" horiz-adv-x="444" />
<glyph unicode=" "  horiz-adv-x="444" />
<glyph unicode="&#x09;" horiz-adv-x="444" />
<glyph unicode="&#xa0;" horiz-adv-x="444" />
<glyph unicode="!" horiz-adv-x="516" d="M120 130q0 58 40 101.5t111 43.5q59 0 90.5 -37t31.5 -91q0 -59 -39.5 -104t-109.5 -45q-59 0 -91.5 39t-32.5 93zM169 1155q0 171 118 171q91 0 91 -159q0 -215 -83 -630h-74q-52 422 -52 618z" />
<glyph unicode="&#x22;" horiz-adv-x="926" d="M555 1262q0 159 113 159q70 0 89 -40t19 -119q0 -215 -126 -560h-37q-58 372 -58 560zM150 1262q0 159 113 159q70 0 89 -40t19 -119q0 -215 -126 -560h-37q-58 372 -58 560z" />
<glyph unicode="#" d="M35 414v128h213q15 39 33 84q33 86 62 162h-204v128h252q117 317 124 392h128q-8 -41 -140 -392h239q117 319 124 392h128q-8 -39 -140 -392h144v-128h-192q-21 -55 -45 -118q-25 -68 -48 -128h181v-128h-230q-131 -352 -146 -414h-130q16 39 161 414h-236 q-131 -352 -146 -414h-130q16 40 161 414h-163zM362 542h237q16 41 33 86q33 85 62 160h-239q-21 -57 -45 -120q-26 -67 -48 -126z" />
<glyph unicode="$" horiz-adv-x="909" d="M114 53l31 147q130 -50 277 -50q223 0 223 114q0 59 -52 100q-43 34 -157 79q-138 55 -199 103q-100 80 -100 197q0 102 70 180t213 93q0 196 -9 306h118q-9 -113 -8 -302q149 -3 240 -29l-31 -145q-109 44 -246 44q-192 0 -192 -112q0 -56 40 -88t166 -81 q133 -52 197 -103q101 -81 101 -195q0 -249 -275 -285q0 -165 8 -295h-118q8 135 7 289q-161 0 -304 33zM466 -25zM471 1064z" />
<glyph unicode="%" d="M54 1066q0 98 67.5 170t188.5 72t188.5 -71t67.5 -169t-67.5 -170t-188.5 -72t-188.5 71t-67.5 169zM62 10q0 97 390 643t390 649l118 -10q0 -89 -390 -633t-390 -659zM169 1064q0 -63 37 -109t104 -46t103.5 46t36.5 109q0 64 -37 111.5t-103 47.5t-103.5 -47.5 t-37.5 -111.5zM467 229q0 98 67.5 170t188.5 72t188.5 -71t67.5 -169t-67.5 -169.5t-188.5 -71.5t-188.5 70.5t-67.5 168.5zM583 227q0 -63 36.5 -109t103.5 -46t104 46t37 109q0 64 -37.5 111.5t-103.5 47.5q-65 0 -102.5 -47.5t-37.5 -111.5z" />
<glyph unicode="&#x26;" horiz-adv-x="1396" d="M83 316q0 169 76 279t223 169v7q-180 139 -180 276q0 131 99 204t234 73q134 0 231.5 -72t97.5 -202q0 -83 -53 -156q-55 -76 -146 -113v-10q112 -59 335 -277h6q44 77 44 268h188q0 -40 -50 -160q-55 -131 -105 -185v-8q75 -69 179 -215q108 -151 108 -194h-217 q0 25 -65 123q-63 95 -105 139h-8q-197 -291 -512 -291q-168 0 -274 92t-106 253zM262 386q0 -125 76.5 -199.5t202.5 -74.5q169 0 372 231v10q-73 77 -144 142q-169 154 -296 216q-211 -95 -211 -325zM370 1056q0 -135 204 -230q128 56 128 184q0 94 -49.5 142t-119.5 48 q-65 0 -114 -39.5t-49 -104.5z" />
<glyph unicode="'" horiz-adv-x="521" d="M150 1262q0 159 113 159q70 0 89 -40t19 -119q0 -215 -126 -560h-37q-58 372 -58 560z" />
<glyph unicode="(" horiz-adv-x="723" d="M79 471q0 526 255 841q107 131 255 209l51 -85q-116 -91 -198 -217q-198 -304 -198 -748q0 -380 204 -664q43 -60 93 -111.5t110 -96.5l-73 -85q-147 68 -249 185q-250 283 -250 772z" />
<glyph unicode=")" horiz-adv-x="723" d="M79 1436l72 85q146 -67 250 -185q250 -283 250 -772q0 -526 -255 -841q-107 -131 -256 -209l-51 85q116 90 199 217q198 305 198 748q0 381 -203 664q-85 119 -204 208z" />
<glyph unicode="*" d="M95 1103q0 48 23 89t64 41q58 0 275 -173l18 12q-51 224 -51 292q0 31 34.5 50.5t78.5 19.5q99 0 99 -70q0 -79 -84 -296l16 -16q219 140 279 140q38 0 65.5 -46t27.5 -88q0 -87 -169 -87q-91 0 -184 8l-6 -20q219 -181 219 -238q0 -41 -44 -81.5t-87 -40.5 q-82 0 -152 318h-23q-110 -289 -182 -289q-42 0 -88 35.5t-46 76.5q0 72 256 225l-6 23q-112 9 -294 41q-39 13 -39 74z" />
<glyph unicode="+" d="M107 438v128h345v366h129v-366h345v-128h-345v-366h-129v366h-345z" />
<glyph unicode="," horiz-adv-x="516" d="M50 -310q152 170 152 314q-86 34 -86 126q0 58 36 101.5t107 43.5q58 0 94.5 -47t36.5 -114q0 -133 -69 -249.5t-211 -240.5zM264 -2z" />
<glyph unicode="-" horiz-adv-x="516" d="M39 438l9 128l431 15l-12 -129z" />
<glyph unicode="." horiz-adv-x="516" d="M120 130q0 58 40 101.5t111 43.5q59 0 90.5 -37t31.5 -91q0 -59 -39.5 -104t-109.5 -45q-59 0 -91.5 39t-32.5 93z" />
<glyph unicode="/" horiz-adv-x="547" d="M15 -302q0 65 184 816.5t184 940.5h149q0 -69 -183 -828.5t-183 -928.5h-151z" />
<glyph unicode="0" horiz-adv-x="1125" d="M120 500q0 240 119 402t336 162q208 0 319 -148t111 -377q0 -240 -119 -402t-336 -162q-208 0 -319 148t-111 377zM289 540q0 -197 75 -316t207 -117q116 0 190.5 104t74.5 288q0 197 -75 316t-207 117q-127 0 -196 -113t-69 -279z" />
<glyph unicode="1" horiz-adv-x="716" d="M70 799l360 265h86q-10 -323 -10 -626q0 -214 10 -438h-171q11 211 11 438q0 263 -11 388l-228 -114z" />
<glyph unicode="2" horiz-adv-x="946" d="M100 0l20 135q259 178 364 297.5t105 275.5q0 211 -282 211q-121 0 -192 -16l20 141q74 20 194 20q222 0 329 -90t107 -219q0 -192 -139.5 -340t-341.5 -278v-8q284 0 562 12l-20 -141h-726z" />
<glyph unicode="3" horiz-adv-x="995" d="M60 -273q303 20 473 121t170 268q0 155 -127 218.5t-370 63.5l20 119q193 0 317 59t124 162q0 97 -78 138t-242 41q-123 0 -215 -21l12 141q92 27 289 27q182 0 280.5 -77.5t98.5 -184.5q0 -220 -231 -297v-10q127 -24 210.5 -116t83.5 -228q0 -203 -202.5 -365.5 t-583.5 -181.5z" />
<glyph unicode="4" horiz-adv-x="1092" d="M70 280q0 26 271 393t270 382h209q-12 -226 -12 -755q91 0 194 11l-21 -157h-173q0 -186 12 -484h-171q8 258 8 484h-566zM229 294q176 0 427 7q2 310 11 612h-8q0 -27 -215 -311t-215 -300v-8z" />
<glyph unicode="5" horiz-adv-x="1006" d="M120 -247q276 17 432.5 119t156.5 257q0 168 -127 235.5t-455 67.5q56 456 56 623h611l-6 -159q-204 28 -482 28q-27 -191 -27 -358q308 0 457.5 -93.5t149.5 -298.5q0 -206 -201 -366t-537 -173z" />
<glyph unicode="6" horiz-adv-x="1130" d="M120 509q0 791 700 834l13 -116q-266 -27 -390.5 -155.5t-147.5 -390.5h11q96 133 322 133q179 0 280.5 -121.5t101.5 -288.5q0 -181 -117.5 -314t-330.5 -133q-183 0 -312.5 140t-129.5 412zM294 570q0 -257 77.5 -370.5t194.5 -113.5q126 0 198 85.5t72 203.5 q0 128 -78.5 220t-230.5 92q-143 0 -233 -117z" />
<glyph unicode="7" horiz-adv-x="968" d="M70 890l6 165h802q0 -185 -145 -510q-60 -135 -268 -533q-144 -276 -144 -342l-176 21q0 64 151 327q261 459 278 493q151 287 151 405q-216 0 -655 -26z" />
<glyph unicode="8" horiz-adv-x="1127" d="M120 355q0 117 74 215.5t211 156.5v11q-206 127 -206 314q0 150 110 232t262 82q148 0 256.5 -78t108.5 -214q0 -93 -58 -178t-161 -127v-11q290 -163 290 -388q0 -185 -133.5 -288t-315.5 -103q-178 0 -308 99t-130 277zM284 380q0 -129 83.5 -198.5t199.5 -69.5 q111 0 192.5 62t81.5 169q0 188 -310 339q-108 -37 -177.5 -120.5t-69.5 -181.5zM358 1083q0 -162 237 -275q182 81 182 244q0 97 -62.5 148.5t-149.5 51.5q-83 0 -145 -45.5t-62 -123.5z" />
<glyph unicode="9" horiz-adv-x="1123" d="M120 616q0 181 115.5 314.5t324.5 133.5q184 0 313.5 -144.5t129.5 -427.5q0 -854 -725 -897l-29 119q545 37 578 631h-10q-100 -143 -319 -143q-177 0 -277.5 122.5t-100.5 291.5zM293 647q0 -127 80 -222t223 -95q152 0 233 139q0 229 -85 344.5t-201 115.5 q-117 0 -183.5 -83t-66.5 -199z" />
<glyph unicode=":" horiz-adv-x="516" d="M120 812q0 58 40 101.5t111 43.5q59 0 90.5 -37t31.5 -91q0 -59 -39.5 -104t-109.5 -45q-59 0 -91.5 39t-32.5 93zM120 130q0 58 40 101.5t111 43.5q59 0 90.5 -37t31.5 -91q0 -59 -39.5 -104t-109.5 -45q-59 0 -91.5 39t-32.5 93z" />
<glyph unicode=";" horiz-adv-x="516" d="M50 -310q152 170 152 314q-86 34 -86 126q0 58 36 101.5t107 43.5q58 0 94.5 -47t36.5 -114q0 -133 -69 -249.5t-211 -240.5zM264 -2zM120 812q0 58 40 101.5t111 43.5q59 0 90.5 -37t31.5 -91q0 -59 -39.5 -104t-109.5 -45q-59 0 -91.5 39t-32.5 93z" />
<glyph unicode="&#x3c;" d="M107 469v87l736 444l83 -122l-649 -355v-23l649 -351l-83 -124z" />
<glyph unicode="=" d="M107 231v128h819v-128h-819zM107 645v128h819v-128h-819z" />
<glyph unicode="&#x3e;" d="M107 149l651 353v23l-651 353l83 122l736 -444v-87l-736 -444z" />
<glyph unicode="?" horiz-adv-x="723" d="M60 1209l25 126q568 0 568 -312q0 -216 -277 -335l-21 -151h-78l-37 213q243 49 243 242q0 217 -423 217zM163 130q0 58 40 101.5t111 43.5q59 0 90.5 -37t31.5 -91q0 -59 -39.5 -104t-109.5 -45q-59 0 -91.5 39t-32.5 93z" />
<glyph unicode="@" horiz-adv-x="2066" d="M130 483q0 399 240.5 695.5t662.5 296.5q446 0 676.5 -260.5t230.5 -607.5q0 -262 -128.5 -449t-338.5 -187q-113 0 -186.5 67.5t-73.5 184.5h-9q-114 -252 -322 -252q-130 0 -200 113t-70 280q0 236 130 425.5t357 189.5q142 0 194 -91h11l18 62l128 21 q-84 -481 -84 -576q0 -150 35.5 -219t137.5 -69q98 0 166 139t68 330q0 298 -179.5 521t-556.5 223q-344 0 -544 -253t-200 -590q0 -327 193.5 -560t550.5 -233q156 0 281 45l21 -173q-126 -31 -306 -31q-431 0 -667 283t-236 675zM773 374q0 -112 42.5 -185t122.5 -73 q113 0 213 180q111 200 111 481q-48 58 -153 58q-155 0 -245.5 -144t-90.5 -317z" />
<glyph unicode="A" horiz-adv-x="1262" d="M11 0q0 37 258 639.5t258 662.5h232q0 -59 246 -653t246 -649h-211q0 67 -126 421h-577q-124 -349 -124 -421h-202zM379 552h489q-235 587 -235 624h-11q0 -31 -243 -624z" />
<glyph unicode="B" horiz-adv-x="1200" d="M188 0q14 310 14 684q0 352 -14 618h120q35 0 141 3t154 3q416 0 416 -287q0 -224 -197 -298v-10q279 -50 279 -316q0 -194 -165 -300q-161 -103 -442 -103q-78 0 -306 6zM345 1163q8 -72 8 -407q49 -2 108 -2q198 0 288 45q102 50 102 172q0 207 -279 207 q-140 0 -227 -15zM355 620q0 -267 11 -477q38 -9 134 -9q241 0 342 63q90 57 90 183q0 246 -436 246q-80 0 -141 -6z" />
<glyph unicode="C" horiz-adv-x="1125" d="M99 622q0 285 193 491.5t519 206.5q90 0 190 -27l-28 -159q-115 36 -205 36q-242 0 -367 -150t-125 -367q0 -221 144 -379t398 -158q97 0 252 43l-13 -149q-123 -37 -268 -37q-344 0 -517 188.5t-173 460.5z" />
<glyph unicode="D" horiz-adv-x="1316" d="M188 0q15 310 15 684q0 352 -15 618h110q40 0 122 3t108 3q353 0 521 -173.5t168 -436.5q0 -284 -181.5 -498t-500.5 -214q-104 0 -347 14zM349 1163q8 -233 8 -479q0 -270 11 -548q80 -16 154 -16q264 0 392.5 156.5t128.5 376.5q0 222 -141.5 371t-437.5 149 q-42 0 -115 -10z" />
<glyph unicode="E" horiz-adv-x="1066" d="M188 0q14 310 14 684q0 352 -14 618h756l-8 -149q-275 12 -583 12q6 -155 6 -419q266 0 474 12v-149q-222 9 -474 9q0 -257 9 -482q332 0 632 15l-6 -151h-806z" />
<glyph unicode="F" horiz-adv-x="1002" d="M188 0q14 310 14 684q0 352 -14 618h770l-8 -149q-266 12 -603 12q12 -166 12 -458q235 0 457 8v-145q-214 8 -457 8q0 -391 11 -578h-182z" />
<glyph unicode="G" horiz-adv-x="1271" d="M99 624q0 279 194 487.5t538 208.5q124 0 235 -29l-25 -166q-165 40 -266 40q-242 0 -370.5 -146.5t-128.5 -363.5q0 -218 147.5 -382t416.5 -164q49 0 147 15q-17 104 -17 242q0 116 -14 227h182q-8 -132 -8 -279q0 -63 8 -287q-164 -54 -331 -54q-351 0 -529.5 187.5 t-178.5 463.5z" />
<glyph unicode="H" horiz-adv-x="1335" d="M188 0q14 365 14 684q0 334 -14 618h190q-12 -286 -12 -556h603q0 217 -12 556h190q-15 -278 -15 -618q0 -373 15 -684h-190q10 346 10 620h-599q0 -222 10 -620h-190z" />
<glyph unicode="I" horiz-adv-x="566" d="M188 0q15 324 15 684q0 354 -15 618h190q-14 -273 -14 -618q0 -362 14 -684h-190z" />
<glyph unicode="J" horiz-adv-x="851" d="M22 -6l15 146q71 -33 148 -33q86 0 150.5 24.5t103 76.5t55 128t16.5 199q0 454 -15 767h190q-7 -152 -10.5 -337t-3.5 -407q0 -161 -27 -266t-84.5 -177t-147.5 -107t-216 -35q-97 0 -174 21z" />
<glyph unicode="K" horiz-adv-x="1212" d="M188 0q15 310 15 684q0 352 -15 618h188q-10 -266 -10 -540h23q55 0 274.5 255t219.5 285h208q0 -30 -213.5 -247.5t-317.5 -292.5v-10q115 -44 383 -397q247 -325 247 -355h-219q0 11 -114 174q-132 189 -241 312q-148 167 -219 167h-31q0 -234 10 -653h-188z" />
<glyph unicode="L" horiz-adv-x="1003" d="M188 0q12 247 12 684q0 376 -12 618h186q-12 -202 -12 -618q0 -342 -11 -548q300 0 630 11l-6 -147h-787z" />
<glyph unicode="M" horiz-adv-x="1748" d="M144 0q0 10 68 550.5t68 751.5h263q0 -110 160 -550t160 -533h10q0 93 180 534.5t180 548.5h257q0 -211 46 -748t46 -554h-188q0 223 -31 645t-33 506h-10q-100 -325 -253.5 -705.5t-153.5 -445.5h-135q0 70 -143 453.5t-181 513.5t-52 184h-10q-3 -137 -39.5 -553 t-36.5 -598h-172z" />
<glyph unicode="N" horiz-adv-x="1380" d="M188 0q17 325 17 684q0 353 -17 618h192q0 -28 302 -456q316 -450 360 -586h10q-17 244 -17 414q0 370 -14 628h171q-17 -265 -17 -618q0 -359 17 -684h-140q0 17 -328 479q-343 485 -391 612h-10q18 -241 18 -413q0 -336 15 -678h-168z" />
<glyph unicode="O" horiz-adv-x="1421" d="M99 618q0 327 189 518.5t437 191.5q238 0 417.5 -177.5t179.5 -479.5q0 -323 -189 -516.5t-437 -193.5q-238 0 -417.5 177.5t-179.5 479.5zM276 642q0 -259 136.5 -400.5t312.5 -141.5q164 0 291.5 151t127.5 397q0 258 -135.5 399.5t-312.5 141.5q-164 0 -292 -149 t-128 -398z" />
<glyph unicode="P" horiz-adv-x="1132" d="M188 0q15 284 15 684q0 344 -15 618h143q23 0 131.5 3t184.5 3q192 0 305.5 -87.5t113.5 -241.5q0 -228 -173 -341t-465 -113q-37 0 -64 2q0 -218 16 -527h-192zM355 1163q7 -163 7 -508q35 -2 86 -2q451 0 451 268q0 257 -351 257q-86 0 -193 -15z" />
<glyph unicode="Q" horiz-adv-x="1421" d="M99 618q0 332 203 533q180 177 423 177q233 0 404 -164q193 -185 193 -493q0 -228 -100 -399q-90 -153 -243 -237v-10q169 -16 243 -104q78 -93 135 -355l-188 -8q-63 275 -146 342q-76 61 -327 61q-233 0 -404 164q-193 186 -193 493zM276 642q0 -259 148 -411 q128 -131 301 -131q161 0 283 142q136 157 136 406q0 260 -147 411q-127 130 -301 130q-161 0 -284 -141q-136 -157 -136 -406z" />
<glyph unicode="R" horiz-adv-x="1240" d="M188 0q15 310 15 684q0 352 -15 618h141q45 0 114 3t158 3q438 0 438 -302q0 -251 -246 -353v-10q110 -33 178 -153q57 -100 203 -490h-193q-96 287 -140 380q-56 117 -127 151q-56 27 -201 27q-85 0 -151 -2q0 -323 12 -556h-186zM353 1163q7 -174 7 -473q60 -2 115 -2 q393 0 393 250q0 238 -322 238q-115 0 -193 -13z" />
<glyph unicode="S" horiz-adv-x="1047" d="M99 10l35 157q168 -58 319 -58q340 0 340 192q0 97 -88 166q-59 46 -232 123q-182 81 -255 149q-101 94 -101 236q0 148 103 241q115 104 325 104q238 0 326 -31l-24 -159q-152 48 -323 48q-257 0 -257 -172q0 -83 74 -139q48 -35 212 -106q187 -81 270 -154 q125 -110 125 -270q0 -370 -515 -370q-188 0 -334 43z" />
<glyph unicode="T" horiz-adv-x="1043" d="M22 1159l5 143h994l-5 -141q-198 10 -409 10q-2 -192 -2 -487q0 -326 10 -684h-183q12 341 12 684q0 291 -6 487q-148 0 -416 -12z" />
<glyph unicode="U" horiz-adv-x="1398" d="M166 1302h190q-12 -381 -12 -597q0 -174 17 -283.5t60.5 -182.5t109.5 -103.5t168 -30.5q107 0 174 30.5t109 101t60 181t18 289.5q0 106 -3.5 253.5t-10.5 341.5h186q-4 -189 -6 -353t-2 -306q0 -670 -529 -670q-138 0 -236.5 39.5t-162 121t-93 205.5t-29.5 293 q0 148 -2 314.5t-6 355.5z" />
<glyph unicode="V" horiz-adv-x="1134" d="M11 1302h190q0 -78 182 -555.5t182 -546.5h10q0 78 184 544.5t184 557.5h180q0 -83 -252.5 -650t-252.5 -652h-130q0 77 -238.5 647t-238.5 655z" />
<glyph unicode="W" horiz-adv-x="1815" d="M11 1302h190q0 -41 151.5 -518t151.5 -584h11q0 113 154 580.5t154 521.5h175q0 -65 160 -554.5t160 -547.5h11q0 98 145.5 554.5t145.5 547.5h184q0 -73 -216 -654t-216 -648h-130q0 88 -157 510q-171 457 -194 589h-13q-20 -140 -172 -600q-142 -431 -142 -499h-130 q0 102 -211.5 683.5t-211.5 618.5z" />
<glyph unicode="X" horiz-adv-x="1143" d="M11 0q0 30 211 345q209 312 260 360v10q-54 61 -222 307q-173 254 -173 280h215q0 -30 120 -232q118 -198 169 -258h10q51 62 162 261t111 229h211q0 -28 -183 -270q-177 -232 -241 -297v-10q76 -85 270 -380q201 -305 201 -345h-217q0 39 -150 288q-145 241 -215 326 h-11q-60 -81 -186 -318q-132 -249 -132 -296h-210z" />
<glyph unicode="Y" horiz-adv-x="1127" d="M22 1302h205q0 -26 172.5 -318.5t172.5 -386.5h10q0 95 164.5 380t164.5 325h194q0 -37 -123 -216q-174 -253 -227 -344q-123 -209 -123 -318q0 -206 14 -424h-192q13 207 13 426q0 120 -115 333q-65 119 -215 344q-115 174 -115 199z" />
<glyph unicode="Z" horiz-adv-x="1062" d="M99 0l9 120q126 176 367 570q259 425 259 473v11q-219 0 -621 -25l5 153h816l-8 -124q-114 -161 -351 -565q-247 -420 -247 -462v-11q207 0 635 27l-6 -167h-858z" />
<glyph unicode="[" horiz-adv-x="723" d="M118 -475q12 683 12 946q0 204 -12 1037l481 13l-10 -172q-220 6 -300 6q-8 -691 -8 -884q0 -139 8 -802q74 2 310 19l-10 -174z" />
<glyph unicode="\" horiz-adv-x="547" d="M16 1455h159q0 -189 179 -940.5t179 -816.5h-161q0 169 -178 928.5t-178 828.5z" />
<glyph unicode="]" horiz-adv-x="723" d="M119 -485l10 172q220 -6 300 -6q8 691 8 884q0 139 -8 802q-74 -2 -310 -19l10 174l471 -11q-12 -683 -12 -946q0 -204 12 -1037z" />
<glyph unicode="^" d="M29 682l444 735h87l444 -735l-128 -83l-349 645h-23l-347 -645z" />
<glyph unicode="_" d="M0 -384h1033v-128h-1033v128z" />
<glyph unicode="`" horiz-adv-x="562" d="M90 1410h216q0 -11 90 -159.5t90 -164.5h-120q0 16 -138 164t-138 160z" />
<glyph unicode="a" horiz-adv-x="1005" d="M88 235q0 154 130 247.5t483 98.5q3 24 3 55q0 123 -65.5 164t-198.5 41q-157 0 -309 -39l17 138q150 43 345 43q178 0 275 -73.5t97 -250.5q0 -47 -4.5 -170.5t-4.5 -164.5q0 -182 27 -324l-157 -6q-12 49 -12 93h-10q-123 -112 -335 -112q-115 0 -198 67.5t-83 192.5z M251 248q0 -136 192 -136q165 0 263 82q-5 152 -5 273q-188 0 -286 -28q-164 -50 -164 -191z" />
<glyph unicode="b" horiz-adv-x="1138" d="M122 1407l198 10q-10 -172 -10 -545h8q98 113 311 113q185 0 297.5 -138t112.5 -333q0 -219 -125 -380t-342 -161q-184 0 -250 66h-8l-25 -39h-147q13 345 13 746q0 362 -33 661zM306 740q0 -356 16 -577q81 -68 211 -68q164 0 246 115t82 280q0 151 -79 255t-218 104 q-180 0 -258 -109z" />
<glyph unicode="c" horiz-adv-x="925" d="M99 461q0 214 144 368t381 154q119 0 194 -24l-27 -157q-105 39 -213 39q-142 0 -226 -99t-84 -248q0 -162 100 -270t283 -108q75 0 208 37l-10 -134q-81 -46 -217 -46q-259 0 -396 143t-137 345z" />
<glyph unicode="d" horiz-adv-x="1127" d="M99 444q0 221 125 381t352 160q162 0 232 -66h8q0 248 -14 487l190 7q-19 -254 -19 -665q0 -418 21 -747l-149 -5q-8 43 -8 91h-11q-105 -114 -312 -114q-190 0 -302.5 138t-112.5 333zM277 469q0 -152 79.5 -256t220.5 -104q177 0 256 89q0 311 -17 599q-81 67 -202 67 q-169 0 -253 -112.5t-84 -282.5z" />
<glyph unicode="e" horiz-adv-x="1051" d="M99 461q0 218 124.5 375.5t334.5 157.5q193 0 293.5 -114t100.5 -293q0 -42 -4 -116l-687 -12q10 -146 113 -244.5t273 -98.5q152 0 285 37l-17 -141q-98 -39 -283 -39q-260 0 -396.5 142t-136.5 346zM267 574l518 11q0 281 -235 281q-240 0 -283 -292z" />
<glyph unicode="f" horiz-adv-x="694" d="M22 791l7 147q138 -8 206 -8q0 265 74 385.5t236 120.5q71 0 149 -17l-29 -132q-60 15 -120 15q-92 0 -124.5 -72.5t-32.5 -299.5q99 0 277 10l-6 -149q-202 6 -271 6q0 -455 12 -797h-179q14 333 14 797q-61 0 -213 -6z" />
<glyph unicode="g" horiz-adv-x="1105" d="M66 -219q0 112 50.5 180t125.5 84v9q-79 38 -79 146q0 98 100 172v8q-53 26 -101 88t-48 154q0 159 105 259t304 100q163 0 256 -59h11q32 169 168 169q74 0 114 -15l-16 -138q-186 0 -205 -60v-10q64 -78 64 -178q0 -156 -102.5 -257.5t-316.5 -101.5q-95 0 -151 20 q-49 -35 -49 -87q0 -64 58 -85q74 -28 309 -28q380 0 380 -252q0 -180 -148 -298t-383 -118q-241 0 -343.5 87.5t-102.5 210.5zM211 -159q0 -244 320 -244q167 0 264.5 65t97.5 169q0 94 -68.5 132.5t-257.5 38.5q-128 0 -234 12q-122 -59 -122 -173zM271 659 q0 -109 69.5 -166t178.5 -57q100 0 167.5 55.5t67.5 157.5q0 110 -69.5 168.5t-176.5 58.5q-101 0 -169 -56.5t-68 -160.5z" />
<glyph unicode="h" horiz-adv-x="1109" d="M122 1407l190 10q-8 -305 -8 -566h6q150 132 329 132q160 0 250 -74.5t90 -261.5q0 -19 -2 -74.5t-2 -97.5q0 -144 4 -475h-182q22 263 22 566q0 162 -60.5 218.5t-167.5 56.5q-150 0 -281 -103q0 -546 8 -738h-176q9 264 9 746q0 422 -29 661z" />
<glyph unicode="i" horiz-adv-x="446" d="M111 942l200 27q-12 -209 -12 -512q0 -240 14 -457h-181q14 200 14 457q0 289 -35 485zM121 1235q0 50 34 87t94 37q49 0 77.5 -32.5t28.5 -76.5q0 -51 -33 -88.5t-93 -37.5q-51 0 -79.5 32.5t-28.5 78.5z" />
<glyph unicode="j" horiz-adv-x="446" d="M10 -372q89 75 110 160q31 122 31 520q0 427 -40 638l201 25q-17 -310 -17 -622q0 -83 5.5 -219.5t5.5 -185.5q0 -323 -246 -392zM121 1235q0 50 34 87t94 37q49 0 77.5 -32.5t28.5 -76.5q0 -51 -33 -88.5t-93 -37.5q-51 0 -79.5 32.5t-28.5 78.5z" />
<glyph unicode="k" horiz-adv-x="1000" d="M122 1407l192 10q-11 -216 -11 -839h7q33 0 207.5 168.5t174.5 203.5h221q0 -32 -157 -166q-147 -125 -269 -206v-8q124 -94 319 -322q183 -215 183 -248h-235q0 35 -194 267q-199 239 -250 239h-7q0 -214 11 -506h-176q13 366 13 746q0 387 -29 661z" />
<glyph unicode="l" horiz-adv-x="469" d="M122 1407l203 10q-19 -272 -19 -671q0 -411 19 -746h-192q18 330 18 746q0 404 -29 661z" />
<glyph unicode="m" horiz-adv-x="1677" d="M100 946l176 25l18 -121h10q130 133 289 133q237 0 305 -133h11q151 133 298 133q168 0 254 -74t86 -261q0 -19 -2 -75t-2 -75q0 -167 4 -498h-182q23 262 23 579q0 160 -55.5 211.5t-182.5 51.5q-107 0 -221 -105q-4 -122 -4 -239q0 -167 6 -498h-182q22 285 22 579 q0 160 -55.5 211.5t-177.5 51.5q-125 0 -234 -105q0 -317 4 -737h-182q19 340 19 492q0 231 -45 454z" />
<glyph unicode="n" horiz-adv-x="1109" d="M111 946l176 25l19 -122h8q148 134 317 134q166 0 257 -73.5t91 -261.5q0 -19 -2 -75t-2 -75q0 -167 4 -498h-182q22 263 22 574q0 154 -62.5 210.5t-178.5 56.5q-142 0 -262 -103q0 -341 4 -738h-182q17 340 17 492q0 234 -44 454z" />
<glyph unicode="o" horiz-adv-x="1144" d="M99 446q0 258 147.5 403t346.5 145q186 0 319 -128.5t133 -361.5q0 -256 -147 -399.5t-346 -143.5q-186 0 -319.5 127t-133.5 358zM271 486q0 -157 78.5 -278t224.5 -121q144 0 221 115.5t77 266.5q0 156 -78.5 277.5t-223.5 121.5q-144 0 -221.5 -115t-77.5 -267z" />
<glyph unicode="p" horiz-adv-x="1138" d="M111 946l176 25l15 -99h10q97 113 314 113q191 0 302 -139.5t111 -331.5q0 -216 -123.5 -378.5t-343.5 -162.5q-184 0 -242 66h-10q0 -278 6 -496h-188q23 266 23 657q0 482 -50 746zM306 740q16 -336 16 -577q81 -68 211 -68q165 0 246.5 116t81.5 279q0 148 -78 253.5 t-219 105.5q-180 0 -258 -109z" />
<glyph unicode="q" horiz-adv-x="1139" d="M99 444q0 216 122 378.5t345 162.5q182 0 267 -66h8l41 31l124 11q-14 -336 -14 -674q0 -404 14 -742h-178q9 274 9 542h-11q-103 -114 -314 -114q-189 0 -301 139.5t-112 331.5zM277 469q0 -148 78 -254t219 -106q180 0 263 110q0 330 -9 576q-93 69 -223 69 q-165 0 -246.5 -116t-81.5 -279z" />
<glyph unicode="r" horiz-adv-x="726" d="M100 946l175 25q19 -110 19 -147h8q108 159 252 159q76 0 182 -33l-45 -159q-78 31 -145 31q-188 0 -244 -179q0 -460 6 -643h-177q16 317 16 492q0 237 -47 454z" />
<glyph unicode="s" horiz-adv-x="858" d="M86 12l31 147q130 -50 282 -50q218 0 218 124q0 60 -48.5 95.5t-160.5 79.5q-142 56 -206 108q-94 77 -94 186q0 114 86 195.5t262 81.5q172 0 276 -29l-31 -144q-108 43 -250 43q-192 0 -192 -111q0 -56 43 -90.5t168 -83.5q135 -53 200 -104q97 -79 97 -189 q0 -292 -373 -292q-165 0 -308 33z" />
<glyph unicode="t" horiz-adv-x="735" d="M44 791l6 145q95 -6 170 -6q0 60 10 285l157 16q-17 -210 -17 -301q98 0 288 10l-7 -149q-180 6 -289 6q-2 -151 -2 -340q0 -206 43.5 -272.5t161.5 -66.5q39 0 115 20l-12 -130q-79 -29 -149 -29q-180 0 -246 91.5t-66 327.5q0 153 2 399q-56 0 -165 -6z" />
<glyph unicode="u" horiz-adv-x="1097" d="M130 945l186 7q-12 -193 -12 -330q0 -315 40.5 -410.5t182.5 -95.5q160 0 264 80q0 556 -10 749l180 7q-8 -188 -8 -520q0 -213 22 -431l-155 -6q-14 56 -14 92h-10q-133 -112 -323 -112q-173 0 -251.5 83.5t-78.5 336.5q0 36 2 107t2 97q0 147 -17 346z" />
<glyph unicode="v" horiz-adv-x="984" d="M44 950h194q0 -48 130 -381t130 -381h9q0 46 123.5 367t123.5 395h186q0 -49 -202.5 -472.5t-202.5 -477.5h-134q0 70 -178.5 489.5t-178.5 460.5z" />
<glyph unicode="w" horiz-adv-x="1569" d="M44 950h178q0 -52 116.5 -380t116.5 -382h11q0 82 120.5 395.5t120.5 366.5h170q0 -46 125 -383t125 -379h10q0 61 108.5 372.5t108.5 389.5h171q0 -60 -171.5 -470.5t-171.5 -479.5h-136q0 38 -101 291q-124 311 -176 486h-8q-48 -169 -164 -487q-92 -252 -92 -290h-137 q0 58 -162 480.5t-162 469.5z" />
<glyph unicode="x" horiz-adv-x="1032" d="M55 0q0 29 143 220t231 284v8q-66 73 -198 246.5t-132 191.5h214q0 -24 80.5 -154t134.5 -199h9q49 59 127.5 193t78.5 160h190q0 -17 -135.5 -194.5t-194.5 -236.5v-11q85 -99 229.5 -292t144.5 -216h-217q0 25 -96 170t-169 243h-8q-51 -70 -141 -226.5t-90 -186.5 h-201z" />
<glyph unicode="y" horiz-adv-x="952" d="M44 950h207q0 -27 126 -364t126 -415h10q0 65 106.5 377t106.5 402h182q0 -64 -151 -408q-173 -393 -215 -554q-69 -261 -128 -332q-80 -98 -285 -98l-8 140q125 0 208 85t83 213q0 111 -184 528t-184 426z" />
<glyph unicode="z" horiz-adv-x="933" d="M99 0l8 155q53 51 271 316q237 289 237 324l-1 11q-321 0 -509 -13l6 157h694l-10 -157q-83 -91 -263 -318q-224 -283 -224 -322v-8q302 0 526 16l-6 -161h-729z" />
<glyph unicode="{" horiz-adv-x="723" d="M45 438v149q242 35 242 155q0 46 -44.5 209.5t-44.5 230.5q0 284 445 339l39 -124q-320 -38 -320 -275q0 -52 44 -196t44 -180q0 -108 -80.5 -165.5t-148.5 -57.5v-9q67 0 148 -56.5t81 -168.5q0 -40 -44 -190.5t-44 -195.5q0 -187 330 -265l-62 -128q-432 90 -432 319 q0 74 40.5 244t40.5 216q0 124 -234 149z" />
<glyph unicode="|" horiz-adv-x="516" d="M171 -517q13 351 13 988q0 626 -13 1079h174q-12 -425 -12 -1079t12 -988h-174z" />
<glyph unicode="}" horiz-adv-x="723" d="M45 1393l62 128q432 -90 432 -319q0 -74 -40.5 -244t-40.5 -216q0 -124 234 -149v-149q-242 -35 -242 -155q0 -46 44.5 -209.5t44.5 -230.5q0 -284 -445 -339l-39 124q320 38 320 275q0 52 -44 196t-44 180q0 108 80.5 165.5t148.5 57.5v9q-67 0 -148 56.5t-81 168.5 q0 40 44 190.5t44 195.5q0 187 -330 265z" />
<glyph unicode="~" d="M6 364q147 262 335 262q68 0 195 -35t191 -35q118 0 205 118l97 -50q-149 -238 -337 -238q-68 0 -181.5 36.5t-177.5 36.5q-118 0 -230 -147z" />
<glyph unicode="&#xa1;" horiz-adv-x="516" d="M123 820q0 59 39.5 104t109.5 45q59 0 91.5 -39t32.5 -93q0 -59 -40 -102t-111 -43q-59 0 -90.5 37t-31.5 91zM138 -200q0 215 83 630h74q52 -422 52 -618q0 -171 -118 -171q-91 0 -91 159z" />
<glyph unicode="&#xa2;" d="M132 507q0 186 114.5 334.5t315.5 180.5q0 134 -8 306h109q-8 -183 -8 -298q104 0 196 -25l-27 -157q-104 35 -212 35q-140 0 -220 -101.5t-80 -241.5q0 -153 96.5 -265.5t275.5 -112.5q75 0 209 37l-11 -134q-87 -45 -227 -45q0 -174 8 -283h-109q2 52 6 289 q-208 30 -318 166t-110 315zM602 -39zM613 994z" />
<glyph unicode="&#xa3;" horiz-adv-x="909" d="M33 491l5 104q53 -3 145 -3q-11 94 -11 171q0 199 90.5 307t259.5 108q72 0 155 -8l-20 -122q-42 10 -114 10q-100 0 -162 -55t-62 -222q0 -80 14 -189q83 0 215 5l-5 -103q-81 4 -199 4q9 -63 9 -117q0 -190 -113 -262v-10q214 0 603 23l-19 -132h-762v93q59 28 102 73 t43 141q0 75 -17 191q-67 0 -157 -7z" />
<glyph unicode="&#xa4;" horiz-adv-x="1000" d="M111 198l92 87q-40 69 -40 165q0 129 61 215l-97 92l102 102l97 -104q82 49 182 49q95 0 170 -44l110 115l101 -101l-111 -106q47 -72 47 -177q0 -110 -46 -188l94 -88l-102 -102l-86 91q-90 -64 -205 -64q-102 0 -181 49l-87 -92zM283 478q0 -95 57 -172.5t155 -77.5 t153.5 73t55.5 165q0 95 -56.5 172.5t-155.5 77.5q-97 0 -153 -73t-56 -165z" />
<glyph unicode="&#xa5;" horiz-adv-x="909" d="M11 1068h204q0 -7 129.5 -241.5t129.5 -323.5h6q0 90 115.5 321.5t115.5 243.5h187q0 -10 -88 -148q-112 -174 -170 -283q77 2 202 5v-77h-239q-33 -69 -47 -108h286v-75q-178 3 -311 3q0 -212 7 -385h-175q5 206 5 385q-114 0 -306 -3v75h284q-15 46 -44 108h-240v77 q139 -3 205 -3q-60 114 -168 283q-88 138 -88 146z" />
<glyph unicode="&#xa6;" horiz-adv-x="516" d="M171 388h174q-13 -345 -13 -436q0 -90 13 -469h-174q13 345 13 436q0 90 -13 469zM171 645q13 345 13 436q0 90 -13 469h174q-13 -345 -13 -436q0 -90 13 -469h-174z" />
<glyph unicode="&#xa7;" horiz-adv-x="859" d="M85 -401l31 147q130 -50 277 -50q223 0 223 135q0 79 -132 194q-122 106 -245 212q-132 134 -132 259q0 92 57.5 165t174.5 99q-232 186 -232 356q0 117 87 207t261 90q172 0 276 -29l-31 -144q-108 43 -245 43q-193 0 -193 -132q0 -90 131 -203q121 -100 242 -201 q131 -126 131 -249q0 -222 -219 -275q219 -177 219 -345q0 -312 -373 -312q-165 0 -308 33zM262 531q0 -87 186 -231q81 0 124.5 45t43.5 105q0 94 -178 234q-86 0 -131 -45t-45 -108z" />
<glyph unicode="&#xa8;" horiz-adv-x="836" d="M125 1238q0 44 30.5 77.5t85.5 33.5q45 0 69.5 -28.5t24.5 -69.5q0 -46 -30.5 -80.5t-84.5 -34.5q-45 0 -70 30t-25 72zM503 1238q0 44 30.5 77.5t85.5 33.5q45 0 69.5 -28.5t24.5 -69.5q0 -46 -30.5 -80.5t-84.5 -34.5q-45 0 -70 30t-25 72z" />
<glyph unicode="&#xa9;" horiz-adv-x="1310" d="M54 598q0 249 176.5 425.5t425.5 176.5q248 0 424 -176.5t176 -425.5q0 -248 -175.5 -423t-424.5 -175t-425.5 175t-176.5 423zM146 600q0 -211 149.5 -360.5t360.5 -149.5t359.5 149.5t148.5 360.5t-148.5 360.5t-359.5 149.5t-360.5 -149.5t-149.5 -360.5zM368 603 q0 139 95.5 244t260.5 105q45 0 95 -14l-14 -89q-57 18 -102 18q-113 0 -174.5 -76t-61.5 -173q0 -99 71 -178.5t190 -79.5q48 0 126 21l-7 -84q-86 -19 -134 -19q-172 0 -258.5 94.5t-86.5 230.5z" />
<glyph unicode="&#xaa;" horiz-adv-x="617" d="M65 910q0 87 48.5 127.5t100.5 52.5t177 16v6q0 67 -27 88.5t-102 21.5q-74 0 -178 -27l13 104q93 27 194 27t160.5 -41t59.5 -145q0 -13 -0.5 -36t-1.5 -86q-2 -102 2 -148.5t12 -92.5l-118 -5q-2 10 -7 47h-9q-67 -55 -158 -55q-84 0 -125 40t-41 106zM186 922 q0 -58 84 -58q75 0 121 35q-2 38 -2 66v58q-71 -1 -127 -14q-76 -22 -76 -87z" />
<glyph unicode="&#xab;" horiz-adv-x="929" d="M483 426v124l294 297l82 -66l-227 -293l227 -296l-82 -66zM70 426v124l294 297l82 -66l-227 -293l227 -296l-82 -66z" />
<glyph unicode="&#xac;" d="M107 640v153h819v-644h-120v491h-699z" />
<glyph unicode="&#xad;" horiz-adv-x="516" d="M39 438l9 128l431 15l-12 -129z" />
<glyph unicode="&#x2010;" horiz-adv-x="516" d="M39 438l9 128l431 15l-12 -129z" />
<glyph unicode="&#xae;" horiz-adv-x="1310" d="M54 758q0 249 176.5 425.5t425.5 176.5q248 0 424 -176.5t176 -425.5q0 -248 -175.5 -423t-424.5 -175t-425.5 175t-176.5 423zM146 760q0 -211 149.5 -360.5t360.5 -149.5t359.5 149.5t148.5 360.5t-148.5 360.5t-359.5 149.5t-360.5 -149.5t-149.5 -360.5zM459 458 q8 155 8 342q0 176 -8 309h71q2 0 46.5 1.5t89.5 1.5q219 0 219 -151q0 -125 -123 -177v-5q55 -16 86 -71t104 -250h-106q-66 199 -100 239t-124 40q-43 0 -66 -1q0 -162 6 -278h-103zM552 1029q3 -76 3 -221q20 -1 48 -1q186 0 186 120q0 109 -151 109q-57 0 -86 -7z" />
<glyph unicode="&#xaf;" horiz-adv-x="500" d="M28 1186l11 124h435l-12 -124h-434z" />
<glyph unicode="&#x2c9;" horiz-adv-x="500" d="M28 1186l11 124h435l-12 -124h-434z" />
<glyph unicode="&#xb0;" horiz-adv-x="547" d="M2 1250q0 112 77 195t218 83q118 0 183 -73t65 -174q0 -112 -78 -197t-217 -85q-117 0 -182.5 74.5t-65.5 176.5zM121 1256q0 -57 36 -97.5t101 -40.5q78 0 122.5 46.5t44.5 108.5q0 56 -37 96t-103 40q-78 0 -121 -45.5t-43 -107.5z" />
<glyph unicode="&#xb1;" d="M107 51v128h819v-128h-819zM107 648v128h345v316h129v-316h345v-128h-345v-316h-129v316h-345z" />
<glyph unicode="&#xb2;" horiz-adv-x="547" d="M62 620l11 90q52 36 95 77t76 84q38 50 58 102t20 103q0 128 -151 128q-36 0 -101 -13l11 97q26 8 59 11.5t73 3.5q114 0 177 -58q61 -58 61 -145q0 -109 -69.5 -206t-173.5 -170v-9q66 0 137.5 2t133.5 5l-13 -102h-404z" />
<glyph unicode="&#xb3;" horiz-adv-x="547" d="M27 630q165 16 241.5 63t76.5 124q0 128 -247 128l14 83q104 0 158.5 25.5t54.5 70.5q0 47 -33 63.5t-100 16.5q-56 0 -128 -16l7 97q65 18 175 18q103 0 152 -39.5t49 -103.5q0 -91 -116 -143v-8q148 -32 148 -174q0 -109 -108 -191.5t-326 -93.5z" />
<glyph unicode="&#xb4;" horiz-adv-x="562" d="M84 1086q0 16 90 164.5t90 159.5h216q0 -12 -138 -160t-138 -164h-120z" />
<glyph unicode="&#xb5;" horiz-adv-x="1128" d="M116 941l204 7q-6 -228 -6 -343q0 -293 54.5 -385t197.5 -92q144 0 231 81q0 545 -20 732l192 9q-10 -215 -10 -417q0 -261 30 -535l-158 -6q-21 81 -21 105h-8q-123 -97 -263 -97q-165 0 -248 97h-10q0 -333 43 -552l-188 -20q13 443 13 746q0 421 -33 670z" />
<glyph unicode="&#xb6;" horiz-adv-x="1371" d="M188 999q0 213 136 312.5t343 99.5q85 0 194.5 -3t134.5 -3h126q-13 -229 -13 -696q0 -657 13 -1122h-172q9 475 9 1144q0 305 -11 533q-88 8 -161 7q-12 -563 -12 -916q0 -482 12 -851h-120q13 383 13 851q0 53 -2 205q-218 0 -354 98.5t-136 340.5z" />
<glyph unicode="&#xb7;" horiz-adv-x="516" d="M120 603q0 58 40 101.5t111 43.5q59 0 90.5 -37t31.5 -91q0 -59 -39.5 -104t-109.5 -45q-59 0 -91.5 39t-32.5 93z" />
<glyph unicode="&#x2219;" horiz-adv-x="516" d="M120 603q0 58 40 101.5t111 43.5q59 0 90.5 -37t31.5 -91q0 -59 -39.5 -104t-109.5 -45q-59 0 -91.5 39t-32.5 93z" />
<glyph unicode="&#xb8;" horiz-adv-x="470" d="M116 -172l46 224l74 -14l-16 -138q196 -47 196 -192q0 -222 -240 -222l-14 92q47 0 76.5 32t29.5 76q0 113 -152 142z" />
<glyph unicode="&#xb9;" horiz-adv-x="547" d="M48 1105l282 187h81q-5 -141 -5 -354q0 -149 5 -318h-136q6 166 6 318q0 104 -4 201l-201 -103z" />
<glyph unicode="&#xba;" horiz-adv-x="617" d="M41 1027q0 144 81 224t198 80q108 0 182 -72t74 -202q0 -136 -79 -218.5t-199 -82.5q-108 0 -182.5 72t-74.5 199zM168 1049q0 -81 39.5 -139t102.5 -58t101.5 57t38.5 130q0 83 -40 140t-102 57q-61 0 -100.5 -56t-39.5 -131z" />
<glyph unicode="&#xbb;" horiz-adv-x="929" d="M483 192l228 294l-228 295l83 66l293 -297v-124l-293 -300zM70 192l228 294l-228 295l83 66l293 -297v-124l-293 -300z" />
<glyph unicode="&#xbc;" horiz-adv-x="1550" d="M170 -22q0 71 507 665.5t507 691.5l146 -20q0 -66 -507.5 -666t-507.5 -691zM97 1105l282 187h81q-5 -141 -5 -354q0 -149 5 -318h-136q6 166 6 318q0 104 -4 201l-201 -103zM919 293q0 15 139 197q131 174 131 190h150q-3 -54 -5.5 -145t-2.5 -231q21 1 43.5 2.5 t54.5 4.5l-13 -103h-85q0 -47 2 -109.5t5 -131.5h-132q3 65 4 125t1 116h-280zM1034 301h74q39 0 103 2q2 66 3 121.5t2 142.5h-5q-23 -53 -39 -74.5t-138 -180.5v-11z" />
<glyph unicode="&#xbd;" horiz-adv-x="1550" d="M170 -22q0 71 507 665.5t507 691.5l146 -20q0 -66 -507.5 -666t-507.5 -691zM98 1105l282 187h81q-5 -141 -5 -354q0 -149 5 -318h-136q6 166 6 318q0 104 -4 201l-201 -103zM976 1l11 90q52 36 95 77t76 84q38 50 58 102t20 103q0 128 -151 128q-36 0 -101 -13l11 97 q26 8 59 11.5t73 3.5q114 0 177 -58q61 -58 61 -145q0 -109 -69.5 -206t-173.5 -170v-9q66 0 137.5 2t133.5 5l-13 -102h-404z" />
<glyph unicode="&#xbe;" horiz-adv-x="1550" d="M170 -22q0 71 507 665.5t507 691.5l146 -20q0 -66 -507.5 -666t-507.5 -691zM110 630q165 16 241.5 63t76.5 124q0 128 -247 128l14 83q104 0 158.5 25.5t54.5 70.5q0 47 -33 63.5t-100 16.5q-56 0 -128 -16l7 97q65 18 175 18q103 0 152 -39.5t49 -103.5 q0 -91 -116 -143v-8q148 -32 148 -174q0 -109 -108 -191.5t-326 -93.5zM918 294q0 15 139 197q131 174 131 190h150q-3 -54 -5.5 -145t-2.5 -231q21 1 43.5 2.5t54.5 4.5l-13 -103h-85q0 -47 2 -109.5t5 -131.5h-132q3 65 4 125t1 116h-280zM1033 302h74q39 0 103 2 q2 66 3 121.5t2 142.5h-5q-23 -53 -39 -74.5t-138 -180.5v-11z" />
<glyph unicode="&#xbf;" horiz-adv-x="723" d="M70 -48q0 215 277 335l21 151h78l37 -213q-243 -50 -243 -242q0 -217 423 -217l-25 -126q-568 0 -568 312zM287 828q0 59 37 101q42 48 112 48q58 0 93 -41q31 -37 31 -91q0 -59 -38 -100q-43 -45 -113 -45q-59 0 -93 39q-29 35 -29 89z" />
<glyph unicode="&#xc0;" horiz-adv-x="1262" d="M11 0q0 37 258 639.5t258 662.5h232q0 -59 246 -653t246 -649h-211q0 67 -126 421h-577q-124 -349 -124 -421h-202zM379 552h489q-235 587 -235 624h-11q0 -31 -243 -624zM341 1690h216q0 -11 90 -134.5t90 -139.5h-120q-10 16 -143 139t-133 135z" />
<glyph unicode="&#xc1;" horiz-adv-x="1262" d="M11 0q0 37 258 639.5t258 662.5h232q0 -59 246 -653t246 -649h-211q0 67 -126 421h-577q-124 -349 -124 -421h-202zM379 552h489q-235 587 -235 624h-11q0 -31 -243 -624zM551 1416q0 16 90 139.5t90 134.5h216q0 -12 -133 -135t-143 -139h-120z" />
<glyph unicode="&#xc2;" horiz-adv-x="1262" d="M11 0q0 37 258 639.5t258 662.5h232q0 -59 246 -653t246 -649h-211q0 67 -126 421h-577q-124 -349 -124 -421h-202zM379 552h489q-235 587 -235 624h-11q0 -31 -243 -624zM349 1416q0 13 94.5 135.5t99.5 138.5h194q5 -16 99.5 -138.5t94.5 -135.5h-114q-10 13 -177 158 q-167 -145 -177 -158h-114z" />
<glyph unicode="&#xc3;" horiz-adv-x="1262" d="M11 0q0 37 258 639.5t258 662.5h232q0 -59 246 -653t246 -649h-211q0 67 -126 421h-577q-124 -349 -124 -421h-202zM379 552h489q-235 587 -235 624h-11q0 -31 -243 -624zM299 1469q110 185 250 185q51 0 128.5 -24t125.5 -24q88 0 172 84l62 -50q-110 -185 -250 -185 q-51 0 -128.5 24t-125.5 24q-88 0 -172 -84z" />
<glyph unicode="&#xc4;" horiz-adv-x="1262" d="M11 0q0 37 258 639.5t258 662.5h232q0 -59 246 -653t246 -649h-211q0 67 -126 421h-577q-124 -349 -124 -421h-202zM379 552h489q-235 587 -235 624h-11q0 -31 -243 -624zM355 1546q0 44 30.5 77.5t85.5 33.5q45 0 69.5 -28.5t24.5 -69.5q0 -46 -30.5 -80.5t-84.5 -34.5 q-45 0 -70 30t-25 72zM733 1546q0 44 30.5 77.5t85.5 33.5q45 0 69.5 -28.5t24.5 -69.5q0 -46 -30.5 -80.5t-84.5 -34.5q-45 0 -70 30t-25 72z" />
<glyph unicode="&#xc5;" horiz-adv-x="1262" d="M11 0q0 37 258 639.5t258 662.5h232q0 -59 246 -653t246 -649h-211q0 67 -126 421h-577q-124 -349 -124 -421h-202zM379 552h489q-235 587 -235 624h-11q0 -31 -243 -624zM441 1557q0 103 69 163t159 60q82 0 139 -51t57 -145q0 -104 -69 -165t-159 -61q-82 0 -139 51.5 t-57 147.5zM535 1562q0 -57 32 -87.5t78 -30.5q50 0 88 35.5t38 96.5q0 57 -32 87.5t-78 30.5q-50 0 -88 -35.5t-38 -96.5z" />
<glyph unicode="&#xc6;" horiz-adv-x="1668" d="M11 0q0 36 261.5 636t261.5 666h1012l-6 -149q-304 12 -610 12q9 -154 9 -419q236 0 505 6l-5 -143q-249 9 -500 9q0 -257 8 -482q340 0 655 15l-6 -151h-823q13 223 13 421h-461q-118 -349 -118 -421h-196zM368 552h418q0 357 -13 613h-157q0 -38 -248 -613z" />
<glyph unicode="&#xc7;" horiz-adv-x="1125" d="M99 622q0 280 181 478q200 220 531 220q90 0 190 -27l-28 -159q-115 36 -205 36q-244 0 -377 -162q-115 -141 -115 -355q0 -218 134 -368q151 -169 408 -169q97 0 252 43l-13 -149q-172 -37 -268 -37q-84 0 -156 12l-12 -85q196 -47 196 -192q0 -222 -240 -222l-14 92 q47 0 76.5 32t29.5 76q0 113 -152 142l35 173q-177 47 -292 173q-161 176 -161 448z" />
<glyph unicode="&#xc8;" horiz-adv-x="1066" d="M188 0q14 310 14 684q0 352 -14 618h756l-8 -149q-275 12 -583 12q6 -155 6 -419q266 0 474 12v-149q-222 9 -474 9q0 -257 9 -482q332 0 632 15l-6 -151h-806zM284 1690h216q0 -11 90 -134.5t90 -139.5h-120q-10 16 -143 139t-133 135z" />
<glyph unicode="&#xc9;" horiz-adv-x="1066" d="M188 0q14 310 14 684q0 352 -14 618h756l-8 -149q-275 12 -583 12q6 -155 6 -419q266 0 474 12v-149q-222 9 -474 9q0 -257 9 -482q332 0 632 15l-6 -151h-806zM502 1416q0 16 90 139.5t90 134.5h216q0 -12 -133 -135t-143 -139h-120z" />
<glyph unicode="&#xca;" horiz-adv-x="1066" d="M188 0q14 310 14 684q0 352 -14 618h756l-8 -149q-275 12 -583 12q6 -155 6 -419q266 0 474 12v-149q-222 9 -474 9q0 -257 9 -482q332 0 632 15l-6 -151h-806zM303 1416q0 13 94.5 135.5t99.5 138.5h194q5 -16 99.5 -138.5t94.5 -135.5h-114q-10 13 -177 158 q-167 -145 -177 -158h-114z" />
<glyph unicode="&#xcb;" horiz-adv-x="1066" d="M188 0q14 310 14 684q0 352 -14 618h756l-8 -149q-275 12 -583 12q6 -155 6 -419q266 0 474 12v-149q-222 9 -474 9q0 -257 9 -482q332 0 632 15l-6 -151h-806zM273 1546q0 44 30.5 77.5t85.5 33.5q45 0 69.5 -28.5t24.5 -69.5q0 -46 -30.5 -80.5t-84.5 -34.5 q-45 0 -70 30t-25 72zM651 1546q0 44 30.5 77.5t85.5 33.5q45 0 69.5 -28.5t24.5 -69.5q0 -46 -30.5 -80.5t-84.5 -34.5q-45 0 -70 30t-25 72z" />
<glyph unicode="&#xcc;" horiz-adv-x="566" d="M188 0q15 324 15 684q0 354 -15 618h190q-14 -273 -14 -618q0 -362 14 -684h-190zM-21 1690h216q0 -11 90 -134.5t90 -139.5h-120q-10 16 -143 139t-133 135z" />
<glyph unicode="&#xcd;" horiz-adv-x="566" d="M188 0q15 324 15 684q0 354 -15 618h190q-14 -273 -14 -618q0 -362 14 -684h-190zM195 1416q0 16 90 139.5t90 134.5h216q0 -12 -133 -135t-143 -139h-120z" />
<glyph unicode="&#xce;" horiz-adv-x="566" d="M188 0q15 324 15 684q0 354 -15 618h190q-14 -273 -14 -618q0 -362 14 -684h-190zM-5 1416q0 13 94.5 135.5t99.5 138.5h194q5 -16 99.5 -138.5t94.5 -135.5h-114q-10 13 -177 158q-167 -145 -177 -158h-114z" />
<glyph unicode="&#xcf;" horiz-adv-x="566" d="M188 0q15 324 15 684q0 354 -15 618h190q-14 -273 -14 -618q0 -362 14 -684h-190zM-8 1546q0 44 30.5 77.5t85.5 33.5q45 0 69.5 -28.5t24.5 -69.5q0 -46 -30.5 -80.5t-84.5 -34.5q-45 0 -70 30t-25 72zM370 1546q0 44 30.5 77.5t85.5 33.5q45 0 69.5 -28.5t24.5 -69.5 q0 -46 -30.5 -80.5t-84.5 -34.5q-45 0 -70 30t-25 72z" />
<glyph unicode="&#xd0;" horiz-adv-x="1316" d="M43 568l9 167q120 -4 151 -4q0 347 -15 571h110q41 0 126 3t124 3q336 0 502.5 -175t166.5 -435q0 -284 -172 -487q-191 -225 -510 -225q-104 0 -347 14q15 249 15 585q-33 0 -160 -17zM349 1163q10 -160 8 -432q56 0 391 33l-6 -161q-346 0 -385 -8q0 -276 11 -459 q80 -16 157 -16q261 0 399 167q119 143 119 366q0 218 -138 369t-417 151q-62 0 -139 -10z" />
<glyph unicode="&#xd1;" horiz-adv-x="1380" d="M188 0q17 325 17 684q0 353 -17 618h192q0 -28 302 -456q316 -450 360 -586h10q-17 244 -17 414q0 370 -14 628h171q-17 -265 -17 -618q0 -359 17 -684h-140q0 17 -328 479q-343 485 -391 612h-10q18 -241 18 -413q0 -336 15 -678h-168zM325 1469q110 185 250 185 q51 0 128.5 -24t125.5 -24q88 0 172 84l62 -50q-110 -185 -250 -185q-51 0 -128.5 24t-125.5 24q-88 0 -172 -84z" />
<glyph unicode="&#xd2;" horiz-adv-x="1421" d="M99 618q0 327 189 518.5t437 191.5q238 0 417.5 -177.5t179.5 -479.5q0 -323 -189 -516.5t-437 -193.5q-238 0 -417.5 177.5t-179.5 479.5zM276 642q0 -259 136.5 -400.5t312.5 -141.5q164 0 291.5 151t127.5 397q0 258 -135.5 399.5t-312.5 141.5q-164 0 -292 -149 t-128 -398zM404 1690h216q0 -11 90 -134.5t90 -139.5h-120q-10 16 -143 139t-133 135z" />
<glyph unicode="&#xd3;" horiz-adv-x="1421" d="M99 618q0 327 189 518.5t437 191.5q238 0 417.5 -177.5t179.5 -479.5q0 -323 -189 -516.5t-437 -193.5q-238 0 -417.5 177.5t-179.5 479.5zM276 642q0 -259 136.5 -400.5t312.5 -141.5q164 0 291.5 151t127.5 397q0 258 -135.5 399.5t-312.5 141.5q-164 0 -292 -149 t-128 -398zM659 1416q0 16 90 139.5t90 134.5h216q0 -12 -133 -135t-143 -139h-120z" />
<glyph unicode="&#xd4;" horiz-adv-x="1421" d="M99 618q0 327 189 518.5t437 191.5q238 0 417.5 -177.5t179.5 -479.5q0 -323 -189 -516.5t-437 -193.5q-238 0 -417.5 177.5t-179.5 479.5zM276 642q0 -259 136.5 -400.5t312.5 -141.5q164 0 291.5 151t127.5 397q0 258 -135.5 399.5t-312.5 141.5q-164 0 -292 -149 t-128 -398zM428 1416q0 13 94.5 135.5t99.5 138.5h194q5 -16 99.5 -138.5t94.5 -135.5h-114q-10 13 -177 158q-167 -145 -177 -158h-114z" />
<glyph unicode="&#xd5;" horiz-adv-x="1421" d="M99 618q0 327 189 518.5t437 191.5q238 0 417.5 -177.5t179.5 -479.5q0 -323 -189 -516.5t-437 -193.5q-238 0 -417.5 177.5t-179.5 479.5zM276 642q0 -259 136.5 -400.5t312.5 -141.5q164 0 291.5 151t127.5 397q0 258 -135.5 399.5t-312.5 141.5q-164 0 -292 -149 t-128 -398zM394 1469q110 185 250 185q51 0 128.5 -24t125.5 -24q88 0 172 84l62 -50q-110 -185 -250 -185q-51 0 -128.5 24t-125.5 24q-88 0 -172 -84z" />
<glyph unicode="&#xd6;" horiz-adv-x="1421" d="M99 618q0 327 189 518.5t437 191.5q238 0 417.5 -177.5t179.5 -479.5q0 -323 -189 -516.5t-437 -193.5q-238 0 -417.5 177.5t-179.5 479.5zM276 642q0 -259 136.5 -400.5t312.5 -141.5q164 0 291.5 151t127.5 397q0 258 -135.5 399.5t-312.5 141.5q-164 0 -292 -149 t-128 -398zM436 1546q0 44 30.5 77.5t85.5 33.5q45 0 69.5 -28.5t24.5 -69.5q0 -46 -30.5 -80.5t-84.5 -34.5q-45 0 -70 30t-25 72zM814 1546q0 44 30.5 77.5t85.5 33.5q45 0 69.5 -28.5t24.5 -69.5q0 -46 -30.5 -80.5t-84.5 -34.5q-45 0 -70 30t-25 72z" />
<glyph unicode="&#xd7;" horiz-adv-x="1024" d="M167 244l259 259l-244 244l90 90l244 -244l259 259l91 -91l-258 -259l243 -244l-90 -90l-244 243l-259 -258z" />
<glyph unicode="&#xd8;" horiz-adv-x="1421" d="M65 -83q0 53 176 265q-141 176 -141 436q0 326 188.5 518t437.5 192q224 0 392 -153q116 143 116 178l122 -31q0 -46 -157 -238q124 -172 124 -413q0 -319 -186 -514.5t-440 -195.5q-207 0 -370 134q-143 -172 -143 -209zM277 645q0 -189 82 -325q233 257 652 728 q-129 144 -314 144q-163 0 -291.5 -149t-128.5 -398zM436 223q126 -120 290 -120q163 0 291 151.5t128 396.5q0 167 -64 293q-228 -252 -645 -721z" />
<glyph unicode="&#xd9;" horiz-adv-x="1398" d="M166 1302h190q-12 -381 -12 -597q0 -174 17 -283.5t60.5 -182.5t109.5 -103.5t168 -30.5q107 0 174 30.5t109 101t60 181t18 289.5q0 106 -3.5 253.5t-10.5 341.5h186q-4 -189 -6 -353t-2 -306q0 -670 -529 -670q-138 0 -236.5 39.5t-162 121t-93 205.5t-29.5 293 q0 148 -2 314.5t-6 355.5zM398 1690h216q0 -11 90 -134.5t90 -139.5h-120q-10 16 -143 139t-133 135z" />
<glyph unicode="&#xda;" horiz-adv-x="1398" d="M166 1302h190q-12 -381 -12 -597q0 -174 17 -283.5t60.5 -182.5t109.5 -103.5t168 -30.5q107 0 174 30.5t109 101t60 181t18 289.5q0 106 -3.5 253.5t-10.5 341.5h186q-4 -189 -6 -353t-2 -306q0 -670 -529 -670q-138 0 -236.5 39.5t-162 121t-93 205.5t-29.5 293 q0 148 -2 314.5t-6 355.5zM625 1416q0 16 90 139.5t90 134.5h216q0 -12 -133 -135t-143 -139h-120z" />
<glyph unicode="&#xdb;" horiz-adv-x="1398" d="M166 1302h190q-12 -381 -12 -597q0 -174 17 -283.5t60.5 -182.5t109.5 -103.5t168 -30.5q107 0 174 30.5t109 101t60 181t18 289.5q0 106 -3.5 253.5t-10.5 341.5h186q-4 -189 -6 -353t-2 -306q0 -670 -529 -670q-138 0 -236.5 39.5t-162 121t-93 205.5t-29.5 293 q0 148 -2 314.5t-6 355.5zM412 1416q0 13 94.5 135.5t99.5 138.5h194q5 -16 99.5 -138.5t94.5 -135.5h-114q-10 13 -177 158q-167 -145 -177 -158h-114z" />
<glyph unicode="&#xdc;" horiz-adv-x="1398" d="M166 1302h190q-12 -381 -12 -597q0 -174 17 -283.5t60.5 -182.5t109.5 -103.5t168 -30.5q107 0 174 30.5t109 101t60 181t18 289.5q0 106 -3.5 253.5t-10.5 341.5h186q-4 -189 -6 -353t-2 -306q0 -670 -529 -670q-138 0 -236.5 39.5t-162 121t-93 205.5t-29.5 293 q0 148 -2 314.5t-6 355.5zM416 1546q0 44 30.5 77.5t85.5 33.5q45 0 69.5 -28.5t24.5 -69.5q0 -46 -30.5 -80.5t-84.5 -34.5q-45 0 -70 30t-25 72zM794 1546q0 44 30.5 77.5t85.5 33.5q45 0 69.5 -28.5t24.5 -69.5q0 -46 -30.5 -80.5t-84.5 -34.5q-45 0 -70 30t-25 72z" />
<glyph unicode="&#xdd;" horiz-adv-x="1127" d="M22 1302h205q0 -26 172.5 -318.5t172.5 -386.5h10q0 95 164.5 380t164.5 325h194q0 -37 -123 -216q-174 -253 -227 -344q-123 -209 -123 -318q0 -206 14 -424h-192q13 207 13 426q0 120 -115 333q-65 119 -215 344q-115 174 -115 199zM502 1416q0 16 90 139.5t90 134.5 h216q0 -12 -133 -135t-143 -139h-120z" />
<glyph unicode="&#xde;" horiz-adv-x="1132" d="M188 0q12 340 12 690q0 338 -12 612h190q-6 -99 -7 -183q106 8 276 8q192 0 305.5 -87t113.5 -235q0 -232 -171.5 -346.5t-466.5 -114.5h-64q0 -138 10 -344h-186zM364 472h84q451 0 451 269q0 256 -351 256q-87 0 -181 -15q-3 -165 -3 -510z" />
<glyph unicode="&#xdf;" horiz-adv-x="1103" d="M133 0q6 423 6 897q0 270 133.5 404.5t337.5 134.5q144 0 233 -68t89 -180q0 -86 -65 -168l-122 -130q-65 -74 -65 -138q0 -54 44 -104q26 -30 114 -98.5t126 -121.5q59 -82 59 -184q0 -132 -112 -204q-96 -61 -239 -61q-125 0 -209 23l27 128q89 -31 194 -31 q188 0 188 116q0 81 -159 211q-95 78 -133 126q-55 70 -55 144q0 96 68 185q63 69 126 137q68 76 68 141q0 145 -208 145q-283 0 -283 -385q0 -439 10 -919h-173z" />
<glyph unicode="&#xe0;" horiz-adv-x="1005" d="M88 235q0 154 130 247.5t483 98.5q3 24 3 55q0 123 -65.5 164t-198.5 41q-157 0 -309 -39l17 138q150 43 345 43q178 0 275 -73.5t97 -250.5q0 -47 -4.5 -170.5t-4.5 -164.5q0 -182 27 -324l-157 -6q-12 49 -12 93h-10q-123 -112 -335 -112q-115 0 -198 67.5t-83 192.5z M251 248q0 -136 192 -136q165 0 263 82q-5 152 -5 273q-188 0 -286 -28q-164 -50 -164 -191zM189 1410h216q0 -11 90 -159.5t90 -164.5h-120q0 16 -138 164t-138 160z" />
<glyph unicode="&#xe1;" horiz-adv-x="1005" d="M88 235q0 154 130 247.5t483 98.5q3 24 3 55q0 123 -65.5 164t-198.5 41q-157 0 -309 -39l17 138q150 43 345 43q178 0 275 -73.5t97 -250.5q0 -47 -4.5 -170.5t-4.5 -164.5q0 -182 27 -324l-157 -6q-12 49 -12 93h-10q-123 -112 -335 -112q-115 0 -198 67.5t-83 192.5z M251 248q0 -136 192 -136q165 0 263 82q-5 152 -5 273q-188 0 -286 -28q-164 -50 -164 -191zM424 1086q0 16 90 164.5t90 159.5h216q0 -12 -138 -160t-138 -164h-120z" />
<glyph unicode="&#xe2;" horiz-adv-x="1005" d="M88 235q0 154 130 247.5t483 98.5q3 24 3 55q0 123 -65.5 164t-198.5 41q-157 0 -309 -39l17 138q150 43 345 43q178 0 275 -73.5t97 -250.5q0 -47 -4.5 -170.5t-4.5 -164.5q0 -182 27 -324l-157 -6q-12 49 -12 93h-10q-123 -112 -335 -112q-115 0 -198 67.5t-83 192.5z M251 248q0 -136 192 -136q165 0 263 82q-5 152 -5 273q-188 0 -286 -28q-164 -50 -164 -191zM189 1086q0 13 94.5 160.5t99.5 163.5h194q5 -16 99.5 -163.5t94.5 -160.5h-104q0 13 -187 208q-187 -195 -187 -208h-104z" />
<glyph unicode="&#xe3;" horiz-adv-x="1005" d="M88 235q0 154 130 247.5t483 98.5q3 24 3 55q0 123 -65.5 164t-198.5 41q-157 0 -309 -39l17 138q150 43 345 43q178 0 275 -73.5t97 -250.5q0 -47 -4.5 -170.5t-4.5 -164.5q0 -182 27 -324l-157 -6q-12 49 -12 93h-10q-123 -112 -335 -112q-115 0 -198 67.5t-83 192.5z M251 248q0 -136 192 -136q165 0 263 82q-5 152 -5 273q-188 0 -286 -28q-164 -50 -164 -191zM151 1123q110 221 250 221q51 0 128.5 -24t125.5 -24q88 0 172 120l62 -50q-110 -221 -250 -221q-51 0 -128.5 24t-125.5 24q-88 0 -172 -120z" />
<glyph unicode="&#xe4;" horiz-adv-x="1005" d="M88 235q0 154 130 247.5t483 98.5q3 24 3 55q0 123 -65.5 164t-198.5 41q-157 0 -309 -39l17 138q150 43 345 43q178 0 275 -73.5t97 -250.5q0 -47 -4.5 -170.5t-4.5 -164.5q0 -182 27 -324l-157 -6q-12 49 -12 93h-10q-123 -112 -335 -112q-115 0 -198 67.5t-83 192.5z M251 248q0 -136 192 -136q165 0 263 82q-5 152 -5 273q-188 0 -286 -28q-164 -50 -164 -191zM204 1238q0 44 30.5 77.5t85.5 33.5q45 0 69.5 -28.5t24.5 -69.5q0 -46 -30.5 -80.5t-84.5 -34.5q-45 0 -70 30t-25 72zM582 1238q0 44 30.5 77.5t85.5 33.5q45 0 69.5 -28.5 t24.5 -69.5q0 -46 -30.5 -80.5t-84.5 -34.5q-45 0 -70 30t-25 72z" />
<glyph unicode="&#xe5;" horiz-adv-x="1005" d="M88 235q0 154 130 247.5t483 98.5q3 24 3 55q0 123 -65.5 164t-198.5 41q-157 0 -309 -39l17 138q150 43 345 43q178 0 275 -73.5t97 -250.5q0 -47 -4.5 -170.5t-4.5 -164.5q0 -182 27 -324l-157 -6q-12 49 -12 93h-10q-123 -112 -335 -112q-115 0 -198 67.5t-83 192.5z M251 248q0 -136 192 -136q165 0 263 82q-5 152 -5 273q-188 0 -286 -28q-164 -50 -164 -191zM292 1260q0 103 69 163t159 60q82 0 139 -51t57 -145q0 -104 -69 -165t-159 -61q-82 0 -139 51.5t-57 147.5zM386 1265q0 -57 32 -87.5t78 -30.5q50 0 88 35.5t38 96.5 q0 57 -32 87.5t-78 30.5q-50 0 -88 -35.5t-38 -96.5z" />
<glyph unicode="&#xe6;" horiz-adv-x="1612" d="M88 225q0 356 616 356v55q0 123 -65.5 164t-198.5 41q-157 0 -309 -39l17 138q150 43 334 43q241 0 323 -126h10q117 137 302 137q195 0 295.5 -114.5t100.5 -292.5q0 -42 -4 -116l-676 -12q10 -143 106.5 -243t266.5 -100q152 0 287 37l-17 -141q-100 -39 -289 -39 q-265 0 -395 174h-10q-106 -97 -188 -134.5t-225 -37.5q-113 0 -197 68.5t-84 181.5zM251 248q0 -136 192 -136q165 0 296 115q-46 107 -46 240q-187 0 -280 -28q-162 -50 -162 -191zM839 574l507 11q0 281 -238 281q-121 0 -190.5 -78.5t-78.5 -213.5z" />
<glyph unicode="&#xe7;" horiz-adv-x="925" d="M99 461q0 209 141.5 365.5t383.5 156.5q119 0 194 -24l-27 -157q-105 39 -213 39q-143 0 -226.5 -100t-83.5 -247q0 -162 100 -270t283 -108q75 0 208 37l-10 -134q-81 -46 -217 -46q-39 0 -75 4l-10 -77q196 -47 196 -192q0 -222 -240 -222l-14 92q47 0 76.5 32t29.5 76 q0 113 -152 142l33 161q-150 33 -263.5 151.5t-113.5 320.5z" />
<glyph unicode="&#xe8;" horiz-adv-x="1051" d="M99 461q0 218 124.5 375.5t334.5 157.5q193 0 293.5 -114t100.5 -293q0 -42 -4 -116l-687 -12q10 -146 113 -244.5t273 -98.5q152 0 285 37l-17 -141q-98 -39 -283 -39q-260 0 -396.5 142t-136.5 346zM267 574l518 11q0 281 -235 281q-240 0 -283 -292zM250 1410h216 q0 -11 90 -159.5t90 -164.5h-120q0 16 -138 164t-138 160z" />
<glyph unicode="&#xe9;" horiz-adv-x="1051" d="M99 461q0 218 124.5 375.5t334.5 157.5q193 0 293.5 -114t100.5 -293q0 -42 -4 -116l-687 -12q10 -146 113 -244.5t273 -98.5q152 0 285 37l-17 -141q-98 -39 -283 -39q-260 0 -396.5 142t-136.5 346zM267 574l518 11q0 281 -235 281q-240 0 -283 -292zM513 1086 q0 16 90 164.5t90 159.5h216q0 -12 -138 -160t-138 -164h-120z" />
<glyph unicode="&#xea;" horiz-adv-x="1051" d="M99 461q0 218 124.5 375.5t334.5 157.5q193 0 293.5 -114t100.5 -293q0 -42 -4 -116l-687 -12q10 -146 113 -244.5t273 -98.5q152 0 285 37l-17 -141q-98 -39 -283 -39q-260 0 -396.5 142t-136.5 346zM267 574l518 11q0 281 -235 281q-240 0 -283 -292zM265 1086 q0 13 94.5 160.5t99.5 163.5h194q5 -16 99.5 -163.5t94.5 -160.5h-104q0 13 -187 208q-187 -195 -187 -208h-104z" />
<glyph unicode="&#xeb;" horiz-adv-x="1051" d="M99 461q0 218 124.5 375.5t334.5 157.5q193 0 293.5 -114t100.5 -293q0 -42 -4 -116l-687 -12q10 -146 113 -244.5t273 -98.5q152 0 285 37l-17 -141q-98 -39 -283 -39q-260 0 -396.5 142t-136.5 346zM267 574l518 11q0 281 -235 281q-240 0 -283 -292zM265 1238 q0 44 30.5 77.5t85.5 33.5q45 0 69.5 -28.5t24.5 -69.5q0 -46 -30.5 -80.5t-84.5 -34.5q-45 0 -70 30t-25 72zM643 1238q0 44 30.5 77.5t85.5 33.5q45 0 69.5 -28.5t24.5 -69.5q0 -46 -30.5 -80.5t-84.5 -34.5q-45 0 -70 30t-25 72z" />
<glyph unicode="&#xec;" horiz-adv-x="446" d="M111 942l200 27q-12 -209 -12 -512q0 -240 14 -457h-181q14 200 14 457q0 289 -35 485zM-88 1410h216q0 -11 90 -159.5t90 -164.5h-120q0 16 -138 164t-138 160z" />
<glyph unicode="&#xed;" horiz-adv-x="446" d="M111 942l200 27q-12 -209 -12 -512q0 -240 14 -457h-181q14 200 14 457q0 289 -35 485zM131 1086q0 16 90 164.5t90 159.5h216q0 -12 -138 -160t-138 -164h-120z" />
<glyph unicode="&#xee;" horiz-adv-x="446" d="M111 942l200 27q-12 -209 -12 -512q0 -240 14 -457h-181q14 200 14 457q0 289 -35 485zM-67 1086q0 13 94.5 160.5t99.5 163.5h194q5 -16 99.5 -163.5t94.5 -160.5h-104q0 13 -187 208q-187 -195 -187 -208h-104z" />
<glyph unicode="&#xef;" horiz-adv-x="446" d="M111 942l200 27q-12 -209 -12 -512q0 -240 14 -457h-181q14 200 14 457q0 289 -35 485zM-75 1238q0 44 30.5 77.5t85.5 33.5q45 0 69.5 -28.5t24.5 -69.5q0 -46 -30.5 -80.5t-84.5 -34.5q-45 0 -70 30t-25 72zM303 1238q0 44 30.5 77.5t85.5 33.5q45 0 69.5 -28.5 t24.5 -69.5q0 -46 -30.5 -80.5t-84.5 -34.5q-45 0 -70 30t-25 72z" />
<glyph unicode="&#xf0;" horiz-adv-x="1122" d="M99 430q0 200 119.5 355t318.5 155q151 0 256 -70h11q-53 174 -158 278q-74 -52 -168 -119l-78 124q46 19 173 81q-65 68 -128 119l93 85q34 -18 170 -131q77 43 183 119l79 -124q-50 -22 -184 -78q237 -286 237 -692q0 -255 -121.5 -413t-347.5 -158q-219 0 -337 137.5 t-118 331.5zM277 438q0 -137 74 -237t203 -100q150 0 221.5 127.5t71.5 294.5q0 122 -16 223q-105 62 -277 62q-123 0 -200 -103.5t-77 -266.5z" />
<glyph unicode="&#xf1;" horiz-adv-x="1109" d="M111 946l176 25l19 -122h8q148 134 317 134q166 0 257 -73.5t91 -261.5q0 -19 -2 -75t-2 -75q0 -167 4 -498h-182q22 263 22 574q0 154 -62.5 210.5t-178.5 56.5q-142 0 -262 -103q0 -341 4 -738h-182q17 340 17 492q0 234 -44 454zM214 1123q110 221 250 221 q51 0 128.5 -24t125.5 -24q88 0 172 120l62 -50q-110 -221 -250 -221q-51 0 -128.5 24t-125.5 24q-88 0 -172 -120z" />
<glyph unicode="&#xf2;" horiz-adv-x="1144" d="M99 446q0 258 147.5 403t346.5 145q186 0 319 -128.5t133 -361.5q0 -256 -147 -399.5t-346 -143.5q-186 0 -319.5 127t-133.5 358zM271 486q0 -157 78.5 -278t224.5 -121q144 0 221 115.5t77 266.5q0 156 -78.5 277.5t-223.5 121.5q-144 0 -221.5 -115t-77.5 -267z M280 1410h216q0 -11 90 -159.5t90 -164.5h-120q0 16 -138 164t-138 160z" />
<glyph unicode="&#xf3;" horiz-adv-x="1144" d="M99 446q0 258 147.5 403t346.5 145q186 0 319 -128.5t133 -361.5q0 -256 -147 -399.5t-346 -143.5q-186 0 -319.5 127t-133.5 358zM271 486q0 -157 78.5 -278t224.5 -121q144 0 221 115.5t77 266.5q0 156 -78.5 277.5t-223.5 121.5q-144 0 -221.5 -115t-77.5 -267z M544 1086q0 16 90 164.5t90 159.5h216q0 -12 -138 -160t-138 -164h-120z" />
<glyph unicode="&#xf4;" horiz-adv-x="1144" d="M99 446q0 258 147.5 403t346.5 145q186 0 319 -128.5t133 -361.5q0 -256 -147 -399.5t-346 -143.5q-186 0 -319.5 127t-133.5 358zM271 486q0 -157 78.5 -278t224.5 -121q144 0 221 115.5t77 266.5q0 156 -78.5 277.5t-223.5 121.5q-144 0 -221.5 -115t-77.5 -267z M300 1086q0 13 94.5 160.5t99.5 163.5h194q5 -16 99.5 -163.5t94.5 -160.5h-104q0 13 -187 208q-187 -195 -187 -208h-104z" />
<glyph unicode="&#xf5;" horiz-adv-x="1144" d="M99 446q0 258 147.5 403t346.5 145q186 0 319 -128.5t133 -361.5q0 -256 -147 -399.5t-346 -143.5q-186 0 -319.5 127t-133.5 358zM271 486q0 -157 78.5 -278t224.5 -121q144 0 221 115.5t77 266.5q0 156 -78.5 277.5t-223.5 121.5q-144 0 -221.5 -115t-77.5 -267z M252 1123q110 221 250 221q51 0 128.5 -24t125.5 -24q88 0 172 120l62 -50q-110 -221 -250 -221q-51 0 -128.5 24t-125.5 24q-88 0 -172 -120z" />
<glyph unicode="&#xf6;" horiz-adv-x="1144" d="M99 446q0 258 147.5 403t346.5 145q186 0 319 -128.5t133 -361.5q0 -256 -147 -399.5t-346 -143.5q-186 0 -319.5 127t-133.5 358zM271 486q0 -157 78.5 -278t224.5 -121q144 0 221 115.5t77 266.5q0 156 -78.5 277.5t-223.5 121.5q-144 0 -221.5 -115t-77.5 -267z M305 1238q0 44 30.5 77.5t85.5 33.5q45 0 69.5 -28.5t24.5 -69.5q0 -46 -30.5 -80.5t-84.5 -34.5q-45 0 -70 30t-25 72zM683 1238q0 44 30.5 77.5t85.5 33.5q45 0 69.5 -28.5t24.5 -69.5q0 -46 -30.5 -80.5t-84.5 -34.5q-45 0 -70 30t-25 72z" />
<glyph unicode="&#xf7;" d="M115 440v128h804v-128h-804zM409 168q0 44 30.5 77.5t85.5 33.5q45 0 69.5 -28.5t24.5 -69.5q0 -46 -30.5 -80.5t-84.5 -34.5q-45 0 -70 30t-25 72zM417 823q0 44 30.5 77.5t85.5 33.5q45 0 69.5 -28.5t24.5 -69.5q0 -46 -30.5 -80.5t-84.5 -34.5q-45 0 -70 30t-25 72z " />
<glyph unicode="&#xf8;" horiz-adv-x="1144" d="M50 -83q0 38 149 208q-100 127 -100 321q0 258 147.5 403t346.5 145q184 0 309 -118q100 112 100 136l91 -31q0 -32 -129 -179q81 -122 81 -298q0 -256 -147 -399.5t-346 -143.5q-163 0 -283 95q-131 -147 -131 -170zM270 486q0 -126 50 -228q166 173 468 493 q-84 117 -218 117q-142 0 -221 -113.5t-79 -268.5zM376 174q79 -87 198 -87q139 0 218.5 115.5t79.5 266.5q0 101 -35 191q-159 -167 -461 -486z" />
<glyph unicode="&#xf9;" horiz-adv-x="1097" d="M130 945l186 7q-12 -193 -12 -330q0 -315 40.5 -410.5t182.5 -95.5q160 0 264 80q0 556 -10 749l180 7q-8 -188 -8 -520q0 -213 22 -431l-155 -6q-14 56 -14 92h-10q-133 -112 -323 -112q-173 0 -251.5 83.5t-78.5 336.5q0 36 2 107t2 97q0 147 -17 346zM246 1410h216 q0 -11 90 -159.5t90 -164.5h-120q0 16 -138 164t-138 160z" />
<glyph unicode="&#xfa;" horiz-adv-x="1097" d="M130 945l186 7q-12 -193 -12 -330q0 -315 40.5 -410.5t182.5 -95.5q160 0 264 80q0 556 -10 749l180 7q-8 -188 -8 -520q0 -213 22 -431l-155 -6q-14 56 -14 92h-10q-133 -112 -323 -112q-173 0 -251.5 83.5t-78.5 336.5q0 36 2 107t2 97q0 147 -17 346zM478 1086 q0 16 90 164.5t90 159.5h216q0 -12 -138 -160t-138 -164h-120z" />
<glyph unicode="&#xfb;" horiz-adv-x="1097" d="M130 945l186 7q-12 -193 -12 -330q0 -315 40.5 -410.5t182.5 -95.5q160 0 264 80q0 556 -10 749l180 7q-8 -188 -8 -520q0 -213 22 -431l-155 -6q-14 56 -14 92h-10q-133 -112 -323 -112q-173 0 -251.5 83.5t-78.5 336.5q0 36 2 107t2 97q0 147 -17 346zM271 1086 q0 13 94.5 160.5t99.5 163.5h194q5 -16 99.5 -163.5t94.5 -160.5h-104q0 13 -187 208q-187 -195 -187 -208h-104z" />
<glyph unicode="&#xfc;" horiz-adv-x="1097" d="M130 945l186 7q-12 -193 -12 -330q0 -315 40.5 -410.5t182.5 -95.5q160 0 264 80q0 556 -10 749l180 7q-8 -188 -8 -520q0 -213 22 -431l-155 -6q-14 56 -14 92h-10q-133 -112 -323 -112q-173 0 -251.5 83.5t-78.5 336.5q0 36 2 107t2 97q0 147 -17 346zM261 1238 q0 44 30.5 77.5t85.5 33.5q45 0 69.5 -28.5t24.5 -69.5q0 -46 -30.5 -80.5t-84.5 -34.5q-45 0 -70 30t-25 72zM639 1238q0 44 30.5 77.5t85.5 33.5q45 0 69.5 -28.5t24.5 -69.5q0 -46 -30.5 -80.5t-84.5 -34.5q-45 0 -70 30t-25 72z" />
<glyph unicode="&#xfd;" horiz-adv-x="952" d="M44 950h207q0 -27 126 -364t126 -415h10q0 65 106.5 377t106.5 402h182q0 -64 -151 -408q-173 -393 -215 -554q-69 -261 -128 -332q-80 -98 -285 -98l-8 140q125 0 208 85t83 213q0 111 -184 528t-184 426zM441 1086q0 16 90 164.5t90 159.5h216q0 -12 -138 -160 t-138 -164h-120z" />
<glyph unicode="&#xfe;" horiz-adv-x="1142" d="M122 -457q17 253 26 552t9 651q0 363 -33 661l198 10q-5 -87 -7.5 -222t-2.5 -323h8q107 113 329 113q89 0 161.5 -35t124.5 -97.5t80 -149t28 -189.5q0 -114 -34 -213t-96 -171.5t-148.5 -114.5t-190.5 -42q-184 0 -256 66h-10q0 -279 6 -496h-192zM308 740 q0 -179 1 -322.5t3 -254.5q73 -68 202 -68q78 0 142.5 30t111 83.5t72 125.5t25.5 156q0 77 -21.5 143t-61 114t-94.5 75t-122 27q-180 0 -258 -109z" />
<glyph unicode="&#xff;" horiz-adv-x="952" d="M44 950h207q0 -27 126 -364t126 -415h10q0 65 106.5 377t106.5 402h182q0 -64 -151 -408q-173 -393 -215 -554q-69 -261 -128 -332q-80 -98 -285 -98l-8 140q125 0 208 85t83 213q0 111 -184 528t-184 426zM219 1238q0 44 30.5 77.5t85.5 33.5q45 0 69.5 -28.5 t24.5 -69.5q0 -46 -30.5 -80.5t-84.5 -34.5q-45 0 -70 30t-25 72zM597 1238q0 44 30.5 77.5t85.5 33.5q45 0 69.5 -28.5t24.5 -69.5q0 -46 -30.5 -80.5t-84.5 -34.5q-45 0 -70 30t-25 72z" />
<glyph unicode="&#x100;" horiz-adv-x="1262" d="M11 0q0 37 258 639.5t258 662.5h232q0 -59 246 -653t246 -649h-211q0 67 -126 421h-577q-124 -349 -124 -421h-202zM379 552h489q-235 587 -235 624h-11q0 -31 -243 -624zM407 1476l12 124h474l-12 -124h-474z" />
<glyph unicode="&#x101;" horiz-adv-x="1005" d="M88 235q0 154 130 247.5t483 98.5q3 24 3 55q0 123 -65.5 164t-198.5 41q-157 0 -309 -39l17 138q150 43 345 43q178 0 275 -73.5t97 -250.5q0 -47 -4.5 -170.5t-4.5 -164.5q0 -182 27 -324l-157 -6q-12 49 -12 93h-10q-123 -112 -335 -112q-115 0 -198 67.5t-83 192.5z M251 248q0 -136 192 -136q165 0 263 82q-5 152 -5 273q-188 0 -286 -28q-164 -50 -164 -191zM281 1186l11 124h435l-12 -124h-434z" />
<glyph unicode="&#x102;" horiz-adv-x="1262" d="M11 0q0 37 258 639.5t258 662.5h232q0 -59 246 -653t246 -649h-211q0 67 -126 421h-577q-124 -349 -124 -421h-202zM379 552h489q-235 587 -235 624h-11q0 -31 -243 -624zM332 1640l100 50q72 -144 206 -144q124 0 208 144l100 -50q-95 -218 -306 -218q-221 0 -308 218z " />
<glyph unicode="&#x103;" horiz-adv-x="1005" d="M88 235q0 154 130 247.5t483 98.5q3 24 3 55q0 123 -65.5 164t-198.5 41q-157 0 -309 -39l17 138q150 43 345 43q178 0 275 -73.5t97 -250.5q0 -47 -4.5 -170.5t-4.5 -164.5q0 -182 27 -324l-157 -6q-12 49 -12 93h-10q-123 -112 -335 -112q-115 0 -198 67.5t-83 192.5z M251 248q0 -136 192 -136q165 0 263 82q-5 152 -5 273q-188 0 -286 -28q-164 -50 -164 -191zM206 1340l100 50q72 -154 206 -154q124 0 208 154l100 -50q-95 -228 -306 -228q-221 0 -308 228z" />
<glyph unicode="&#x104;" horiz-adv-x="1262" d="M11 0q0 37 258 639.5t258 662.5h232q0 -59 246 -653t246 -649q-247 -82 -247 -234q0 -116 102 -116q40 0 86 16l28 -137q-53 -15 -136 -15q-98 0 -158 46.5t-60 169.5q0 150 174 270q0 67 -126 421h-577q-124 -349 -124 -421h-202zM379 552h489q-235 587 -235 624h-11 q0 -31 -243 -624z" />
<glyph unicode="&#x105;" horiz-adv-x="1005" d="M88 225q0 178 142.5 265.5t470.5 90.5q3 24 3 45q0 136 -64.5 175.5t-233.5 39.5q-123 0 -275 -39l17 138q150 43 334 43q183 0 283 -71t100 -253q0 -47 -4.5 -170.5t-4.5 -164.5q0 -182 27 -324q-193 -125 -193 -234q0 -116 102 -116q40 0 86 16l28 -137 q-53 -15 -136 -15q-91 0 -154.5 59t-63.5 157q0 144 174 268q-12 45 -12 89h-10q-123 -112 -335 -112q-113 0 -197 68.5t-84 181.5zM251 248q0 -136 192 -136q165 0 263 82q-5 152 -5 273q-188 0 -284 -28q-166 -50 -166 -191z" />
<glyph unicode="&#x106;" horiz-adv-x="1125" d="M99 622q0 285 193 491.5t519 206.5q90 0 190 -27l-28 -159q-115 36 -205 36q-242 0 -367 -150t-125 -367q0 -221 144 -379t398 -158q97 0 252 43l-13 -149q-123 -37 -268 -37q-344 0 -517 188.5t-173 460.5zM617 1416q0 16 90 139.5t90 134.5h216q0 -12 -133 -135 t-143 -139h-120z" />
<glyph unicode="&#x107;" horiz-adv-x="925" d="M99 461q0 214 144 368t381 154q119 0 194 -24l-27 -157q-105 39 -213 39q-142 0 -226 -99t-84 -248q0 -162 100 -270t283 -108q75 0 208 37l-10 -134q-81 -46 -217 -46q-259 0 -396 143t-137 345zM473 1086q0 16 90 164.5t90 159.5h216q0 -12 -138 -160t-138 -164h-120z " />
<glyph unicode="&#x108;" horiz-adv-x="1125" d="M99 622q0 285 193 491.5t519 206.5q90 0 190 -27l-28 -159q-115 36 -205 36q-242 0 -367 -150t-125 -367q0 -221 144 -379t398 -158q97 0 252 43l-13 -149q-123 -37 -268 -37q-344 0 -517 188.5t-173 460.5zM441 1416q0 13 94.5 135.5t99.5 138.5h194q5 -16 99.5 -138.5 t94.5 -135.5h-114q-10 13 -177 158q-167 -145 -177 -158h-114z" />
<glyph unicode="&#x109;" horiz-adv-x="925" d="M99 461q0 214 144 368t381 154q119 0 194 -24l-27 -157q-105 39 -213 39q-142 0 -226 -99t-84 -248q0 -162 100 -270t283 -108q75 0 208 37l-10 -134q-81 -46 -217 -46q-259 0 -396 143t-137 345zM252 1086q0 13 94.5 160.5t99.5 163.5h194q5 -16 99.5 -163.5 t94.5 -160.5h-104q0 13 -187 208q-187 -195 -187 -208h-104z" />
<glyph unicode="&#x10a;" horiz-adv-x="1125" d="M99 622q0 285 193 491.5t519 206.5q90 0 190 -27l-28 -159q-115 36 -205 36q-242 0 -367 -150t-125 -367q0 -221 144 -379t398 -158q97 0 252 43l-13 -149q-123 -37 -268 -37q-344 0 -517 188.5t-173 460.5zM630 1550q0 50 34 87t94 37q49 0 77.5 -32.5t28.5 -76.5 q0 -51 -33 -88.5t-93 -37.5q-51 0 -79.5 32.5t-28.5 78.5z" />
<glyph unicode="&#x10b;" horiz-adv-x="925" d="M99 461q0 214 144 368t381 154q119 0 194 -24l-27 -157q-105 39 -213 39q-142 0 -226 -99t-84 -248q0 -162 100 -270t283 -108q75 0 208 37l-10 -134q-81 -46 -217 -46q-259 0 -396 143t-137 345zM476 1235q0 50 34 87t94 37q49 0 77.5 -32.5t28.5 -76.5q0 -51 -33 -88.5 t-93 -37.5q-51 0 -79.5 32.5t-28.5 78.5z" />
<glyph unicode="&#x10c;" horiz-adv-x="1125" d="M99 622q0 285 193 491.5t519 206.5q90 0 190 -27l-28 -159q-115 36 -205 36q-242 0 -367 -150t-125 -367q0 -221 144 -379t398 -158q97 0 252 43l-13 -149q-123 -37 -268 -37q-344 0 -517 188.5t-173 460.5zM491 1690h114q10 -13 177 -158q167 145 177 158h114 q0 -13 -94.5 -135.5t-99.5 -138.5h-194q-5 16 -99.5 138.5t-94.5 135.5z" />
<glyph unicode="&#x10d;" horiz-adv-x="925" d="M99 461q0 214 144 368t381 154q119 0 194 -24l-27 -157q-105 39 -213 39q-142 0 -226 -99t-84 -248q0 -162 100 -270t283 -108q75 0 208 37l-10 -134q-81 -46 -217 -46q-259 0 -396 143t-137 345zM291 1410h104q0 -13 187 -208q187 195 187 208h104q0 -13 -94.5 -160.5 t-99.5 -163.5h-194q-5 16 -99.5 163.5t-94.5 160.5z" />
<glyph unicode="&#x10e;" horiz-adv-x="1316" d="M188 0q15 310 15 684q0 352 -15 618h110q40 0 122 3t108 3q353 0 521 -173.5t168 -436.5q0 -284 -181.5 -498t-500.5 -214q-104 0 -347 14zM349 1163q8 -233 8 -479q0 -270 11 -548q80 -16 154 -16q264 0 392.5 156.5t128.5 376.5q0 222 -141.5 371t-437.5 149 q-42 0 -115 -10zM360 1690h114q10 -13 177 -158q167 145 177 158h114q0 -13 -94.5 -135.5t-99.5 -138.5h-194q-5 16 -99.5 138.5t-94.5 135.5z" />
<glyph unicode="&#x10f;" horiz-adv-x="1278" d="M99 444q0 221 125 381t352 160q162 0 232 -66h8q0 248 -14 487l190 7q-19 -254 -19 -665q0 -418 21 -747l-149 -5q-8 43 -8 91h-11q-105 -114 -312 -114q-190 0 -302.5 138t-112.5 333zM277 469q0 -152 79.5 -256t220.5 -104q177 0 256 89q0 311 -17 599q-81 67 -202 67 q-169 0 -253 -112.5t-84 -282.5zM1058 1197q0 54 30.5 93t90.5 39q65 0 99 -43t34 -112q0 -85 -58.5 -175.5t-122.5 -130.5l-43 44q82 102 82 177q-112 30 -112 108z" />
<glyph unicode="&#x110;" horiz-adv-x="1316" d="M43 568l9 167q120 -4 151 -4q0 347 -15 571h110q41 0 126 3t124 3q336 0 502.5 -175t166.5 -435q0 -284 -172 -487q-191 -225 -510 -225q-104 0 -347 14q15 249 15 585q-33 0 -160 -17zM349 1163q10 -160 8 -432q56 0 391 33l-6 -161q-346 0 -385 -8q0 -276 11 -459 q80 -16 157 -16q261 0 399 167q119 143 119 366q0 218 -138 369t-417 151q-62 0 -139 -10z" />
<glyph unicode="&#x111;" horiz-adv-x="1136" d="M99 429q0 211 123.5 368.5t343.5 157.5q172 0 242 -66h8q0 114 -2 207h-268l6 102h259q-3 100 -7 205l188 10q-8 -100 -13 -215h151l-6 -102h-148q-3 -163 -3 -348q0 -418 21 -747l-149 -5q-8 43 -8 91h-11q-105 -114 -314 -114q-189 0 -301 134.5t-112 321.5zM277 454 q0 -143 78 -244t219 -101q180 0 259 89q0 311 -17 569q-81 67 -211 67q-165 0 -246.5 -111t-81.5 -269z" />
<glyph unicode="&#x112;" horiz-adv-x="1066" d="M188 0q14 310 14 684q0 352 -14 618h756l-8 -149q-275 12 -583 12q6 -155 6 -419q266 0 474 12v-149q-222 9 -474 9q0 -257 9 -482q332 0 632 15l-6 -151h-806zM341 1476l12 124h474l-12 -124h-474z" />
<glyph unicode="&#x113;" horiz-adv-x="1051" d="M99 461q0 218 124.5 375.5t334.5 157.5q193 0 293.5 -114t100.5 -293q0 -42 -4 -116l-687 -12q10 -146 113 -244.5t273 -98.5q152 0 285 37l-17 -141q-98 -39 -283 -39q-260 0 -396.5 142t-136.5 346zM267 574l518 11q0 281 -235 281q-240 0 -283 -292zM354 1186l11 124 h435l-12 -124h-434z" />
<glyph unicode="&#x114;" horiz-adv-x="1066" d="M188 0q14 310 14 684q0 352 -14 618h756l-8 -149q-275 12 -583 12q6 -155 6 -419q266 0 474 12v-149q-222 9 -474 9q0 -257 9 -482q332 0 632 15l-6 -151h-806zM285 1640l100 50q72 -144 206 -144q124 0 208 144l100 -50q-95 -218 -306 -218q-221 0 -308 218z" />
<glyph unicode="&#x115;" horiz-adv-x="1051" d="M99 461q0 218 124.5 375.5t334.5 157.5q193 0 293.5 -114t100.5 -293q0 -42 -4 -116l-687 -12q10 -146 113 -244.5t273 -98.5q152 0 285 37l-17 -141q-98 -39 -283 -39q-260 0 -396.5 142t-136.5 346zM267 574l518 11q0 281 -235 281q-240 0 -283 -292zM269 1340l100 50 q72 -154 206 -154q124 0 208 154l100 -50q-95 -228 -306 -228q-221 0 -308 228z" />
<glyph unicode="&#x116;" horiz-adv-x="1066" d="M188 0q14 310 14 684q0 352 -14 618h756l-8 -149q-275 12 -583 12q6 -155 6 -419q266 0 474 12v-149q-222 9 -474 9q0 -257 9 -482q332 0 632 15l-6 -151h-806zM472 1550q0 50 34 87t94 37q49 0 77.5 -32.5t28.5 -76.5q0 -51 -33 -88.5t-93 -37.5q-51 0 -79.5 32.5 t-28.5 78.5z" />
<glyph unicode="&#x117;" horiz-adv-x="1051" d="M99 461q0 218 124.5 375.5t334.5 157.5q193 0 293.5 -114t100.5 -293q0 -42 -4 -116l-687 -12q10 -146 113 -244.5t273 -98.5q152 0 285 37l-17 -141q-98 -39 -283 -39q-260 0 -396.5 142t-136.5 346zM267 574l518 11q0 281 -235 281q-240 0 -283 -292zM457 1235 q0 50 34 87t94 37q49 0 77.5 -32.5t28.5 -76.5q0 -51 -33 -88.5t-93 -37.5q-51 0 -79.5 32.5t-28.5 78.5z" />
<glyph unicode="&#x118;" horiz-adv-x="1066" d="M188 0q14 310 14 684q0 352 -14 618h754l-6 -149q-275 12 -583 12q6 -155 6 -419q266 0 479 12l-5 -149q-222 9 -474 9q0 -257 9 -482q332 0 632 15l-6 -151q-210 -115 -210 -239q0 -111 102 -111q40 0 86 16l28 -137q-53 -15 -136 -15q-98 0 -158 46.5t-60 144.5 q0 169 178 285v10h-636z" />
<glyph unicode="&#x119;" horiz-adv-x="1051" d="M99 461q0 215 122.5 374t336.5 159q194 0 294 -114t100 -293q0 -42 -4 -116l-681 -12q10 -142 109.5 -242.5t270.5 -100.5q152 0 285 37l-17 -131q-179 -137 -179 -256q0 -116 102 -116q40 0 86 16l28 -137q-53 -15 -136 -15q-91 0 -154.5 59t-63.5 157q0 141 154 241v10 q-68 -8 -124 -8q-258 0 -393.5 143t-135.5 345zM273 574l512 11q0 281 -235 281q-234 0 -277 -292z" />
<glyph unicode="&#x11a;" horiz-adv-x="1066" d="M188 0q14 310 14 684q0 352 -14 618h756l-8 -149q-275 12 -583 12q6 -155 6 -419q266 0 474 12v-149q-222 9 -474 9q0 -257 9 -482q332 0 632 15l-6 -151h-806zM306 1690h114q10 -13 177 -158q167 145 177 158h114q0 -13 -94.5 -135.5t-99.5 -138.5h-194 q-5 16 -99.5 138.5t-94.5 135.5z" />
<glyph unicode="&#x11b;" horiz-adv-x="1051" d="M99 461q0 218 124.5 375.5t334.5 157.5q193 0 293.5 -114t100.5 -293q0 -42 -4 -116l-687 -12q10 -146 113 -244.5t273 -98.5q152 0 285 37l-17 -141q-98 -39 -283 -39q-260 0 -396.5 142t-136.5 346zM267 574l518 11q0 281 -235 281q-240 0 -283 -292zM295 1410h104 q0 -13 187 -208q187 195 187 208h104q0 -13 -94.5 -160.5t-99.5 -163.5h-194q-5 16 -99.5 163.5t-94.5 160.5z" />
<glyph unicode="&#x11c;" horiz-adv-x="1271" d="M99 624q0 279 194 487.5t538 208.5q124 0 235 -29l-25 -166q-165 40 -266 40q-242 0 -370.5 -146.5t-128.5 -363.5q0 -218 147.5 -382t416.5 -164q49 0 147 15q-17 104 -17 242q0 116 -14 227h182q-8 -132 -8 -279q0 -63 8 -287q-164 -54 -331 -54q-351 0 -529.5 187.5 t-178.5 463.5zM466 1416q0 13 94.5 135.5t99.5 138.5h194q5 -16 99.5 -138.5t94.5 -135.5h-114q-10 13 -177 158q-167 -145 -177 -158h-114z" />
<glyph unicode="&#x11d;" horiz-adv-x="1105" d="M66 -219q0 112 50.5 180t125.5 84v9q-79 38 -79 146q0 98 100 172v8q-53 26 -101 88t-48 154q0 159 105 259t304 100q163 0 256 -59h11q32 169 168 169q74 0 114 -15l-16 -138q-186 0 -205 -60v-10q64 -78 64 -178q0 -156 -102.5 -257.5t-316.5 -101.5q-95 0 -151 20 q-49 -35 -49 -87q0 -64 58 -85q74 -28 309 -28q380 0 380 -252q0 -180 -148 -298t-383 -118q-241 0 -343.5 87.5t-102.5 210.5zM211 -159q0 -244 320 -244q167 0 264.5 65t97.5 169q0 94 -68.5 132.5t-257.5 38.5q-128 0 -234 12q-122 -59 -122 -173zM271 659 q0 -109 69.5 -166t178.5 -57q100 0 167.5 55.5t67.5 157.5q0 110 -69.5 168.5t-176.5 58.5q-101 0 -169 -56.5t-68 -160.5zM218 1086q0 13 94.5 160.5t99.5 163.5h194q5 -16 99.5 -163.5t94.5 -160.5h-104q0 13 -187 208q-187 -195 -187 -208h-104z" />
<glyph unicode="&#x11e;" horiz-adv-x="1271" d="M99 624q0 279 194 487.5t538 208.5q124 0 235 -29l-25 -166q-165 40 -266 40q-242 0 -370.5 -146.5t-128.5 -363.5q0 -218 147.5 -382t416.5 -164q49 0 147 15q-17 104 -17 242q0 116 -14 227h182q-8 -132 -8 -279q0 -63 8 -287q-164 -54 -331 -54q-351 0 -529.5 187.5 t-178.5 463.5zM443 1640l100 50q72 -144 206 -144q124 0 208 144l100 -50q-95 -218 -306 -218q-221 0 -308 218z" />
<glyph unicode="&#x11f;" horiz-adv-x="1105" d="M66 -219q0 112 50.5 180t125.5 84v9q-79 38 -79 146q0 98 100 172v8q-53 26 -101 88t-48 154q0 159 105 259t304 100q163 0 256 -59h11q32 169 168 169q74 0 114 -15l-16 -138q-186 0 -205 -60v-10q64 -78 64 -178q0 -156 -102.5 -257.5t-316.5 -101.5q-95 0 -151 20 q-49 -35 -49 -87q0 -64 58 -85q74 -28 309 -28q380 0 380 -252q0 -180 -148 -298t-383 -118q-241 0 -343.5 87.5t-102.5 210.5zM211 -159q0 -244 320 -244q167 0 264.5 65t97.5 169q0 94 -68.5 132.5t-257.5 38.5q-128 0 -234 12q-122 -59 -122 -173zM271 659 q0 -109 69.5 -166t178.5 -57q100 0 167.5 55.5t67.5 157.5q0 110 -69.5 168.5t-176.5 58.5q-101 0 -169 -56.5t-68 -160.5zM228 1340l100 50q72 -154 206 -154q124 0 208 154l100 -50q-95 -228 -306 -228q-221 0 -308 228z" />
<glyph unicode="&#x120;" horiz-adv-x="1271" d="M99 624q0 279 194 487.5t538 208.5q124 0 235 -29l-25 -166q-165 40 -266 40q-242 0 -370.5 -146.5t-128.5 -363.5q0 -218 147.5 -382t416.5 -164q49 0 147 15q-17 104 -17 242q0 116 -14 227h182q-8 -132 -8 -279q0 -63 8 -287q-164 -54 -331 -54q-351 0 -529.5 187.5 t-178.5 463.5zM637 1550q0 50 34 87t94 37q49 0 77.5 -32.5t28.5 -76.5q0 -51 -33 -88.5t-93 -37.5q-51 0 -79.5 32.5t-28.5 78.5z" />
<glyph unicode="&#x121;" horiz-adv-x="1105" d="M66 -219q0 112 50.5 180t125.5 84v9q-79 38 -79 146q0 98 100 172v8q-53 26 -101 88t-48 154q0 159 105 259t304 100q163 0 256 -59h11q32 169 168 169q74 0 114 -15l-16 -138q-186 0 -205 -60v-10q64 -78 64 -178q0 -156 -102.5 -257.5t-316.5 -101.5q-95 0 -151 20 q-49 -35 -49 -87q0 -64 58 -85q74 -28 309 -28q380 0 380 -252q0 -180 -148 -298t-383 -118q-241 0 -343.5 87.5t-102.5 210.5zM211 -159q0 -244 320 -244q167 0 264.5 65t97.5 169q0 94 -68.5 132.5t-257.5 38.5q-128 0 -234 12q-122 -59 -122 -173zM271 659 q0 -109 69.5 -166t178.5 -57q100 0 167.5 55.5t67.5 157.5q0 110 -69.5 168.5t-176.5 58.5q-101 0 -169 -56.5t-68 -160.5zM419 1235q0 50 34 87t94 37q49 0 77.5 -32.5t28.5 -76.5q0 -51 -33 -88.5t-93 -37.5q-51 0 -79.5 32.5t-28.5 78.5z" />
<glyph unicode="&#x122;" horiz-adv-x="1271" d="M99 624q0 279 194 487.5t538 208.5q124 0 235 -29l-25 -166q-165 40 -266 40q-242 0 -370.5 -146.5t-128.5 -363.5q0 -218 147.5 -382t416.5 -164q49 0 147 15q-17 104 -17 242q0 116 -14 227h182q-8 -132 -8 -279q0 -63 8 -287q-164 -54 -331 -54q-351 0 -529.5 187.5 t-178.5 463.5zM601 -227q0 49 27.5 84.5t82.5 35.5q59 0 89.5 -39t30.5 -102q0 -77 -53 -159.5t-111 -118.5l-39 40q74 93 74 161q-101 27 -101 98z" />
<glyph unicode="&#x123;" horiz-adv-x="1105" d="M66 -219q0 112 50.5 180t125.5 84v9q-79 38 -79 146q0 98 100 172v8q-53 26 -101 88t-48 154q0 159 105 259t304 100q163 0 256 -59h11q32 169 168 169q74 0 114 -15l-16 -138q-186 0 -205 -60v-10q64 -78 64 -178q0 -156 -102.5 -257.5t-316.5 -101.5q-95 0 -151 20 q-49 -35 -49 -87q0 -64 58 -85q74 -28 309 -28q380 0 380 -252q0 -180 -148 -298t-383 -118q-241 0 -343.5 87.5t-102.5 210.5zM211 -159q0 -244 320 -244q167 0 264.5 65t97.5 169q0 94 -68.5 132.5t-257.5 38.5q-128 0 -234 12q-122 -59 -122 -173zM271 659 q0 -109 69.5 -166t178.5 -57q100 0 167.5 55.5t67.5 157.5q0 110 -69.5 168.5t-176.5 58.5q-101 0 -169 -56.5t-68 -160.5zM423 1275q0 77 53 159.5t111 118.5l39 -40q-64 -93 -64 -151q101 -29 101 -108q0 -59 -32.5 -94.5t-87.5 -35.5q-61 0 -90.5 38.5t-29.5 112.5z" />
<glyph unicode="&#x124;" horiz-adv-x="1335" d="M188 0q14 365 14 684q0 334 -14 618h190q-12 -286 -12 -556h603q0 217 -12 556h190q-15 -278 -15 -618q0 -373 15 -684h-190q10 346 10 620h-599q0 -222 10 -620h-190zM382 1416q0 13 94.5 135.5t99.5 138.5h194q5 -16 99.5 -138.5t94.5 -135.5h-114q-10 13 -177 158 q-167 -145 -177 -158h-114z" />
<glyph unicode="&#x125;" horiz-adv-x="1109" d="M122 1407l190 10q-8 -305 -8 -566h6q150 132 329 132q160 0 250 -74.5t90 -261.5q0 -19 -2 -74.5t-2 -97.5q0 -144 4 -475h-182q22 263 22 566q0 162 -60.5 218.5t-167.5 56.5q-150 0 -281 -103q0 -546 8 -738h-176q9 264 9 746q0 422 -29 661zM-73 1416q0 13 94.5 135.5 t99.5 138.5h194q5 -16 99.5 -138.5t94.5 -135.5h-114q-10 13 -177 158q-167 -145 -177 -158h-114z" />
<glyph unicode="&#x126;" horiz-adv-x="1335" d="M78 936l10 108h109q-3 134 -9 258h190q-6 -131 -9 -258h596q-3 118 -8 258h190q-7 -123 -11 -258h121l-10 -108h-113q-2 -122 -2 -252q0 -373 15 -684h-190q10 346 10 620h-599q0 -222 10 -620h-190q14 365 14 684q0 130 -2 252h-122zM366 746h603q0 85 -2 190h-600 q-1 -96 -1 -190z" />
<glyph unicode="&#x127;" horiz-adv-x="1109" d="M0 1096l6 102h130q-7 102 -16 209l190 10q-7 -97 -7 -219h331l-6 -102h-327q-2 -165 0 -275h6q157 132 317 132q169 0 261 -72.5t92 -257.5q0 -19 -2 -62.5t-2 -127.5q0 -102 4 -433h-177q22 263 22 544q0 154 -62.5 210.5t-178.5 56.5q-142 0 -273 -103q0 -516 8 -708 h-176q9 264 9 746q0 125 -9 350h-140z" />
<glyph unicode="&#x128;" horiz-adv-x="566" d="M188 0q15 324 15 684q0 354 -15 618h190q-14 -273 -14 -618q0 -362 14 -684h-190zM-88 1469q110 185 250 185q51 0 128.5 -24t125.5 -24q88 0 172 84l62 -50q-110 -185 -250 -185q-51 0 -128.5 24t-125.5 24q-88 0 -172 -84z" />
<glyph unicode="&#x129;" horiz-adv-x="446" d="M111 942l200 27q-12 -209 -12 -512q0 -240 14 -457h-181q14 200 14 457q0 289 -35 485zM-147 1123q110 221 250 221q51 0 128.5 -24t125.5 -24q88 0 172 120l62 -50q-110 -221 -250 -221q-51 0 -128.5 24t-125.5 24q-88 0 -172 -120z" />
<glyph unicode="&#x12a;" horiz-adv-x="566" d="M188 0q15 324 15 684q0 354 -15 618h190q-14 -273 -14 -618q0 -362 14 -684h-190zM43 1476l12 124h474l-12 -124h-474z" />
<glyph unicode="&#x12b;" horiz-adv-x="446" d="M111 942l200 27q-12 -209 -12 -512q0 -240 14 -457h-181q14 200 14 457q0 289 -35 485zM-2 1186l11 124h435l-12 -124h-434z" />
<glyph unicode="&#x12c;" horiz-adv-x="566" d="M188 0q15 324 15 684q0 354 -15 618h190q-14 -273 -14 -618q0 -362 14 -684h-190zM-23 1640l100 50q72 -144 206 -144q124 0 208 144l100 -50q-95 -218 -306 -218q-221 0 -308 218z" />
<glyph unicode="&#x12d;" horiz-adv-x="446" d="M111 942l200 27q-12 -209 -12 -512q0 -240 14 -457h-181q14 200 14 457q0 289 -35 485zM-82 1340l100 50q72 -154 206 -154q124 0 208 154l100 -50q-95 -228 -306 -228q-221 0 -308 228z" />
<glyph unicode="&#x12e;" horiz-adv-x="566" d="M23 -246q0 135 165 246q15 324 15 684q0 354 -15 618h190q-14 -273 -14 -618q0 -362 14 -684q-222 -76 -222 -204q0 -146 117 -146q40 0 86 16l28 -137q-53 -15 -126 -15q-107 0 -172.5 54.5t-65.5 185.5z" />
<glyph unicode="&#x12f;" horiz-adv-x="446" d="M-19 -270q0 134 150 270q14 200 14 457q0 289 -35 485l200 27q-12 -209 -12 -512q0 -240 14 -457q-193 -115 -193 -244q0 -106 102 -106q40 0 86 16l28 -137q-53 -15 -136 -15q-91 0 -153 57q-65 61 -65 159zM120 1235q0 50 34 87t94 37q106 0 106 -109q0 -51 -33 -88.5 t-93 -37.5q-51 0 -79.5 32.5t-28.5 78.5z" />
<glyph unicode="&#x130;" horiz-adv-x="566" d="M188 0q15 324 15 684q0 354 -15 618h190q-14 -273 -14 -618q0 -362 14 -684h-190zM179 1550q0 50 34 87t94 37q49 0 77.5 -32.5t28.5 -76.5q0 -51 -33 -88.5t-93 -37.5q-51 0 -79.5 32.5t-28.5 78.5z" />
<glyph unicode="&#x131;" horiz-adv-x="446" d="M111 942l200 27q-12 -209 -12 -512q0 -240 14 -457h-181q14 200 14 457q0 289 -35 485z" />
<glyph unicode="&#x132;" horiz-adv-x="1427" d="M188 0q15 324 15 684q0 354 -15 618h190q-14 -273 -14 -618q0 -362 14 -684h-190zM598 -6l15 146q71 -33 148 -33q86 0 150.5 24.5t103 76.5t55 128t16.5 199q0 454 -15 767h190q-7 -152 -10.5 -337t-3.5 -407q0 -161 -27 -266t-84.5 -177t-147.5 -107t-216 -35 q-97 0 -174 21z" />
<glyph unicode="&#x133;" horiz-adv-x="892" d="M111 942l200 27q-12 -209 -12 -512q0 -240 14 -457h-181q14 200 14 457q0 289 -35 485zM121 1235q0 50 34 87t94 37q49 0 77.5 -32.5t28.5 -76.5q0 -51 -33 -88.5t-93 -37.5q-51 0 -79.5 32.5t-28.5 78.5zM456 -372q89 75 110 160q31 122 31 520q0 427 -40 638l201 25 q-17 -310 -17 -622q0 -83 5.5 -219.5t5.5 -185.5q0 -323 -246 -392zM567 1235q0 50 34 87t94 37q49 0 77.5 -32.5t28.5 -76.5q0 -51 -33 -88.5t-93 -37.5q-51 0 -79.5 32.5t-28.5 78.5z" />
<glyph unicode="&#x134;" horiz-adv-x="851" d="M22 -6l15 146q71 -33 148 -33q86 0 150.5 24.5t103 76.5t55 128t16.5 199q0 454 -15 767h190q-7 -152 -10.5 -337t-3.5 -407q0 -161 -27 -266t-84.5 -177t-147.5 -107t-216 -35q-97 0 -174 21zM291 1416q0 13 94.5 135.5t99.5 138.5h194q5 -16 99.5 -138.5t94.5 -135.5 h-114q-10 13 -177 158q-167 -145 -177 -158h-114z" />
<glyph unicode="&#x135;" horiz-adv-x="446" d="M-72 1086q0 13 94.5 160.5t99.5 163.5h194q5 -16 99.5 -163.5t94.5 -160.5h-104q0 13 -187 208q-187 -195 -187 -208h-104zM10 -372q89 75 110 160q31 122 31 520q0 427 -40 638l201 25q-17 -310 -17 -622q0 -83 5.5 -219.5t5.5 -185.5q0 -323 -246 -392z" />
<glyph unicode="&#x136;" horiz-adv-x="1212" d="M188 0q15 310 15 684q0 352 -15 618h188q-10 -266 -10 -540h23q55 0 274.5 255t219.5 285h208q0 -30 -213.5 -247.5t-317.5 -292.5v-10q115 -44 383 -397q247 -325 247 -355h-219q0 11 -114 174q-132 189 -241 312q-148 167 -219 167h-31q0 -234 10 -653h-188zM547 -227 q0 49 27.5 84.5t82.5 35.5q59 0 89.5 -39t30.5 -102q0 -77 -53 -159.5t-111 -118.5l-39 40q74 93 74 161q-101 27 -101 98z" />
<glyph unicode="&#x137;" horiz-adv-x="1000" d="M122 1407l192 10q-11 -216 -11 -839h7q33 0 207.5 168.5t174.5 203.5h221q0 -32 -157 -166q-147 -125 -269 -206v-8q124 -94 319 -322q183 -215 183 -248h-235q0 35 -194 267q-199 239 -250 239h-7q0 -214 11 -506h-176q13 366 13 746q0 387 -29 661zM400 -227 q0 49 27.5 84.5t82.5 35.5q59 0 89.5 -39t30.5 -102q0 -77 -53 -159.5t-111 -118.5l-39 40q74 93 74 161q-101 27 -101 98z" />
<glyph unicode="&#x138;" horiz-adv-x="1000" d="M111 951l192 10q-11 -216 -11 -383h7q33 0 207.5 168.5t174.5 203.5h221q0 -32 -157 -166q-147 -125 -269 -206v-8q124 -94 319 -322q183 -215 183 -248h-235q0 35 -194 267q-199 239 -250 239h-7q0 -214 11 -506h-176q13 246 13 528q0 174 -29 423z" />
<glyph unicode="&#x139;" horiz-adv-x="1003" d="M188 0q12 247 12 684q0 376 -12 618h186q-12 -202 -12 -618q0 -342 -11 -548q300 0 630 11l-6 -147h-787zM197 1416q0 16 90 139.5t90 134.5h216q0 -12 -133 -135t-143 -139h-120z" />
<glyph unicode="&#x13a;" horiz-adv-x="469" d="M122 1407l203 10q-19 -272 -19 -671q0 -411 19 -746h-192q18 330 18 746q0 404 -29 661zM124 1516q0 16 90 139.5t90 134.5h216q0 -12 -133 -135t-143 -139h-120z" />
<glyph unicode="&#x13b;" horiz-adv-x="1003" d="M188 0q12 247 12 684q0 376 -12 618h186q-12 -202 -12 -618q0 -342 -11 -548q300 0 630 11l-6 -147h-787zM462 -227q0 49 27.5 84.5t82.5 35.5q59 0 89.5 -39t30.5 -102q0 -77 -53 -159.5t-111 -118.5l-39 40q74 93 74 161q-101 27 -101 98z" />
<glyph unicode="&#x13c;" horiz-adv-x="496" d="M138 1407l203 10q-19 -272 -19 -671q0 -411 19 -746h-192q18 330 18 746q0 404 -29 661zM122 -227q0 49 27.5 84.5t82.5 35.5q59 0 89.5 -39t30.5 -102q0 -77 -53 -159.5t-111 -118.5l-39 40q74 93 74 161q-101 27 -101 98z" />
<glyph unicode="&#x13d;" horiz-adv-x="1003" d="M188 0q12 247 12 684q0 376 -12 618h186q-12 -202 -12 -618q0 -342 -11 -548q300 0 630 11l-6 -147h-787zM754 1197q0 54 30.5 93t90.5 39q65 0 99 -43t34 -112q0 -85 -58.5 -175.5t-122.5 -130.5l-43 44q82 102 82 177q-112 30 -112 108z" />
<glyph unicode="&#x13e;" horiz-adv-x="616" d="M122 1407l203 10q-19 -272 -19 -671q0 -411 19 -746h-192q18 330 18 746q0 404 -29 661zM396 1197q0 54 30.5 93t90.5 39q65 0 99 -43t34 -112q0 -85 -58.5 -175.5t-122.5 -130.5l-43 44q82 102 82 177q-112 30 -112 108z" />
<glyph unicode="&#x13f;" horiz-adv-x="1003" d="M188 0q12 247 12 684q0 376 -12 618h186q-12 -202 -12 -618q0 -342 -11 -548q300 0 630 11l-6 -147h-787zM735 696q0 50 34 87t94 37q49 0 77.5 -32.5t28.5 -76.5q0 -51 -33 -88.5t-93 -37.5q-51 0 -79.5 32.5t-28.5 78.5z" />
<glyph unicode="&#x140;" horiz-adv-x="682" d="M122 1407l203 10q-19 -272 -19 -671q0 -411 19 -746h-192q18 330 18 746q0 404 -29 661zM448 595q0 50 34 87t94 37q49 0 77.5 -32.5t28.5 -76.5q0 -51 -33 -88.5t-93 -37.5q-51 0 -79.5 32.5t-28.5 78.5z" />
<glyph unicode="&#x141;" horiz-adv-x="1003" d="M-24 521l224 142q0 397 -12 639h186q-11 -178 -12 -535l396 278l93 -116l-489 -305q-1 -304 -11 -488q300 0 630 11l-6 -147h-787q9 195 11 519l-151 -106z" />
<glyph unicode="&#x142;" horiz-adv-x="580" d="M-44 508l254 201q0 494 -31 698l202 10q-7 -139 -18 -580l178 159l105 -103l-281 -201q0 -313 16 -692h-192q7 139 19 568l-172 -155z" />
<glyph unicode="&#x143;" horiz-adv-x="1380" d="M188 0q17 325 17 684q0 353 -17 618h192q0 -28 302 -456q316 -450 360 -586h10q-17 244 -17 414q0 370 -14 628h171q-17 -265 -17 -618q0 -359 17 -684h-140q0 17 -328 479q-343 485 -391 612h-10q18 -241 18 -413q0 -336 15 -678h-168zM615 1416q0 16 90 139.5t90 134.5 h216q0 -12 -133 -135t-143 -139h-120z" />
<glyph unicode="&#x144;" horiz-adv-x="1109" d="M111 946l176 25l19 -122h8q148 134 317 134q166 0 257 -73.5t91 -261.5q0 -19 -2 -75t-2 -75q0 -167 4 -498h-182q22 263 22 574q0 154 -62.5 210.5t-178.5 56.5q-142 0 -262 -103q0 -341 4 -738h-182q17 340 17 492q0 234 -44 454zM520 1086q0 16 90 164.5t90 159.5h216 q0 -12 -138 -160t-138 -164h-120z" />
<glyph unicode="&#x145;" horiz-adv-x="1380" d="M188 0q17 325 17 684q0 353 -17 618h192q0 -28 302 -456q316 -450 360 -586h10q-17 244 -17 414q0 370 -14 628h171q-17 -265 -17 -618q0 -359 17 -684h-140q0 17 -328 479q-343 485 -391 612h-10q18 -241 18 -413q0 -336 15 -678h-168zM569 -227q0 49 27.5 84.5 t82.5 35.5q59 0 89.5 -39t30.5 -102q0 -77 -53 -159.5t-111 -118.5l-39 40q74 93 74 161q-101 27 -101 98z" />
<glyph unicode="&#x146;" horiz-adv-x="1109" d="M111 946l176 25l19 -122h8q148 134 317 134q166 0 257 -73.5t91 -261.5q0 -19 -2 -75t-2 -75q0 -167 4 -498h-182q22 263 22 574q0 154 -62.5 210.5t-178.5 56.5q-142 0 -262 -103q0 -341 4 -738h-182q17 340 17 492q0 234 -44 454zM442 -227q0 49 27.5 84.5t82.5 35.5 q59 0 89.5 -39t30.5 -102q0 -77 -53 -159.5t-111 -118.5l-39 40q74 93 74 161q-101 27 -101 98z" />
<glyph unicode="&#x147;" horiz-adv-x="1380" d="M188 0q17 325 17 684q0 353 -17 618h192q0 -28 302 -456q316 -450 360 -586h10q-17 244 -17 414q0 370 -14 628h171q-17 -265 -17 -618q0 -359 17 -684h-140q0 17 -328 479q-343 485 -391 612h-10q18 -241 18 -413q0 -336 15 -678h-168zM407 1690h114q10 -13 177 -158 q167 145 177 158h114q0 -13 -94.5 -135.5t-99.5 -138.5h-194q-5 16 -99.5 138.5t-94.5 135.5z" />
<glyph unicode="&#x148;" horiz-adv-x="1109" d="M111 946l176 25l19 -122h8q148 134 317 134q166 0 257 -73.5t91 -261.5q0 -19 -2 -75t-2 -75q0 -167 4 -498h-182q22 263 22 574q0 154 -62.5 210.5t-178.5 56.5q-142 0 -262 -103q0 -341 4 -738h-182q17 340 17 492q0 234 -44 454zM321 1410h104q0 -13 187 -208 q187 195 187 208h104q0 -13 -94.5 -160.5t-99.5 -163.5h-194q-5 16 -99.5 163.5t-94.5 160.5z" />
<glyph unicode="&#x149;" horiz-adv-x="1291" d="M293 946l176 25l19 -122h8q148 134 317 134q166 0 257 -73.5t91 -261.5q0 -19 -2 -75t-2 -75q0 -167 4 -498h-182q22 263 22 574q0 154 -62.5 210.5t-178.5 56.5q-142 0 -262 -103q0 -341 4 -738h-182q17 340 17 492q0 234 -44 454zM-8 851q152 170 152 314 q-86 34 -86 126q0 58 36 101.5t107 43.5q58 0 94.5 -47t36.5 -114q0 -133 -69 -249.5t-211 -240.5zM201 1159z" />
<glyph unicode="&#x14a;" horiz-adv-x="1380" d="M188 0q17 325 17 684q0 353 -17 618h192q0 -28 302 -456q316 -450 360 -586h10q-17 244 -17 414q0 370 -14 628h171q-14 -265 -14 -618q0 -287 7.5 -438t7.5 -302q0 -159 -87 -256q-134 -130 -356 -130l-8 140q151 0 224.5 63.5t74.5 234.5v37q-67 93 -317 446 q-343 485 -391 612h-10q18 -241 18 -413q0 -336 15 -678h-168z" />
<glyph unicode="&#x14b;" horiz-adv-x="1115" d="M111 946l176 25l19 -122h8q149 134 312 134q169 0 261 -72.5t92 -257.5q0 -59 -2 -127t-2 -177q0 -145 5 -240t5 -165q0 -159 -87 -256q-134 -130 -356 -130l-8 140q151 0 222 63.5t72 234.5q-4 156 -4 578q0 154 -63 210.5t-178 56.5q-143 0 -267 -103q0 -429 4 -738 h-182q17 340 17 492q0 234 -44 454z" />
<glyph unicode="&#x14c;" horiz-adv-x="1421" d="M99 618q0 327 189 518.5t437 191.5q238 0 417.5 -177.5t179.5 -479.5q0 -323 -189 -516.5t-437 -193.5q-238 0 -417.5 177.5t-179.5 479.5zM276 642q0 -259 136.5 -400.5t312.5 -141.5q164 0 291.5 151t127.5 397q0 258 -135.5 399.5t-312.5 141.5q-164 0 -292 -149 t-128 -398zM491 1476l12 124h474l-12 -124h-474z" />
<glyph unicode="&#x14d;" horiz-adv-x="1144" d="M99 446q0 258 147.5 403t346.5 145q186 0 319 -128.5t133 -361.5q0 -256 -147 -399.5t-346 -143.5q-186 0 -319.5 127t-133.5 358zM271 486q0 -157 78.5 -278t224.5 -121q144 0 221 115.5t77 266.5q0 156 -78.5 277.5t-223.5 121.5q-144 0 -221.5 -115t-77.5 -267z M378 1186l11 124h435l-12 -124h-434z" />
<glyph unicode="&#x14e;" horiz-adv-x="1421" d="M99 618q0 327 189 518.5t437 191.5q238 0 417.5 -177.5t179.5 -479.5q0 -323 -189 -516.5t-437 -193.5q-238 0 -417.5 177.5t-179.5 479.5zM276 642q0 -259 136.5 -400.5t312.5 -141.5q164 0 291.5 151t127.5 397q0 258 -135.5 399.5t-312.5 141.5q-164 0 -292 -149 t-128 -398zM416 1640l100 50q72 -144 206 -144q124 0 208 144l100 -50q-95 -218 -306 -218q-221 0 -308 218z" />
<glyph unicode="&#x14f;" horiz-adv-x="1144" d="M99 446q0 258 147.5 403t346.5 145q186 0 319 -128.5t133 -361.5q0 -256 -147 -399.5t-346 -143.5q-186 0 -319.5 127t-133.5 358zM271 486q0 -157 78.5 -278t224.5 -121q144 0 221 115.5t77 266.5q0 156 -78.5 277.5t-223.5 121.5q-144 0 -221.5 -115t-77.5 -267z M284 1340l100 50q72 -154 206 -154q124 0 208 154l100 -50q-95 -228 -306 -228q-221 0 -308 228z" />
<glyph unicode="&#x150;" horiz-adv-x="1421" d="M99 618q0 327 189 518.5t437 191.5q238 0 417.5 -177.5t179.5 -479.5q0 -323 -189 -516.5t-437 -193.5q-238 0 -417.5 177.5t-179.5 479.5zM276 642q0 -259 136.5 -400.5t312.5 -141.5q164 0 291.5 151t127.5 397q0 258 -135.5 399.5t-312.5 141.5q-164 0 -292 -149 t-128 -398zM481 1416q0 16 35 134.5t35 139.5h198q0 -22 -83.5 -140t-90.5 -134h-94zM841 1416q7 16 38.5 134.5t31.5 139.5h198q0 -22 -83.5 -140t-90.5 -134h-94z" />
<glyph unicode="&#x151;" horiz-adv-x="1144" d="M99 446q0 258 147.5 403t346.5 145q186 0 319 -128.5t133 -361.5q0 -256 -147 -399.5t-346 -143.5q-186 0 -319.5 127t-133.5 358zM271 486q0 -157 78.5 -278t224.5 -121q144 0 221 115.5t77 266.5q0 156 -78.5 277.5t-223.5 121.5q-144 0 -221.5 -115t-77.5 -267z M352 1086q0 16 35 159.5t35 164.5h208q0 -22 -92 -165t-92 -159h-94zM712 1086q0 16 35 159.5t35 164.5h208q0 -22 -92 -165t-92 -159h-94z" />
<glyph unicode="&#x152;" horiz-adv-x="1846" d="M99 626q0 272 151 474q171 228 450 228q120 0 277 -26h748l-7 -149q-349 12 -605 12q6 -154 6 -419q204 0 504 6l-6 -143q-248 9 -498 9q0 -257 13 -482q236 0 648 15l-6 -151h-816q-144 -37 -275 -37q-290 0 -448 211q-136 182 -136 452zM285 655q0 -219 107 -376 q117 -174 310 -174q157 0 252 40q8 222 8 539q0 280 -8 475q-125 33 -273 33q-195 0 -302 -169q-94 -147 -94 -368z" />
<glyph unicode="&#x153;" horiz-adv-x="1766" d="M99 446q0 123 36.5 224t101 173t153.5 111.5t193 39.5q252 0 349 -186h10q116 186 339 186q92 0 163.5 -28t121 -80.5t75.5 -128t26 -170.5q0 -21 -1 -50t-3 -66l-656 -12q6 -78 34 -141.5t75 -108t111.5 -69t142.5 -24.5q154 0 277 37l-17 -141q-90 -39 -279 -39 q-275 0 -419 194h-11q-119 -206 -380 -206q-97 0 -178 34.5t-139.5 98t-91.5 153t-33 199.5zM271 486q0 -84 21 -156.5t59.5 -126.5t92.5 -85t120 -31t121 29.5t95 81.5t62 121.5t22 149.5q0 83 -22.5 155.5t-63 126.5t-96.5 85.5t-122 31.5t-119 -29.5t-91 -81t-58.5 -121 t-20.5 -150.5zM1013 574l487 11q0 281 -227 281q-241 0 -260 -292z" />
<glyph unicode="&#x154;" horiz-adv-x="1240" d="M188 0q15 310 15 684q0 352 -15 618h141q45 0 114 3t158 3q438 0 438 -302q0 -251 -246 -353v-10q110 -33 178 -153q57 -100 203 -490h-193q-96 287 -140 380q-56 117 -127 151q-56 27 -201 27q-85 0 -151 -2q0 -323 12 -556h-186zM353 1163q7 -174 7 -473q60 -2 115 -2 q393 0 393 250q0 238 -322 238q-115 0 -193 -13zM535 1416q0 16 90 139.5t90 134.5h216q0 -12 -133 -135t-143 -139h-120z" />
<glyph unicode="&#x155;" horiz-adv-x="726" d="M100 946l175 25q19 -110 19 -147h8q108 159 252 159q76 0 182 -33l-45 -159q-78 31 -145 31q-188 0 -244 -179q0 -460 6 -643h-177q16 317 16 492q0 237 -47 454zM286 1086q0 16 90 164.5t90 159.5h216q0 -12 -138 -160t-138 -164h-120z" />
<glyph unicode="&#x156;" horiz-adv-x="1240" d="M188 0q15 310 15 684q0 352 -15 618h141q45 0 114 3t158 3q438 0 438 -302q0 -251 -246 -353v-10q110 -33 178 -153q57 -100 203 -490h-193q-96 287 -140 380q-56 117 -127 151q-56 27 -201 27q-85 0 -151 -2q0 -323 12 -556h-186zM353 1163q7 -174 7 -473q60 -2 115 -2 q393 0 393 250q0 238 -322 238q-115 0 -193 -13zM546 -227q0 49 27.5 84.5t82.5 35.5q59 0 89.5 -39t30.5 -102q0 -77 -53 -159.5t-111 -118.5l-39 40q74 93 74 161q-101 27 -101 98z" />
<glyph unicode="&#x157;" horiz-adv-x="726" d="M100 946l175 25q19 -110 19 -147h8q108 159 252 159q76 0 182 -33l-45 -159q-78 31 -145 31q-188 0 -244 -179q0 -460 6 -643h-177q16 317 16 492q0 237 -47 454zM100 -227q0 49 27.5 84.5t82.5 35.5q59 0 89.5 -39t30.5 -102q0 -77 -53 -159.5t-111 -118.5l-39 40 q74 93 74 161q-101 27 -101 98z" />
<glyph unicode="&#x158;" horiz-adv-x="1240" d="M188 0q15 310 15 684q0 352 -15 618h141q45 0 114 3t158 3q438 0 438 -302q0 -251 -246 -353v-10q110 -33 178 -153q57 -100 203 -490h-193q-96 287 -140 380q-56 117 -127 151q-56 27 -201 27q-85 0 -151 -2q0 -323 12 -556h-186zM353 1163q7 -174 7 -473q60 -2 115 -2 q393 0 393 250q0 238 -322 238q-115 0 -193 -13zM322 1690h114q10 -13 177 -158q167 145 177 158h114q0 -13 -94.5 -135.5t-99.5 -138.5h-194q-5 16 -99.5 138.5t-94.5 135.5z" />
<glyph unicode="&#x159;" horiz-adv-x="726" d="M100 946l175 25q19 -110 19 -147h8q108 159 252 159q76 0 182 -33l-45 -159q-78 31 -145 31q-188 0 -244 -179q0 -460 6 -643h-177q16 317 16 492q0 237 -47 454zM157 1410h104q0 -13 187 -208q187 195 187 208h104q0 -13 -94.5 -160.5t-99.5 -163.5h-194 q-5 16 -99.5 163.5t-94.5 160.5z" />
<glyph unicode="&#x15a;" horiz-adv-x="1047" d="M99 10l35 157q168 -58 319 -58q340 0 340 192q0 97 -88 166q-59 46 -232 123q-182 81 -255 149q-101 94 -101 236q0 148 103 241q115 104 325 104q238 0 326 -31l-24 -159q-152 48 -323 48q-257 0 -257 -172q0 -83 74 -139q48 -35 212 -106q187 -81 270 -154 q125 -110 125 -270q0 -370 -515 -370q-188 0 -334 43zM482 1416q0 16 90 139.5t90 134.5h216q0 -12 -133 -135t-143 -139h-120z" />
<glyph unicode="&#x15b;" horiz-adv-x="858" d="M86 12l31 147q130 -50 282 -50q218 0 218 124q0 60 -48.5 95.5t-160.5 79.5q-142 56 -206 108q-94 77 -94 186q0 114 86 195.5t262 81.5q172 0 276 -29l-31 -144q-108 43 -250 43q-192 0 -192 -111q0 -56 43 -90.5t168 -83.5q135 -53 200 -104q97 -79 97 -189 q0 -292 -373 -292q-165 0 -308 33zM410 1086q0 16 90 164.5t90 159.5h216q0 -12 -138 -160t-138 -164h-120z" />
<glyph unicode="&#x15c;" horiz-adv-x="1047" d="M99 10l35 157q168 -58 319 -58q340 0 340 192q0 97 -88 166q-59 46 -232 123q-182 81 -255 149q-101 94 -101 236q0 148 103 241q115 104 325 104q238 0 326 -31l-24 -159q-152 48 -323 48q-257 0 -257 -172q0 -83 74 -139q48 -35 212 -106q187 -81 270 -154 q125 -110 125 -270q0 -370 -515 -370q-188 0 -334 43zM239 1416q0 13 94.5 135.5t99.5 138.5h194q5 -16 99.5 -138.5t94.5 -135.5h-114q-10 13 -177 158q-167 -145 -177 -158h-114z" />
<glyph unicode="&#x15d;" horiz-adv-x="858" d="M86 12l31 147q130 -50 282 -50q218 0 218 124q0 60 -48.5 95.5t-160.5 79.5q-142 56 -206 108q-94 77 -94 186q0 114 86 195.5t262 81.5q172 0 276 -29l-31 -144q-108 43 -250 43q-192 0 -192 -111q0 -56 43 -90.5t168 -83.5q135 -53 200 -104q97 -79 97 -189 q0 -292 -373 -292q-165 0 -308 33zM150 1086q0 13 94.5 160.5t99.5 163.5h194q5 -16 99.5 -163.5t94.5 -160.5h-104q0 13 -187 208q-187 -195 -187 -208h-104z" />
<glyph unicode="&#x15e;" horiz-adv-x="1047" d="M93 10l39 157q170 -58 321 -58q340 0 340 192q0 97 -88 166q-59 46 -232 123q-182 81 -255 149q-101 94 -101 236q0 148 103 241q115 104 325 104q238 0 326 -31l-24 -159q-152 48 -323 48q-257 0 -257 -172q0 -83 74 -139q48 -35 212 -106q187 -81 270 -154 q125 -110 125 -270q0 -354 -473 -369l-10 -68q196 -47 196 -192q0 -222 -240 -222l-14 92q47 0 76.5 32t29.5 76q0 113 -152 142l28 140q-162 4 -296 42z" />
<glyph unicode="&#x15f;" horiz-adv-x="858" d="M86 12l31 147q130 -50 282 -50q218 0 218 124q0 60 -48.5 95.5t-160.5 79.5q-142 56 -206 108q-94 77 -94 186q0 114 86 195.5t262 81.5q172 0 276 -29l-31 -144q-108 43 -250 43q-192 0 -192 -111q0 -56 43 -90.5t168 -83.5q135 -53 200 -104q97 -79 97 -189 q0 -278 -338 -291l-9 -80q196 -47 196 -192q0 -222 -240 -222l-14 92q47 0 76.5 32t29.5 76q0 113 -152 142l31 152q-139 4 -261 32z" />
<glyph unicode="&#x160;" horiz-adv-x="1047" d="M99 10l35 157q168 -58 319 -58q340 0 340 192q0 97 -88 166q-59 46 -232 123q-182 81 -255 149q-101 94 -101 236q0 148 103 241q115 104 325 104q238 0 326 -31l-24 -159q-152 48 -323 48q-257 0 -257 -172q0 -83 74 -139q48 -35 212 -106q187 -81 270 -154 q125 -110 125 -270q0 -370 -515 -370q-188 0 -334 43zM264 1690h114q10 -13 177 -158q167 145 177 158h114q0 -13 -94.5 -135.5t-99.5 -138.5h-194q-5 16 -99.5 138.5t-94.5 135.5z" />
<glyph unicode="&#x161;" horiz-adv-x="858" d="M86 12l31 147q130 -50 282 -50q218 0 218 124q0 60 -48.5 95.5t-160.5 79.5q-142 56 -206 108q-94 77 -94 186q0 114 86 195.5t262 81.5q172 0 276 -29l-31 -144q-108 43 -250 43q-192 0 -192 -111q0 -56 43 -90.5t168 -83.5q135 -53 200 -104q97 -79 97 -189 q0 -292 -373 -292q-165 0 -308 33zM161 1410h104q0 -13 187 -208q187 195 187 208h104q0 -13 -94.5 -160.5t-99.5 -163.5h-194q-5 16 -99.5 163.5t-94.5 160.5z" />
<glyph unicode="&#x162;" horiz-adv-x="1043" d="M22 1159l5 143h994l-5 -141q-198 10 -409 10q-2 -192 -2 -487q0 -326 10 -684h-183q12 341 12 684q0 291 -6 487q-148 0 -416 -12zM427 -227q0 49 27.5 84.5t82.5 35.5q59 0 89.5 -39t30.5 -102q0 -77 -53 -159.5t-111 -118.5l-39 40q74 93 74 161q-101 27 -101 98z" />
<glyph unicode="&#x21a;" horiz-adv-x="1043" d="M22 1159l5 143h994l-5 -141q-198 10 -409 10q-2 -192 -2 -487q0 -326 10 -684h-183q12 341 12 684q0 291 -6 487q-148 0 -416 -12zM427 -227q0 49 27.5 84.5t82.5 35.5q59 0 89.5 -39t30.5 -102q0 -77 -53 -159.5t-111 -118.5l-39 40q74 93 74 161q-101 27 -101 98z" />
<glyph unicode="&#x163;" horiz-adv-x="735" d="M44 791l6 145q95 -6 170 -6q0 60 10 285l157 16q-17 -210 -17 -301q98 0 288 10l-7 -149q-180 6 -289 6q-2 -151 -2 -340q0 -206 43.5 -272.5t161.5 -66.5q39 0 115 20l-12 -130q-79 -29 -149 -29q-180 0 -246 91.5t-66 327.5q0 153 2 399q-56 0 -165 -6zM306 -227 q0 49 27.5 84.5t82.5 35.5q59 0 89.5 -39t30.5 -102q0 -77 -53 -159.5t-111 -118.5l-39 40q74 93 74 161q-101 27 -101 98z" />
<glyph unicode="&#x21b;" horiz-adv-x="735" d="M44 791l6 145q95 -6 170 -6q0 60 10 285l157 16q-17 -210 -17 -301q98 0 288 10l-7 -149q-180 6 -289 6q-2 -151 -2 -340q0 -206 43.5 -272.5t161.5 -66.5q39 0 115 20l-12 -130q-79 -29 -149 -29q-180 0 -246 91.5t-66 327.5q0 153 2 399q-56 0 -165 -6zM306 -227 q0 49 27.5 84.5t82.5 35.5q59 0 89.5 -39t30.5 -102q0 -77 -53 -159.5t-111 -118.5l-39 40q74 93 74 161q-101 27 -101 98z" />
<glyph unicode="&#x164;" horiz-adv-x="1043" d="M22 1159l5 143h994l-5 -141q-198 10 -409 10q-2 -192 -2 -487q0 -326 10 -684h-183q12 341 12 684q0 291 -6 487q-148 0 -416 -12zM237 1690h114q10 -13 177 -158q167 145 177 158h114q0 -13 -94.5 -135.5t-99.5 -138.5h-194q-5 16 -99.5 138.5t-94.5 135.5z" />
<glyph unicode="&#x165;" horiz-adv-x="913" d="M44 791l6 145q95 -6 170 -6q0 60 10 285l157 16q-17 -210 -17 -301q98 0 288 10l-7 -149q-180 6 -289 6q-2 -151 -2 -340q0 -206 43.5 -272.5t161.5 -66.5q39 0 115 20l-12 -130q-79 -29 -149 -29q-180 0 -246 91.5t-66 327.5q0 153 2 399q-56 0 -165 -6zM693 1197 q0 54 30.5 93t90.5 39q65 0 99 -43t34 -112q0 -85 -58.5 -175.5t-122.5 -130.5l-43 44q82 102 82 177q-112 30 -112 108z" />
<glyph unicode="&#x166;" horiz-adv-x="1043" d="M22 1159l5 143h994l-5 -141q-198 10 -409 10q-2 -171 -2 -426h349l-10 -108h-339q0 -305 10 -637h-183q11 317 12 637h-349l10 108h339q-1 251 -6 426q-148 0 -416 -12z" />
<glyph unicode="&#x167;" horiz-adv-x="735" d="M44 791l6 145q95 -6 170 -6q0 60 10 285l157 16q-17 -210 -17 -301q98 0 288 10l-7 -149q-180 6 -289 6q-2 -107 -2 -233h272l-6 -102h-266v-5q0 -206 43.5 -272.5t161.5 -66.5q39 0 115 20l-12 -130q-79 -29 -145 -29q-163 0 -239.5 78t-76.5 331v74h-159l6 102h153 q1 104 2 233q-56 0 -165 -6z" />
<glyph unicode="&#x168;" horiz-adv-x="1398" d="M166 1302h190q-12 -381 -12 -597q0 -174 17 -283.5t60.5 -182.5t109.5 -103.5t168 -30.5q107 0 174 30.5t109 101t60 181t18 289.5q0 106 -3.5 253.5t-10.5 341.5h186q-4 -189 -6 -353t-2 -306q0 -670 -529 -670q-138 0 -236.5 39.5t-162 121t-93 205.5t-29.5 293 q0 148 -2 314.5t-6 355.5zM360 1469q110 185 250 185q51 0 128.5 -24t125.5 -24q88 0 172 84l62 -50q-110 -185 -250 -185q-51 0 -128.5 24t-125.5 24q-88 0 -172 -84z" />
<glyph unicode="&#x169;" horiz-adv-x="1097" d="M130 945l186 7q-12 -193 -12 -330q0 -315 40.5 -410.5t182.5 -95.5q160 0 264 80q0 556 -10 749l180 7q-8 -188 -8 -520q0 -213 22 -431l-155 -6q-14 56 -14 92h-10q-133 -112 -323 -112q-173 0 -251.5 83.5t-78.5 336.5q0 36 2 107t2 97q0 147 -17 346zM225 1123 q110 221 250 221q51 0 128.5 -24t125.5 -24q88 0 172 120l62 -50q-110 -221 -250 -221q-51 0 -128.5 24t-125.5 24q-88 0 -172 -120z" />
<glyph unicode="&#x16a;" horiz-adv-x="1398" d="M166 1302h190q-12 -381 -12 -597q0 -174 17 -283.5t60.5 -182.5t109.5 -103.5t168 -30.5q107 0 174 30.5t109 101t60 181t18 289.5q0 106 -3.5 253.5t-10.5 341.5h186q-4 -189 -6 -353t-2 -306q0 -670 -529 -670q-138 0 -236.5 39.5t-162 121t-93 205.5t-29.5 293 q0 148 -2 314.5t-6 355.5zM463 1476l12 124h474l-12 -124h-474z" />
<glyph unicode="&#x16b;" horiz-adv-x="1097" d="M130 945l186 7q-12 -193 -12 -330q0 -315 40.5 -410.5t182.5 -95.5q160 0 264 80q0 556 -10 749l180 7q-8 -188 -8 -520q0 -213 22 -431l-155 -6q-14 56 -14 92h-10q-133 -112 -323 -112q-173 0 -251.5 83.5t-78.5 336.5q0 36 2 107t2 97q0 147 -17 346zM346 1186l11 124 h435l-12 -124h-434z" />
<glyph unicode="&#x16c;" horiz-adv-x="1398" d="M166 1302h190q-12 -381 -12 -597q0 -174 17 -283.5t60.5 -182.5t109.5 -103.5t168 -30.5q107 0 174 30.5t109 101t60 181t18 289.5q0 106 -3.5 253.5t-10.5 341.5h186q-4 -189 -6 -353t-2 -306q0 -670 -529 -670q-138 0 -236.5 39.5t-162 121t-93 205.5t-29.5 293 q0 148 -2 314.5t-6 355.5zM408 1640l100 50q72 -144 206 -144q124 0 208 144l100 -50q-95 -218 -306 -218q-221 0 -308 218z" />
<glyph unicode="&#x16d;" horiz-adv-x="1097" d="M130 945l186 7q-12 -193 -12 -330q0 -315 40.5 -410.5t182.5 -95.5q160 0 264 80q0 556 -10 749l180 7q-8 -188 -8 -520q0 -213 22 -431l-155 -6q-14 56 -14 92h-10q-133 -112 -323 -112q-173 0 -251.5 83.5t-78.5 336.5q0 36 2 107t2 97q0 147 -17 346zM246 1340l100 50 q72 -154 206 -154q124 0 208 154l100 -50q-95 -228 -306 -228q-221 0 -308 228z" />
<glyph unicode="&#x16e;" horiz-adv-x="1398" d="M166 1302h190q-12 -381 -12 -597q0 -174 17 -283.5t60.5 -182.5t109.5 -103.5t168 -30.5q107 0 174 30.5t109 101t60 181t18 289.5q0 106 -3.5 253.5t-10.5 341.5h186q-4 -189 -6 -353t-2 -306q0 -670 -529 -670q-138 0 -236.5 39.5t-162 121t-93 205.5t-29.5 293 q0 148 -2 314.5t-6 355.5zM499 1557q0 103 69 163t159 60q82 0 139 -51t57 -145q0 -104 -69 -165t-159 -61q-82 0 -139 51.5t-57 147.5zM593 1562q0 -57 32 -87.5t78 -30.5q50 0 88 35.5t38 96.5q0 57 -32 87.5t-78 30.5q-50 0 -88 -35.5t-38 -96.5z" />
<glyph unicode="&#x16f;" horiz-adv-x="1097" d="M130 945l186 7q-12 -193 -12 -330q0 -315 40.5 -410.5t182.5 -95.5q160 0 264 80q0 556 -10 749l180 7q-8 -188 -8 -520q0 -213 22 -431l-155 -6q-14 56 -14 92h-10q-133 -112 -323 -112q-173 0 -251.5 83.5t-78.5 336.5q0 36 2 107t2 97q0 147 -17 346zM347 1260 q0 103 69 163t159 60q82 0 139 -51t57 -145q0 -104 -69 -165t-159 -61q-82 0 -139 51.5t-57 147.5zM441 1265q0 -57 32 -87.5t78 -30.5q50 0 88 35.5t38 96.5q0 57 -32 87.5t-78 30.5q-50 0 -88 -35.5t-38 -96.5z" />
<glyph unicode="&#x170;" horiz-adv-x="1398" d="M166 1302h190q-12 -381 -12 -597q0 -174 17 -283.5t60.5 -182.5t109.5 -103.5t168 -30.5q107 0 174 30.5t109 101t60 181t18 289.5q0 106 -3.5 253.5t-10.5 341.5h186q-4 -189 -6 -353t-2 -306q0 -670 -529 -670q-138 0 -236.5 39.5t-162 121t-93 205.5t-29.5 293 q0 148 -2 314.5t-6 355.5zM461 1416q0 16 35 134.5t35 139.5h198q0 -22 -83.5 -140t-90.5 -134h-94zM821 1416q7 16 38.5 134.5t31.5 139.5h198q0 -22 -83.5 -140t-90.5 -134h-94z" />
<glyph unicode="&#x171;" horiz-adv-x="1097" d="M130 945l186 7q-12 -193 -12 -330q0 -315 40.5 -410.5t182.5 -95.5q160 0 264 80q0 556 -10 749l180 7q-8 -188 -8 -520q0 -213 22 -431l-155 -6q-14 56 -14 92h-10q-133 -112 -323 -112q-173 0 -251.5 83.5t-78.5 336.5q0 36 2 107t2 97q0 147 -17 346zM327 1086 q0 16 35 159.5t35 164.5h208q0 -22 -92 -165t-92 -159h-94zM687 1086q0 16 35 159.5t35 164.5h208q0 -22 -92 -165t-92 -159h-94z" />
<glyph unicode="&#x172;" horiz-adv-x="1398" d="M166 1302h190q-12 -381 -12 -597q0 -174 17 -283.5t61 -181t111.5 -103.5t165.5 -32q106 0 173.5 30t111 101t60 181.5t16.5 289.5q0 106 -3.5 253.5t-10.5 341.5h186q-4 -189 -6 -353t-2 -306q0 -497 -291 -625q-201 -89 -201 -242q0 -126 102 -126q41 0 86 16l28 -137 q-52 -15 -136 -15q-51 0 -91 12t-68.5 38t-43.5 67t-15 99q0 136 141 235v9q-11 -1 -40 -1q-138 0 -236.5 39.5t-162 121t-93 205.5t-29.5 293q0 148 -2 314.5t-6 355.5z" />
<glyph unicode="&#x173;" horiz-adv-x="1097" d="M130 945l186 7q-12 -193 -12 -330q0 -307 38.5 -406.5t176.5 -99.5q168 0 272 80q0 556 -10 750l180 6q-8 -188 -8 -520q0 -213 22 -432q-218 -125 -218 -234q0 -116 102 -116q40 0 86 16l28 -137q-53 -15 -136 -15q-91 0 -154.5 54t-63.5 162q0 144 199 268h2 q-14 53 -14 89h-10q-133 -112 -323 -112q-168 0 -249 82t-81 329q0 39 2 113t2 100q0 147 -17 346z" />
<glyph unicode="&#x174;" horiz-adv-x="1815" d="M11 1302h190q0 -41 151.5 -518t151.5 -584h11q0 113 154 580.5t154 521.5h175q0 -65 160 -554.5t160 -547.5h11q0 98 145.5 554.5t145.5 547.5h184q0 -73 -216 -654t-216 -648h-130q0 88 -157 510q-171 457 -194 589h-13q-20 -140 -172 -600q-142 -431 -142 -499h-130 q0 102 -211.5 683.5t-211.5 618.5zM615 1416q0 13 94.5 135.5t99.5 138.5h194q5 -16 99.5 -138.5t94.5 -135.5h-114q-10 13 -177 158q-167 -145 -177 -158h-114z" />
<glyph unicode="&#x175;" horiz-adv-x="1569" d="M44 950h178q0 -52 116.5 -380t116.5 -382h11q0 82 120.5 395.5t120.5 366.5h170q0 -46 125 -383t125 -379h10q0 61 108.5 372.5t108.5 389.5h171q0 -60 -171.5 -470.5t-171.5 -479.5h-136q0 38 -101 291q-124 311 -176 486h-8q-48 -169 -164 -487q-92 -252 -92 -290h-137 q0 58 -162 480.5t-162 469.5zM487 1086q0 13 94.5 160.5t99.5 163.5h194q5 -16 99.5 -163.5t94.5 -160.5h-104q0 13 -187 208q-187 -195 -187 -208h-104z" />
<glyph unicode="&#x176;" horiz-adv-x="1127" d="M22 1302h205q0 -26 172.5 -318.5t172.5 -386.5h10q0 95 164.5 380t164.5 325h194q0 -37 -123 -216q-174 -253 -227 -344q-123 -209 -123 -318q0 -206 14 -424h-192q13 207 13 426q0 120 -115 333q-65 119 -215 344q-115 174 -115 199zM279 1416q0 13 94.5 135.5 t99.5 138.5h194q5 -16 99.5 -138.5t94.5 -135.5h-114q-10 13 -177 158q-167 -145 -177 -158h-114z" />
<glyph unicode="&#x177;" horiz-adv-x="952" d="M44 950h207q0 -27 126 -364t126 -415h10q0 65 106.5 377t106.5 402h182q0 -64 -151 -408q-173 -393 -215 -554q-69 -261 -128 -332q-80 -98 -285 -98l-8 140q125 0 208 85t83 213q0 111 -184 528t-184 426zM201 1086q0 13 94.5 160.5t99.5 163.5h194q5 -16 99.5 -163.5 t94.5 -160.5h-104q0 13 -187 208q-187 -195 -187 -208h-104z" />
<glyph unicode="&#x178;" horiz-adv-x="1127" d="M22 1302h205q0 -26 172.5 -318.5t172.5 -386.5h10q0 95 164.5 380t164.5 325h194q0 -37 -123 -216q-174 -253 -227 -344q-123 -209 -123 -318q0 -206 14 -424h-192q13 207 13 426q0 120 -115 333q-65 119 -215 344q-115 174 -115 199zM285 1546q0 44 30.5 77.5t85.5 33.5 q45 0 69.5 -28.5t24.5 -69.5q0 -46 -30.5 -80.5t-84.5 -34.5q-45 0 -70 30t-25 72zM663 1546q0 44 30.5 77.5t85.5 33.5q45 0 69.5 -28.5t24.5 -69.5q0 -46 -30.5 -80.5t-84.5 -34.5q-45 0 -70 30t-25 72z" />
<glyph unicode="&#x179;" horiz-adv-x="1062" d="M99 0l9 120q126 176 367 570q259 425 259 473v11q-219 0 -621 -25l5 153h816l-8 -124q-114 -161 -351 -565q-247 -420 -247 -462v-11q207 0 635 27l-6 -167h-858zM428 1416q0 16 90 139.5t90 134.5h216q0 -12 -133 -135t-143 -139h-120z" />
<glyph unicode="&#x17a;" horiz-adv-x="933" d="M99 0l8 155q53 51 271 316q237 289 237 324l-1 11q-321 0 -509 -13l6 157h694l-10 -157q-83 -91 -263 -318q-224 -283 -224 -322v-8q302 0 526 16l-6 -161h-729zM398 1086q0 16 90 164.5t90 159.5h216q0 -12 -138 -160t-138 -164h-120z" />
<glyph unicode="&#x17b;" horiz-adv-x="1062" d="M99 0l9 120q126 176 367 570q259 425 259 473v11q-219 0 -621 -25l5 153h816l-8 -124q-114 -161 -351 -565q-247 -420 -247 -462v-11q207 0 635 27l-6 -167h-858zM441 1550q0 50 34 87t94 37q49 0 77.5 -32.5t28.5 -76.5q0 -51 -33 -88.5t-93 -37.5q-51 0 -79.5 32.5 t-28.5 78.5z" />
<glyph unicode="&#x17c;" horiz-adv-x="933" d="M99 0l8 155q53 51 271 316q237 289 237 324l-1 11q-321 0 -509 -13l6 157h694l-10 -157q-83 -91 -263 -318q-224 -283 -224 -322v-8q302 0 526 16l-6 -161h-729zM360 1235q0 50 34 87t94 37q49 0 77.5 -32.5t28.5 -76.5q0 -51 -33 -88.5t-93 -37.5q-51 0 -79.5 32.5 t-28.5 78.5z" />
<glyph unicode="&#x17d;" horiz-adv-x="1062" d="M99 0l9 120q126 176 367 570q259 425 259 473v11q-219 0 -621 -25l5 153h816l-8 -124q-114 -161 -351 -565q-247 -420 -247 -462v-11q207 0 635 27l-6 -167h-858zM224 1690h114q10 -13 177 -158q167 145 177 158h114q0 -13 -94.5 -135.5t-99.5 -138.5h-194 q-5 16 -99.5 138.5t-94.5 135.5z" />
<glyph unicode="&#x17e;" horiz-adv-x="933" d="M99 0l8 155q53 51 271 316q237 289 237 324l-1 11q-321 0 -509 -13l6 157h694l-10 -157q-83 -91 -263 -318q-224 -283 -224 -322v-8q302 0 526 16l-6 -161h-729zM190 1410h104q0 -13 187 -208q187 195 187 208h104q0 -13 -94.5 -160.5t-99.5 -163.5h-194 q-5 16 -99.5 163.5t-94.5 160.5z" />
<glyph unicode="&#x17f;" horiz-adv-x="566" d="M133 0q14 333 14 930q0 263 73 384.5t247 121.5q61 0 139 -17l-29 -132q-60 15 -120 15q-93 0 -125 -73.5t-32 -298.5q0 -588 12 -930h-179z" />
<glyph unicode="&#x192;" d="M87 -367q125 67 178.5 133.5t85.5 270.5q16 102 32.5 276.5t33.5 421.5q-64 0 -181 -4l4 93q63 -4 188 -4q5 76 14.5 140t22.5 115q27 103 68 155q82 103 267 103q30 0 105 -19l-21 -134q-50 8 -91 8q-117 0 -154 -63q-19 -31 -34 -108q-7 -38 -13 -87.5t-11 -109.5 q102 0 258 4l-4 -93q-105 4 -259 4q-18 -269 -38.5 -462t-43.5 -310q-46 -235 -123.5 -324.5t-230.5 -115.5z" />
<glyph unicode="&#x1a0;" horiz-adv-x="1513" d="M99 618q0 327 189 518q189 192 437 192q239 0 417 -178q69 -69 112 -155q48 40 74.5 81.5t26.5 83.5q-43 15 -64.5 46t-21.5 67q0 55 35 93q18 20 42 29t47 9q22 0 46.5 -9t42.5 -34q31 -41 31 -102q0 -49 -13.5 -94t-41.5 -89t-69.5 -87t-98.5 -87q32 -107 32 -231 q0 -324 -189 -517t-437 -193q-238 0 -418 177q-179 179 -179 480zM276 642q0 -259 136 -401q136 -141 313 -141q164 0 291 151q128 152 128 397q0 259 -136 399q-135 142 -312 142q-164 0 -292 -149t-128 -398z" />
<glyph unicode="&#x1a1;" horiz-adv-x="1285" d="M99 446q0 257 147 403q148 145 347 145q185 0 319 -129q84 -81 114 -201q48 40 74.5 82t26.5 84q-43 15 -64.5 46t-21.5 67q0 55 35 93q18 20 42 29t47 9q22 0 46.5 -9t42.5 -34q31 -41 31 -102q0 -103 -60 -191.5t-182 -180.5q1 -13 1.5 -26t0.5 -27q0 -256 -147 -400 q-148 -143 -346 -143q-187 0 -320 127t-133 358zM271 486q0 -157 78 -278q79 -121 225 -121q145 0 221 115q77 116 77 267q0 156 -79 277q-78 122 -223 122q-144 0 -222 -115q-77 -116 -77 -267z" />
<glyph unicode="&#x1af;" horiz-adv-x="1580" d="M166 1302h190q-12 -381 -12 -597q0 -88 4.5 -158.5t12.5 -125.5q16 -108 60 -182q44 -73 110 -103.5t168 -30.5q107 0 174 30.5t109 100.5t60 181t18 290q0 106 -3.5 253t-10.5 342h186q-2 -96 -4 -186t-3 -174q42 18 78 44.5t62.5 57t41.5 61t15 55.5q-40 14 -63 43.5 t-23 69.5q0 55 34 92q18 20 42.5 29.5t48.5 9.5q26 0 49.5 -11t38.5 -32q31 -41 31 -102q0 -52 -15 -99t-40 -88.5t-58 -76t-70 -62.5q-57 -44 -102 -65.5t-70 -29.5q-1 -51 -1 -100v-95q0 -670 -529 -670q-138 0 -236.5 39.5t-162 121t-93 205.5t-29.5 293q0 149 -2 314.5 t-6 355.5z" />
<glyph unicode="&#x1b0;" horiz-adv-x="1305" d="M130 945l186 7q-12 -194 -12 -330q0 -316 40 -411q41 -95 183 -95q160 0 264 80q0 280 -2.5 466t-7.5 283l180 7q-2 -60 -4 -134t-3 -163q41 15 76.5 36t61.5 44.5t40.5 47.5t14.5 45q-42 15 -64 44t-22 71q0 53 34 90q18 20 42.5 29.5t49.5 9.5q24 0 48.5 -10.5 t38.5 -32.5q14 -21 22.5 -45.5t8.5 -58.5q0 -47 -15 -89t-40 -79t-58 -68.5t-69 -56.5q-56 -38 -100.5 -57.5t-69.5 -27.5v-115q0 -107 5.5 -214.5t16.5 -216.5l-155 -6q-14 58 -14 92h-10q-133 -112 -323 -112q-172 0 -252 83q-78 84 -78 337q0 18 0.5 45t1.5 62t1.5 59.5 t0.5 37.5q0 74 -4.5 160t-12.5 186z" />
<glyph unicode="&#x1fa;" horiz-adv-x="1262" d="M11 0q0 37 258 639.5t258 662.5h232q0 -59 246 -653t246 -649h-211q0 67 -126 421h-577q-124 -349 -124 -421h-202zM379 552h489q-235 587 -235 624h-11q0 -31 -243 -624zM484 1501q0 83 55.5 131t127.5 48q65 0 110.5 -41t45.5 -116q0 -83 -55 -132t-127 -49 q-66 0 -111.5 41t-45.5 118zM564 1505q0 -42 24.5 -65.5t58.5 -23.5q38 0 67 27t29 73q0 43 -24 66.5t-59 23.5q-38 0 -67 -27t-29 -74zM614 1716q0 15 70 94t70 90h226q0 -12 -118 -90.5t-128 -93.5h-120z" />
<glyph unicode="&#x1fb;" horiz-adv-x="1005" d="M88 235q0 154 130 247.5t483 98.5q3 24 3 55q0 123 -65.5 164t-198.5 41q-157 0 -309 -39l17 138q150 43 345 43q178 0 275 -73.5t97 -250.5q0 -47 -4.5 -170.5t-4.5 -164.5q0 -182 27 -324l-157 -6q-12 49 -12 93h-10q-123 -112 -335 -112q-115 0 -198 67.5t-83 192.5z M251 248q0 -136 192 -136q165 0 263 82q-5 152 -5 273q-188 0 -286 -28q-164 -50 -164 -191zM292 1241q0 103 69 163t159 60q82 0 139 -51t57 -145q0 -104 -69 -165t-159 -61q-82 0 -139 51.5t-57 147.5zM386 1246q0 -57 32 -87.5t78 -30.5q50 0 88 35.5t38 96.5 q0 57 -32 87.5t-78 30.5q-50 0 -88 -35.5t-38 -96.5zM470 1516q0 16 90 139.5t90 134.5h216q0 -12 -133 -135t-143 -139h-120z" />
<glyph unicode="&#x1fc;" horiz-adv-x="1668" d="M11 0q0 36 261.5 636t261.5 666h1012l-6 -149q-304 12 -610 12q9 -154 9 -419q236 0 505 6l-5 -143q-249 9 -500 9q0 -257 8 -482q340 0 655 15l-6 -151h-823q13 223 13 421h-461q-118 -349 -118 -421h-196zM368 552h418q0 357 -13 613h-157q0 -38 -248 -613zM826 1416 q0 16 90 139.5t90 134.5h216q0 -12 -133 -135t-143 -139h-120z" />
<glyph unicode="&#x1fd;" horiz-adv-x="1612" d="M88 225q0 356 616 356v55q0 123 -65.5 164t-198.5 41q-157 0 -309 -39l17 138q150 43 334 43q241 0 323 -126h10q117 137 302 137q195 0 295.5 -114.5t100.5 -292.5q0 -42 -4 -116l-676 -12q10 -143 106.5 -243t266.5 -100q152 0 287 37l-17 -141q-100 -39 -289 -39 q-265 0 -395 174h-10q-106 -97 -188 -134.5t-225 -37.5q-113 0 -197 68.5t-84 181.5zM251 248q0 -136 192 -136q165 0 296 115q-46 107 -46 240q-187 0 -280 -28q-162 -50 -162 -191zM839 574l507 11q0 281 -238 281q-121 0 -190.5 -78.5t-78.5 -213.5zM760 1086 q0 16 90 164.5t90 159.5h216q0 -12 -138 -160t-138 -164h-120z" />
<glyph unicode="&#x1fe;" horiz-adv-x="1421" d="M65 -83q0 53 176 265q-141 176 -141 436q0 326 188.5 518t437.5 192q224 0 392 -153q116 143 116 178l122 -31q0 -46 -157 -238q124 -172 124 -413q0 -319 -186 -514.5t-440 -195.5q-207 0 -370 134q-143 -172 -143 -209zM277 645q0 -189 82 -325q233 257 652 728 q-129 144 -314 144q-163 0 -291.5 -149t-128.5 -398zM436 223q126 -120 290 -120q163 0 291 151.5t128 396.5q0 167 -64 293q-228 -252 -645 -721zM661 1416q0 16 90 139.5t90 134.5h216q0 -12 -133 -135t-143 -139h-120z" />
<glyph unicode="&#x1ff;" horiz-adv-x="1144" d="M50 -83q0 38 149 208q-100 127 -100 321q0 258 147.5 403t346.5 145q184 0 309 -118q100 112 100 136l91 -31q0 -32 -129 -179q81 -122 81 -298q0 -256 -147 -399.5t-346 -143.5q-163 0 -283 95q-131 -147 -131 -170zM270 486q0 -126 50 -228q166 173 468 493 q-84 117 -218 117q-142 0 -221 -113.5t-79 -268.5zM376 174q79 -87 198 -87q139 0 218.5 115.5t79.5 266.5q0 101 -35 191q-159 -167 -461 -486zM535 1086q0 16 90 164.5t90 159.5h216q0 -12 -138 -160t-138 -164h-120z" />
<glyph unicode="&#x218;" horiz-adv-x="1047" d="M99 10l35 157q168 -58 319 -58q340 0 340 192q0 97 -88 166q-59 46 -232 123q-182 81 -255 149q-101 94 -101 236q0 148 103 241q115 104 325 104q238 0 326 -31l-24 -159q-152 48 -323 48q-257 0 -257 -172q0 -83 74 -139q48 -35 212 -106q187 -81 270 -154 q125 -110 125 -270q0 -370 -515 -370q-188 0 -334 43zM322 -227q0 49 27.5 84.5t82.5 35.5q59 0 89.5 -39t30.5 -102q0 -77 -53 -159.5t-111 -118.5l-39 40q74 93 74 161q-101 27 -101 98z" />
<glyph unicode="&#x219;" horiz-adv-x="858" d="M86 12l31 147q130 -50 282 -50q218 0 218 124q0 60 -48.5 95.5t-160.5 79.5q-142 56 -206 108q-94 77 -94 186q0 114 86 195.5t262 81.5q172 0 276 -29l-31 -144q-108 43 -250 43q-192 0 -192 -111q0 -56 43 -90.5t168 -83.5q135 -53 200 -104q97 -79 97 -189 q0 -292 -373 -292q-165 0 -308 33zM276 -227q0 49 27.5 84.5t82.5 35.5q59 0 89.5 -39t30.5 -102q0 -77 -53 -159.5t-111 -118.5l-39 40q74 93 74 161q-101 27 -101 98z" />
<glyph unicode="&#x2c6;" horiz-adv-x="782" d="M100 1086q0 13 94.5 160.5t99.5 163.5h194q5 -16 99.5 -163.5t94.5 -160.5h-104q0 13 -187 208q-187 -195 -187 -208h-104z" />
<glyph unicode="&#x2c7;" horiz-adv-x="782" d="M100 1410h104q0 -13 187 -208q187 195 187 208h104q0 -13 -94.5 -160.5t-99.5 -163.5h-194q-5 16 -99.5 163.5t-94.5 160.5z" />
<glyph unicode="&#x2d8;" horiz-adv-x="782" d="M84 1340l100 50q72 -154 206 -154q124 0 208 154l100 -50q-95 -228 -306 -228q-221 0 -308 228z" />
<glyph unicode="&#x2d9;" horiz-adv-x="526" d="M165 1235q0 50 34 87t94 37q49 0 77.5 -32.5t28.5 -76.5q0 -51 -33 -88.5t-93 -37.5q-51 0 -79.5 32.5t-28.5 78.5z" />
<glyph unicode="&#x2da;" horiz-adv-x="610" d="M93 1260q0 103 69 163t159 60q82 0 139 -51t57 -145q0 -104 -69 -165t-159 -61q-82 0 -139 51.5t-57 147.5zM187 1265q0 -57 32 -87.5t78 -30.5q50 0 88 35.5t38 96.5q0 57 -32 87.5t-78 30.5q-50 0 -88 -35.5t-38 -96.5z" />
<glyph unicode="&#x2db;" horiz-adv-x="470" d="M26 -270q0 134 150 270h151q-163 -115 -163 -244q0 -106 102 -106q40 0 86 16l28 -137q-53 -15 -136 -15q-91 0 -154.5 59t-63.5 157z" />
<glyph unicode="&#x2dc;" horiz-adv-x="884" d="M72 1123q110 221 250 221q51 0 128.5 -24t125.5 -24q88 0 172 120l62 -50q-110 -221 -250 -221q-51 0 -128.5 24t-125.5 24q-88 0 -172 -120z" />
<glyph unicode="&#x2dd;" horiz-adv-x="882" d="M122 1086q0 16 35 159.5t35 164.5h208q0 -22 -92 -165t-92 -159h-94zM482 1086q0 16 35 159.5t35 164.5h208q0 -22 -92 -165t-92 -159h-94z" />
<glyph unicode="&#x300;" horiz-adv-x="0" d="M-806 1410h216q0 -11 90 -159.5t90 -164.5h-120q0 16 -138 164t-138 160z" />
<glyph unicode="&#x301;" horiz-adv-x="0" d="M-601 1086q0 16 90 164.5t90 159.5h216q0 -12 -138 -160t-138 -164h-120z" />
<glyph unicode="&#x302;" horiz-adv-x="0" d="M-777 1086q0 13 94.5 160.5t99.5 163.5h194q5 -16 99.5 -163.5t94.5 -160.5h-104q0 13 -187 208q-187 -195 -187 -208h-104z" />
<glyph unicode="&#x303;" horiz-adv-x="0" d="M-852 1123q110 221 250 221q51 0 128.5 -24t125.5 -24q88 0 172 120l62 -50q-110 -221 -250 -221q-51 0 -128.5 24t-125.5 24q-88 0 -172 -120z" />
<glyph unicode="&#x304;" horiz-adv-x="0" d="M-696 1186l11 124h435l-12 -124h-434z" />
<glyph unicode="&#x306;" horiz-adv-x="0" d="M-839 1340l100 50q72 -154 206 -154q124 0 208 154l100 -50q-95 -228 -306 -228q-221 0 -308 228z" />
<glyph unicode="&#x307;" horiz-adv-x="0" d="M-645 1235q0 50 34 87t94 37q49 0 77.5 -32.5t28.5 -76.5q0 -51 -33 -88.5t-93 -37.5q-51 0 -79.5 32.5t-28.5 78.5z" />
<glyph unicode="&#x308;" horiz-adv-x="0" d="M-827 1238q0 44 30.5 77.5t85.5 33.5q45 0 69.5 -28.5t24.5 -69.5q0 -46 -30.5 -80.5t-84.5 -34.5q-45 0 -70 30t-25 72zM-449 1238q0 44 30.5 77.5t85.5 33.5q45 0 69.5 -28.5t24.5 -69.5q0 -46 -30.5 -80.5t-84.5 -34.5q-45 0 -70 30t-25 72z" />
<glyph unicode="&#x309;" horiz-adv-x="566" d="M130 1450l18 75q145 0 223.5 -43t78.5 -133q0 -59 -48 -100.5t-132 -63.5l-7 -59l-75 -8l-21 129q72 16 103 41t31 65q0 41 -43.5 69t-127.5 28z" />
<glyph unicode="&#x30a;" horiz-adv-x="0" d="M-714 1260q0 103 69 163t159 60q82 0 139 -51t57 -145q0 -104 -69 -165t-159 -61q-82 0 -139 51.5t-57 147.5zM-620 1265q0 -57 32 -87.5t78 -30.5q50 0 88 35.5t38 96.5q0 57 -32 87.5t-78 30.5q-50 0 -88 -35.5t-38 -96.5z" />
<glyph unicode="&#x30b;" horiz-adv-x="0" d="M-758 1086q0 16 35 159.5t35 164.5h208q0 -22 -92 -165t-92 -159h-94zM-398 1086q0 16 35 159.5t35 164.5h208q0 -22 -92 -165t-92 -159h-94z" />
<glyph unicode="&#x30c;" horiz-adv-x="0" d="M-843 1410h104q0 -13 187 -208q187 195 187 208h104q0 -13 -94.5 -160.5t-99.5 -163.5h-194q-5 16 -99.5 163.5t-94.5 160.5z" />
<glyph unicode="&#x312;" horiz-adv-x="0" d="M-644 1275q0 77 53 159.5t111 118.5l39 -40q-64 -93 -64 -151q101 -29 101 -108q0 -59 -32.5 -94.5t-87.5 -35.5q-61 0 -90.5 38.5t-29.5 112.5z" />
<glyph unicode="&#x315;" horiz-adv-x="166" d="M-52 1197q0 54 30.5 93t90.5 39q65 0 99 -43t34 -112q0 -85 -58.5 -175.5t-122.5 -130.5l-43 44q82 102 82 177q-112 30 -112 108z" />
<glyph unicode="&#x323;" horiz-adv-x="564" d="M165 -237q0 50 34 87t94 37q49 0 77.5 -32.5t28.5 -76.5q0 -51 -33 -88.5t-93 -37.5q-51 0 -79.5 32.5t-28.5 78.5z" />
<glyph unicode="&#x326;" horiz-adv-x="0" d="M-645 -227q0 49 27.5 84.5t82.5 35.5q59 0 89.5 -39t30.5 -102q0 -77 -53 -159.5t-111 -118.5l-39 40q74 93 74 161q-101 27 -101 98z" />
<glyph unicode="&#x327;" horiz-adv-x="0" d="M-316 -172l46 224l74 -14l-16 -138q196 -47 196 -192q0 -222 -240 -222l-14 92q47 0 76.5 32t29.5 76q0 113 -152 142z" />
<glyph unicode="&#x328;" horiz-adv-x="0" d="M-421 -270q0 134 150 270h151q-163 -115 -163 -244q0 -106 102 -106q40 0 86 16l28 -137q-53 -15 -136 -15q-91 0 -154.5 59t-63.5 157z" />
<glyph unicode="&#x344;" horiz-adv-x="0" d="M-599 1238q0 44 30.5 77.5t85.5 33.5q45 0 69.5 -28.5t24.5 -69.5q0 -46 -30.5 -80.5t-84.5 -34.5q-45 0 -70 30t-25 72zM-358 1254q0 33 85 203t85 191h216q0 -22 -143 -195t-143 -199h-100zM-181 1238q0 44 30.5 77.5t85.5 33.5q45 0 69.5 -28.5t24.5 -69.5 q0 -46 -30.5 -80.5t-84.5 -34.5q-45 0 -70 30t-25 72z" />
<glyph unicode="&#x374;" horiz-adv-x="356" d="M0 1086q0 16 70 159.5t70 164.5h216q0 -22 -118 -165t-118 -159h-120z" />
<glyph unicode="&#x375;" horiz-adv-x="356" d="M0 -424q0 22 118 165t118 159h120q0 -16 -70 -159.5t-70 -164.5h-216z" />
<glyph unicode="&#x37e;" horiz-adv-x="517" d="M50 -310q152 170 152 314q-86 34 -86 126q0 58 36 101.5t107 43.5q58 0 94.5 -47t36.5 -114q0 -133 -69 -249.5t-211 -240.5zM264 -2zM120 812q0 58 40 101.5t111 43.5q59 0 90.5 -37t31.5 -91q0 -59 -39.5 -104t-109.5 -45q-59 0 -91.5 39t-32.5 93z" />
<glyph unicode="&#x384;" horiz-adv-x="562" d="M84 1116q0 33 90 203t90 191h216q0 -22 -138 -195t-138 -199h-120z" />
<glyph unicode="&#x385;" horiz-adv-x="836" d="M105 1238q0 44 30.5 77.5t85.5 33.5q45 0 69.5 -28.5t24.5 -69.5q0 -46 -30.5 -80.5t-84.5 -34.5q-45 0 -70 30t-25 72zM346 1254q0 33 85 203t85 191h216q0 -22 -143 -195t-143 -199h-100zM523 1238q0 44 30.5 77.5t85.5 33.5q45 0 69.5 -28.5t24.5 -69.5 q0 -46 -30.5 -80.5t-84.5 -34.5q-45 0 -70 30t-25 72z" />
<glyph unicode="&#x386;" horiz-adv-x="1330" d="M79 0q0 37 258 639.5t258 662.5h232q0 -59 246 -653t246 -649h-211q0 67 -126 421h-577q-124 -349 -124 -421h-202zM447 552h489q-235 587 -235 624h-11q0 -31 -243 -624zM84 1116q0 33 90 203t90 191h216q0 -22 -138 -195t-138 -199h-120z" />
<glyph unicode="&#x387;" horiz-adv-x="516" d="M120 809q0 58 40 101.5t111 43.5q59 0 90.5 -37t31.5 -91q0 -59 -39.5 -104t-109.5 -45q-59 0 -91.5 39t-32.5 93z" />
<glyph unicode="&#x388;" horiz-adv-x="1418" d="M540 0q14 310 14 684q0 352 -14 618h756l-8 -149q-275 12 -583 12q6 -155 6 -419q266 0 474 12v-149q-222 9 -474 9q0 -257 9 -482q332 0 632 15l-6 -151h-806zM84 1116q0 33 90 203t90 191h216q0 -22 -138 -195t-138 -199h-120z" />
<glyph unicode="&#x389;" horiz-adv-x="1687" d="M540 0q14 365 14 684q0 334 -14 618h190q-12 -286 -12 -556h603q0 217 -12 556h190q-15 -278 -15 -618q0 -373 15 -684h-190q10 346 10 620h-599q0 -222 10 -620h-190zM84 1116q0 33 90 203t90 191h216q0 -22 -138 -195t-138 -199h-120z" />
<glyph unicode="&#x38a;" horiz-adv-x="920" d="M542 0q15 324 15 684q0 354 -15 618h190q-14 -273 -14 -618q0 -362 14 -684h-190zM84 1116q0 33 90 203t90 191h216q0 -22 -138 -195t-138 -199h-120z" />
<glyph unicode="&#x38c;" horiz-adv-x="1657" d="M335 618q0 327 189 518.5t437 191.5q238 0 417.5 -177.5t179.5 -479.5q0 -323 -189 -516.5t-437 -193.5q-238 0 -417.5 177.5t-179.5 479.5zM512 642q0 -259 136.5 -400.5t312.5 -141.5q164 0 291.5 151t127.5 397q0 258 -135.5 399.5t-312.5 141.5q-164 0 -292 -149 t-128 -398zM84 1116q0 33 90 203t90 191h216q0 -22 -138 -195t-138 -199h-120z" />
<glyph unicode="&#x38e;" horiz-adv-x="1549" d="M444 1302h205q0 -26 172.5 -318.5t172.5 -386.5h10q0 95 164.5 380t164.5 325h194q0 -37 -123 -216q-174 -253 -227 -344q-123 -209 -123 -318q0 -206 14 -424h-192q13 207 13 426q0 120 -115 333q-65 119 -215 344q-115 174 -115 199zM84 1116q0 33 90 203t90 191h216 q0 -22 -138 -195t-138 -199h-120z" />
<glyph unicode="&#x38f;" horiz-adv-x="1661" d="M84 1116q0 33 90 203t90 191h216q0 -22 -138 -195t-138 -199h-120zM315 153q196 -21 357 -21v11q0 30 -77 104q-98 96 -159 202t-61 264q0 288 177.5 454t426.5 166q238 0 408 -154t170 -421q0 -163 -67.5 -281t-168.5 -221q-82 -84 -82 -111v-11q203 0 378 19l-10 -153 h-541q0 168 167 346q151 161 151 372q0 229 -128.5 353.5t-299.5 124.5q-164 0 -285.5 -116.5t-121.5 -330.5q0 -226 160 -405q160 -177 160 -344h-543z" />
<glyph unicode="&#x390;" horiz-adv-x="522" d="M114 388q0 314 15 564l159 21q-21 -210 -21 -630q0 -114 31.5 -169.5t102.5 -55.5q45 0 106 20l-13 -130q-68 -29 -144 -29q-132 0 -184 82t-52 327zM-54 1238q0 44 30.5 77.5t85.5 33.5q45 0 69.5 -28.5t24.5 -69.5q0 -46 -30.5 -80.5t-84.5 -34.5q-45 0 -70 30t-25 72z M187 1254q0 33 85 203t85 191h216q0 -22 -143 -195t-143 -199h-100zM364 1238q0 44 30.5 77.5t85.5 33.5q45 0 69.5 -28.5t24.5 -69.5q0 -46 -30.5 -80.5t-84.5 -34.5q-45 0 -70 30t-25 72z" />
<glyph unicode="&#x391;" horiz-adv-x="1262" d="M11 0q0 37 258 639.5t258 662.5h232q0 -59 246 -653t246 -649h-211q0 67 -126 421h-577q-124 -349 -124 -421h-202zM379 552h489q-235 587 -235 624h-11q0 -31 -243 -624z" />
<glyph unicode="&#x392;" horiz-adv-x="1200" d="M188 0q14 310 14 684q0 352 -14 618h120q35 0 141 3t154 3q416 0 416 -287q0 -224 -197 -298v-10q279 -50 279 -316q0 -194 -165 -300q-161 -103 -442 -103q-78 0 -306 6zM345 1163q8 -72 8 -407q49 -2 108 -2q198 0 288 45q102 50 102 172q0 207 -279 207 q-140 0 -227 -15zM355 620q0 -267 11 -477q38 -9 134 -9q241 0 342 63q90 57 90 183q0 246 -436 246q-80 0 -141 -6z" />
<glyph unicode="&#x393;" horiz-adv-x="966" d="M188 0q14 310 14 684q0 352 -14 618h767l-5 -149q-266 12 -603 12q12 -166 12 -458q0 -420 11 -707h-182z" />
<glyph unicode="&#x394;" horiz-adv-x="1220" d="M11 0q0 43 248 643t248 659h231q0 -59 235.5 -653t235.5 -649h-1198zM236 136h738q-41 148 -213 597q-149 388 -149 443h-10q0 -56 -152 -442q-173 -439 -214 -598z" />
<glyph unicode="&#x395;" horiz-adv-x="1066" d="M188 0q14 310 14 684q0 352 -14 618h756l-8 -149q-275 12 -583 12q6 -155 6 -419q266 0 474 12v-149q-222 9 -474 9q0 -257 9 -482q332 0 632 15l-6 -151h-806z" />
<glyph unicode="&#x396;" horiz-adv-x="1062" d="M99 0l9 120q126 176 367 570q259 425 259 473v11q-219 0 -621 -25l5 153h816l-8 -124q-114 -161 -351 -565q-247 -420 -247 -462v-11q207 0 635 27l-6 -167h-858z" />
<glyph unicode="&#x397;" horiz-adv-x="1335" d="M188 0q14 365 14 684q0 334 -14 618h190q-12 -286 -12 -556h603q0 217 -12 556h190q-15 -278 -15 -618q0 -373 15 -684h-190q10 346 10 620h-599q0 -222 10 -620h-190z" />
<glyph unicode="&#x398;" horiz-adv-x="1421" d="M99 618q0 327 189 518.5t437 191.5q238 0 417.5 -177.5t179.5 -479.5q0 -323 -189 -516.5t-437 -193.5q-238 0 -417.5 177.5t-179.5 479.5zM276 645q0 -259 136.5 -400.5t312.5 -141.5q164 0 291.5 151t127.5 397q0 258 -135.5 399.5t-312.5 141.5q-164 0 -292 -149 t-128 -398zM502 589v163q120 -10 214 -10q103 0 205 10v-163q-101 10 -209 10q-96 0 -210 -10z" />
<glyph unicode="&#x399;" horiz-adv-x="478" d="M145 0q15 324 15 684q0 354 -15 618h190q-14 -273 -14 -618q0 -362 14 -684h-190z" />
<glyph unicode="&#x39a;" horiz-adv-x="1212" d="M188 0q15 310 15 684q0 352 -15 618h188q-10 -266 -10 -540h23q55 0 274.5 255t219.5 285h208q0 -30 -213.5 -247.5t-317.5 -292.5v-10q115 -44 383 -397q247 -325 247 -355h-219q0 11 -114 174q-132 189 -241 312q-148 167 -219 167h-31q0 -234 10 -653h-188z" />
<glyph unicode="&#x39b;" horiz-adv-x="1220" d="M11 0q0 43 248 643t248 659h231q0 -59 235.5 -653t235.5 -649h-211q0 108 -193 615.5t-193 560.5h-10q0 -53 -194.5 -550.5t-194.5 -625.5h-202z" />
<glyph unicode="&#x39c;" horiz-adv-x="1748" d="M144 0q0 10 68 550.5t68 751.5h263q0 -110 160 -550t160 -533h10q0 93 180 534.5t180 548.5h257q0 -211 46 -748t46 -554h-188q0 223 -31 645t-33 506h-10q-100 -325 -253.5 -705.5t-153.5 -445.5h-135q0 70 -143 453.5t-181 513.5t-52 184h-10q-3 -137 -39.5 -553 t-36.5 -598h-172z" />
<glyph unicode="&#x39d;" horiz-adv-x="1380" d="M188 0q17 325 17 684q0 353 -17 618h192q0 -28 302 -456q316 -450 360 -586h10q-17 244 -17 414q0 370 -14 628h171q-17 -265 -17 -618q0 -359 17 -684h-140q0 17 -328 479q-343 485 -391 612h-10q18 -241 18 -413q0 -336 15 -678h-168z" />
<glyph unicode="&#x39e;" horiz-adv-x="1078" d="M66 0l6 167q225 -14 490 -14q238 0 450 14l-6 -167h-940zM97 1138l6 164h890l-6 -164q-228 13 -454 13q-232 0 -436 -13zM225 599v159q180 -12 334 -12q153 0 302 12v-159q-130 8 -302 8t-334 -8z" />
<glyph unicode="&#x39f;" horiz-adv-x="1421" d="M99 618q0 327 189 518.5t437 191.5q238 0 417.5 -177.5t179.5 -479.5q0 -323 -189 -516.5t-437 -193.5q-238 0 -417.5 177.5t-179.5 479.5zM276 642q0 -259 136.5 -400.5t312.5 -141.5q164 0 291.5 151t127.5 397q0 258 -135.5 399.5t-312.5 141.5q-164 0 -292 -149 t-128 -398z" />
<glyph unicode="&#x3a0;" horiz-adv-x="1341" d="M188 0q12 396 12 692q0 280 -12 610h965q-12 -319 -12 -610q0 -303 12 -692h-184q10 280 10 657q0 299 17 519h-651q17 -210 17 -502q0 -381 10 -674h-184z" />
<glyph unicode="&#x3a1;" horiz-adv-x="1132" d="M188 0q15 284 15 684q0 344 -15 618h143q23 0 131.5 3t184.5 3q192 0 305.5 -87.5t113.5 -241.5q0 -228 -173 -341t-465 -113q-37 0 -64 2q0 -218 16 -527h-192zM355 1163q7 -163 7 -508q35 -2 86 -2q451 0 451 268q0 257 -351 257q-86 0 -193 -15z" />
<glyph unicode="&#x3a3;" horiz-adv-x="1079" d="M22 0q0 74 503 673v10q-476 521 -476 619h932l-6 -149q-368 15 -616 15v-11q0 -49 378 -432q-439 -504 -439 -562v-10q392 0 737 24l-8 -177h-1005z" />
<glyph unicode="&#x3a4;" horiz-adv-x="1043" d="M22 1159l5 143h994l-5 -141q-198 10 -409 10q-2 -192 -2 -487q0 -326 10 -684h-183q12 341 12 684q0 291 -6 487q-148 0 -416 -12z" />
<glyph unicode="&#x3a5;" horiz-adv-x="1127" d="M22 1302h205q0 -26 172.5 -318.5t172.5 -386.5h10q0 95 164.5 380t164.5 325h194q0 -37 -123 -216q-174 -253 -227 -344q-123 -209 -123 -318q0 -206 14 -424h-192q13 207 13 426q0 120 -115 333q-65 119 -215 344q-115 174 -115 199z" />
<glyph unicode="&#x3a6;" horiz-adv-x="1429" d="M69 641q0 244 156.5 410t398.5 201l-4 90h190q-1 -15 -4 -85q243 -21 398.5 -177.5t155.5 -399.5q0 -232 -157 -390.5t-398 -192.5l5 -137h-190q1 24 5 131q-243 19 -399.5 169t-156.5 381zM232 694q0 -193 111.5 -322.5t284.5 -160.5q7 191 7 473q0 242 -7 450 q-174 -22 -285 -139t-111 -301zM796 684q0 -255 6 -477q173 25 284 150.5t111 318.5q0 184 -111 304.5t-284 150.5q-6 -189 -6 -447z" />
<glyph unicode="&#x3a7;" horiz-adv-x="1143" d="M11 0q0 30 211 345q209 312 260 360v10q-54 61 -222 307q-173 254 -173 280h215q0 -30 120 -232q118 -198 169 -258h10q51 62 162 261t111 229h211q0 -28 -183 -270q-177 -232 -241 -297v-10q76 -85 270 -380q201 -305 201 -345h-217q0 39 -150 288q-145 241 -215 326 h-11q-60 -81 -186 -318q-132 -249 -132 -296h-210z" />
<glyph unicode="&#x3a8;" horiz-adv-x="1426" d="M66 1264l127 31q47 -80 66 -291q20 -221 98.5 -324t275.5 -118q0 425 -15 740h190q-14 -321 -14 -740q200 14 278.5 112.5t99.5 329.5q19 211 66 291l122 -31q-35 -143 -35 -320q0 -230 -147 -357t-382 -147q4 -243 12 -440h-190q5 89 13 438q-525 31 -525 467 q0 189 -40 359z" />
<glyph unicode="&#x3a9;" horiz-adv-x="1390" d="M44 153q196 -21 357 -21v11q0 30 -77 104q-98 96 -159 202t-61 264q0 288 177.5 454t426.5 166q238 0 408 -154t170 -421q0 -163 -67.5 -281t-168.5 -221q-82 -84 -82 -111v-11q203 0 378 19l-10 -153h-541q0 168 167 346q151 161 151 372q0 229 -128.5 353.5 t-299.5 124.5q-164 0 -285.5 -116.5t-121.5 -330.5q0 -226 160 -405q160 -177 160 -344h-543z" />
<glyph unicode="&#x3aa;" horiz-adv-x="566" d="M188 0q15 324 15 684q0 354 -15 618h190q-14 -273 -14 -618q0 -362 14 -684h-190zM-8 1546q0 44 30.5 77.5t85.5 33.5q45 0 69.5 -28.5t24.5 -69.5q0 -46 -30.5 -80.5t-84.5 -34.5q-45 0 -70 30t-25 72zM370 1546q0 44 30.5 77.5t85.5 33.5q45 0 69.5 -28.5t24.5 -69.5 q0 -46 -30.5 -80.5t-84.5 -34.5q-45 0 -70 30t-25 72z" />
<glyph unicode="&#x3ab;" horiz-adv-x="1127" d="M22 1302h205q0 -26 172.5 -318.5t172.5 -386.5h10q0 95 164.5 380t164.5 325h194q0 -37 -123 -216q-174 -253 -227 -344q-123 -209 -123 -318q0 -206 14 -424h-192q13 207 13 426q0 120 -115 333q-65 119 -215 344q-115 174 -115 199zM278 1546q0 44 30.5 77.5t85.5 33.5 q45 0 69.5 -28.5t24.5 -69.5q0 -46 -30.5 -80.5t-84.5 -34.5q-45 0 -70 30t-25 72zM656 1546q0 44 30.5 77.5t85.5 33.5q45 0 69.5 -28.5t24.5 -69.5q0 -46 -30.5 -80.5t-84.5 -34.5q-45 0 -70 30t-25 72z" />
<glyph unicode="&#x3ac;" horiz-adv-x="1187" d="M96 434q0 225 116.5 387.5t321.5 162.5q164 0 272 -177h10q10 81 39 164l140 -21q-62 -222 -62 -507q0 -325 119 -325q42 0 95 20l-11 -134q-63 -25 -126 -25q-182 0 -214 226h-10q-110 -244 -338 -244q-166 0 -259 136.5t-93 336.5zM271 476q0 -156 57 -267.5 t156 -111.5q123 0 202 121q86 131 105 385q-108 245 -282 245q-117 0 -177.5 -107.5t-60.5 -264.5zM505 1116q0 33 90 203t90 191h216q0 -22 -138 -195t-138 -199h-120z" />
<glyph unicode="&#x3ad;" horiz-adv-x="940" d="M107 252q0 104 60.5 164.5t140.5 75.5v10q-186 44 -186 209q0 128 108.5 199t308.5 71q165 0 291 -35l-25 -140q-129 45 -276 45q-236 0 -236 -122q0 -160 285 -160q62 0 152 9l-19 -147q-73 12 -133 12q-158 0 -229 -40t-71 -130q0 -164 258 -164q140 0 319 77l-10 -134 q-138 -79 -351 -79q-387 0 -387 279zM488 1116q0 33 90 203t90 191h216q0 -22 -138 -195t-138 -199h-120z" />
<glyph unicode="&#x3ae;" horiz-adv-x="1117" d="M65 902l152 71q24 -28 50 -80t33 -94h11q139 184 342 184q313 0 313 -330q0 -69 -8.5 -203t-8.5 -241q0 -388 34 -639l-166 -25q-27 192 -27 582q0 57 6.5 205.5t6.5 241.5q0 155 -44.5 213t-135.5 58q-177 0 -289 -183q0 -440 -16 -667l-172 10q37 172 37 487 q0 260 -118 410zM517 1116q0 33 90 203t90 191h216q0 -22 -138 -195t-138 -199h-120z" />
<glyph unicode="&#x3af;" horiz-adv-x="522" d="M129 388q0 314 15 564l159 21q-21 -210 -21 -630q0 -114 31.5 -169.5t102.5 -55.5q45 0 106 20l-13 -130q-68 -29 -144 -29q-132 0 -184 82t-52 327zM206 1116q0 33 90 203t90 191h216q0 -22 -138 -195t-138 -199h-120z" />
<glyph unicode="&#x3b0;" horiz-adv-x="1095" d="M103 932l176 41q58 -183 58 -419q0 -292 56.5 -374.5t156.5 -82.5q114 0 180 121.5t66 341.5q0 167 -74 394l107 19q141 -141 141 -378q0 -303 -136 -465.5t-306 -162.5q-165 0 -259.5 94.5t-94.5 337.5q0 341 -71 533zM253 1238q0 44 30.5 77.5t85.5 33.5 q45 0 69.5 -28.5t24.5 -69.5q0 -46 -30.5 -80.5t-84.5 -34.5q-45 0 -70 30t-25 72zM494 1254q0 33 85 203t85 191h216q0 -22 -143 -195t-143 -199h-100zM671 1238q0 44 30.5 77.5t85.5 33.5q45 0 69.5 -28.5t24.5 -69.5q0 -46 -30.5 -80.5t-84.5 -34.5q-45 0 -70 30t-25 72z " />
<glyph unicode="&#x3b1;" horiz-adv-x="1187" d="M96 434q0 225 116.5 387.5t321.5 162.5q164 0 272 -177h10q10 81 39 164l140 -21q-62 -222 -62 -507q0 -325 119 -325q42 0 95 20l-11 -134q-63 -25 -126 -25q-182 0 -214 226h-10q-110 -244 -338 -244q-166 0 -259 136.5t-93 336.5zM271 476q0 -156 57 -267.5 t156 -111.5q123 0 202 121q86 131 105 385q-108 245 -282 245q-117 0 -177.5 -107.5t-60.5 -264.5z" />
<glyph unicode="&#x3b2;" horiz-adv-x="1101" d="M133 728q0 342 66 490q98 218 378 218q154 0 259 -68.5t105 -208.5q0 -215 -228 -280v-10q94 -24 161 -73q160 -117 160 -341q0 -206 -118 -345t-323 -139q-187 0 -264 61h-11q6 -251 74 -465l-200 -44q-59 172 -59 1205zM295 785q0 -274 14 -628q101 -56 295 -56 q117 0 187 92.5t70 228.5q0 163 -104 268q-98 99 -236 99q-43 0 -85 -5l14 140q37 -9 91 -9q100 0 164.5 55.5t64.5 149.5q0 86 -61.5 135t-157.5 49q-146 0 -201 -95.5t-55 -423.5z" />
<glyph unicode="&#x3b3;" horiz-adv-x="1022" d="M28 896l159 75q88 -66 198.5 -281.5t153.5 -560.5h8q2 5 127 288.5t125 553.5l181 -21q0 -204 -207 -596t-212 -404q33 -222 33 -391l-162 -27q-39 73 -39 194q0 125 28 274q-45 512 -393 896z" />
<glyph unicode="&#x3b4;" horiz-adv-x="1125" d="M99 396q0 205 125 346t252 169v10q-258 156 -258 292q0 235 399 235q229 0 379 -69l-36 -152q-170 90 -443 90q-154 0 -154 -87q0 -54 105 -119q298 -190 383 -273q174 -169 174 -375q0 -238 -144.5 -371t-346.5 -133q-184 0 -309.5 116t-125.5 321zM271 436 q0 -162 86 -253.5t207 -91.5q126 0 207 84t81 254q0 241 -287 428q-294 -129 -294 -421z" />
<glyph unicode="&#x3b5;" horiz-adv-x="940" d="M107 252q0 104 60.5 164.5t140.5 75.5v10q-186 44 -186 209q0 128 108.5 199t308.5 71q165 0 291 -35l-25 -140q-129 45 -276 45q-236 0 -236 -122q0 -160 285 -160q62 0 152 9l-19 -147q-73 12 -133 12q-158 0 -229 -40t-71 -130q0 -164 258 -164q140 0 319 77l-10 -134 q-138 -79 -351 -79q-387 0 -387 279z" />
<glyph unicode="&#x3b6;" horiz-adv-x="894" d="M99 420q0 448 468 833v10q-137 -22 -343 -22l16 146q341 0 542 43l35 -117q-547 -351 -547 -849q0 -155 70 -224q59 -56 210 -85q170 -34 236.5 -93.5t66.5 -164.5q0 -128 -107 -263l-79 27q27 95 27 196q0 107 -179 142q-195 38 -283 105q-133 102 -133 316z" />
<glyph unicode="&#x3b7;" horiz-adv-x="1117" d="M65 902l152 71q24 -28 50 -80t33 -94h11q139 184 342 184q313 0 313 -330q0 -69 -8.5 -203t-8.5 -241q0 -388 34 -639l-166 -25q-27 192 -27 582q0 57 6.5 205.5t6.5 241.5q0 155 -44.5 213t-135.5 58q-177 0 -289 -183q0 -440 -16 -667l-172 10q37 172 37 487 q0 260 -118 410z" />
<glyph unicode="&#x3b8;" horiz-adv-x="1177" d="M99 666q0 378 149.5 575t360.5 197q198 0 333.5 -179t135.5 -536q0 -375 -148 -571.5t-362 -196.5q-203 0 -336 179t-133 532zM271 785h630q-36 512 -312 512q-130 0 -218.5 -121t-99.5 -391zM273 641q28 -548 316 -548q315 0 318 548h-634z" />
<glyph unicode="&#x3b9;" horiz-adv-x="522" d="M129 388q0 314 15 564l159 21q-21 -210 -21 -630q0 -114 31.5 -169.5t102.5 -55.5q45 0 106 20l-13 -130q-68 -29 -144 -29q-132 0 -184 82t-52 327z" />
<glyph unicode="&#x3ba;" horiz-adv-x="1117" d="M134 8q54 171 54 484q0 244 -33 448l200 31q-11 -164 -11 -451q0 -102 -11 -204h10q15 37 251 332q223 280 223 323l184 -21q0 -60 -339 -409v-10q339 -449 339 -521l-188 -31q0 63 -259 438h-10q-165 -173 -260 -432z" />
<glyph unicode="&#x3bb;" horiz-adv-x="1055" d="M62 10q0 98 233.5 479.5t246.5 430.5q-17 224 -73 281t-177 57q-73 0 -119 -12l16 146q80 23 166 23q175 0 232.5 -103t82.5 -339q59 -551 213 -768q76 -107 146 -154l-172 -83q-51 32 -103 98q-128 163 -180 684h-10q0 -52 -156 -354.5t-156 -405.5z" />
<glyph unicode="&#x3bc;" horiz-adv-x="1198" d="M160 958l192 13q-14 -134 -14 -349q0 -293 52 -399.5t194 -106.5q143 0 231 114q0 521 -20 720l197 21q-25 -260 -25 -490q0 -228 28 -304q21 -59 79 -59q42 0 96 20l-12 -134q-74 -25 -142 -25q-142 0 -184 121h-12q-125 -121 -258 -121q-196 0 -267 121h-10 q0 -334 121 -513l-159 -75q-71 108 -71 240q0 58 10.5 231t10.5 281q0 376 -37 694z" />
<glyph unicode="&#x3bd;" horiz-adv-x="1022" d="M49 916l159 65q51 -39 173.5 -326t140.5 -486h9q2 27 54 107q69 107 107 233q57 187 57 441l119 21q39 -74 39 -196q0 -167 -96 -336q-42 -74 -173 -262q-92 -131 -102 -177h-114q-16 247 -158 541.5t-215 374.5z" />
<glyph unicode="&#x3be;" horiz-adv-x="915" d="M99 389q0 137 77 240t175 125v10q-159 29 -159 201q0 171 262 298v10q-126 -22 -303 -22l16 146q408 0 615 43l35 -127q-469 -117 -469 -313q0 -80 48.5 -117t173.5 -37q72 0 168 6l-15 -155q-81 12 -153 12q-130 0 -217.5 -83t-87.5 -193q0 -129 64 -187q56 -52 221 -91 q173 -41 238 -98t65 -160q0 -128 -107 -263l-79 27q27 105 27 176q0 121 -179 162q-198 45 -282 104q-134 95 -134 286z" />
<glyph unicode="&#x3bf;" horiz-adv-x="1144" d="M99 446q0 258 147.5 403t346.5 145q186 0 319 -128.5t133 -361.5q0 -256 -147 -399.5t-346 -143.5q-186 0 -319.5 127t-133.5 358zM271 486q0 -157 78.5 -278t224.5 -121q144 0 221 115.5t77 266.5q0 156 -78.5 277.5t-223.5 121.5q-144 0 -221.5 -115t-77.5 -267z" />
<glyph unicode="&#x3c0;" horiz-adv-x="1264" d="M7 857q87 93 279 93q547 0 888 11h2l-6 -164q-139 9 -291 9q-6 -160 -6 -349q0 -339 167 -339q39 0 97 20l-12 -134q-60 -25 -135 -25q-139 0 -207 87t-68 322q0 205 37 409v9h-288q-38 -611 -151 -816l-182 20q47 79 106 261t88 535h-94q-88 0 -185 -42z" />
<glyph unicode="&#x3c1;" horiz-adv-x="1104" d="M119 437q0 547 459 547q202 0 314.5 -139t112.5 -345q0 -213 -115.5 -371t-321.5 -158q-187 0 -264 131h-11q6 -251 84 -535l-200 -44q-58 288 -58 914zM281 503q0 -119 6 -226q98 -176 292 -176q120 0 186.5 107.5t66.5 257.5q0 160 -77 274t-218 114q-256 0 -256 -351z " />
<glyph unicode="&#x3c2;" horiz-adv-x="866" d="M99 461q0 265 135.5 388.5t345.5 123.5q133 0 197 -14l-27 -152q-92 34 -199 34q-131 0 -211 -84.5t-80 -252.5q0 -140 60 -220q50 -66 160 -109q177 -70 240 -130.5t63 -157.5q0 -177 -118 -253l-78 27q37 86 37 165q0 64 -35 102t-144 81q-157 62 -233 140 q-113 117 -113 312z" />
<glyph unicode="&#x3c3;" horiz-adv-x="1185" d="M99 446q0 249 139.5 386t331.5 137q383 0 565 39l41 -117q-177 -71 -365 -71v-20q174 -129 174 -356q0 -219 -134 -351t-330 -132q-186 0 -304 127.5t-118 357.5zM271 486q0 -174 66 -283.5t207 -109.5q138 0 203.5 101t65.5 255q0 209 -129 371q-48 13 -114 13 q-145 0 -222 -93.5t-77 -253.5z" />
<glyph unicode="&#x3c4;" horiz-adv-x="991" d="M7 857q101 93 238 93q398 0 678 11l-7 -161q-93 6 -401 6q-6 -160 -6 -349q0 -339 167 -339q69 0 130 20l-10 -134q-94 -25 -195 -25q-129 0 -189.5 82t-60.5 327q0 205 36 409v9h-166q-88 0 -175 -42z" />
<glyph unicode="&#x3c5;" horiz-adv-x="1095" d="M103 932l176 41q58 -183 58 -419q0 -292 56.5 -374.5t156.5 -82.5q114 0 180 121.5t66 341.5q0 167 -74 394l107 19q141 -141 141 -378q0 -303 -136 -465.5t-306 -162.5q-165 0 -259.5 94.5t-94.5 337.5q0 341 -71 533z" />
<glyph unicode="&#x3c6;" horiz-adv-x="1537" d="M88 494q0 407 432 506l40 -107q-301 -70 -301 -364q0 -176 107 -289.5t308 -135.5q-17 202 -17 396q0 232 111 363t276 131q405 0 405 -420q0 -216 -164.5 -393.5t-439.5 -205.5q3 -67 3 -141q0 -176 -37 -324l-141 6q17 138 17 261q0 110 -5 198q-263 23 -428.5 151.5 t-165.5 367.5zM817 494q0 -251 19 -390q214 24 328 143t114 296q0 143 -58 232t-176 89q-227 0 -227 -370z" />
<glyph unicode="&#x3c7;" horiz-adv-x="1032" d="M29 -457q0 187 413 770q-107 254 -154 350t-97.5 126.5t-112.5 30.5q-26 0 -49 -9l16 143q35 23 86 23q81 0 134.5 -36t109.5 -143t157 -393h11q222 415 222 566l180 -21q0 -165 -361 -693q150 -354 225 -468.5t144 -114.5q47 0 79 12l-16 -146q-55 -23 -136 -23 q-91 0 -167.5 120.5t-221.5 527.5h-10q-272 -504 -272 -642z" />
<glyph unicode="&#x3c8;" horiz-adv-x="1491" d="M124 926l136 43q69 -147 69 -409q0 -207 75 -312.5t277 -125.5q3 209 3 409q0 529 -13 880l172 8q-12 -335 -12 -888q0 -141 2 -407q217 27 295 143t78 367q0 144 -62 314l106 27q130 -149 130 -423q0 -234 -152.5 -384t-392.5 -176q0 -253 8 -428l-172 -41q8 201 8 467 q-246 13 -378 122.5t-132 370.5q0 288 -45 443z" />
<glyph unicode="&#x3c9;" horiz-adv-x="1543" d="M95 431q0 307 281 540l78 -82q-186 -185 -185 -414q1 -151 42 -243q60 -135 217 -135q127 0 188 138v21q-37 108 -37 308q0 196 42 273l92 10q52 -78 52 -293q0 -225 -26 -300v-21q69 -136 194 -136q245 0 245 337q0 233 -196 445l79 82q287 -201 287 -509 q0 -486 -400 -486q-82 0 -165.5 44t-113.5 106h-21q-37 -64 -110 -107t-160 -43q-164 0 -273.5 110.5t-109.5 354.5z" />
<glyph unicode="&#x3ca;" horiz-adv-x="522" d="M129 388q0 314 15 564l159 21q-21 -210 -21 -630q0 -114 31.5 -169.5t102.5 -55.5q45 0 106 20l-13 -130q-68 -29 -144 -29q-132 0 -184 82t-52 327zM-40 1238q0 44 30.5 77.5t85.5 33.5q45 0 69.5 -28.5t24.5 -69.5q0 -46 -30.5 -80.5t-84.5 -34.5q-45 0 -70 30t-25 72z M338 1238q0 44 30.5 77.5t85.5 33.5q45 0 69.5 -28.5t24.5 -69.5q0 -46 -30.5 -80.5t-84.5 -34.5q-45 0 -70 30t-25 72z" />
<glyph unicode="&#x3cb;" horiz-adv-x="1095" d="M103 932l176 41q58 -183 58 -419q0 -292 56.5 -374.5t156.5 -82.5q114 0 180 121.5t66 341.5q0 167 -74 394l107 19q141 -141 141 -378q0 -303 -136 -465.5t-306 -162.5q-165 0 -259.5 94.5t-94.5 337.5q0 341 -71 533zM256 1238q0 44 30.5 77.5t85.5 33.5 q45 0 69.5 -28.5t24.5 -69.5q0 -46 -30.5 -80.5t-84.5 -34.5q-45 0 -70 30t-25 72zM634 1238q0 44 30.5 77.5t85.5 33.5q45 0 69.5 -28.5t24.5 -69.5q0 -46 -30.5 -80.5t-84.5 -34.5q-45 0 -70 30t-25 72z" />
<glyph unicode="&#x3cc;" horiz-adv-x="1144" d="M99 446q0 258 147.5 403t346.5 145q186 0 319 -128.5t133 -361.5q0 -256 -147 -399.5t-346 -143.5q-186 0 -319.5 127t-133.5 358zM271 486q0 -157 78.5 -278t224.5 -121q144 0 221 115.5t77 266.5q0 156 -78.5 277.5t-223.5 121.5q-144 0 -221.5 -115t-77.5 -267z M542 1116q0 33 90 203t90 191h216q0 -22 -138 -195t-138 -199h-120z" />
<glyph unicode="&#x3cd;" horiz-adv-x="1095" d="M103 932l176 41q58 -183 58 -419q0 -292 56.5 -374.5t156.5 -82.5q114 0 180 121.5t66 341.5q0 167 -74 394l107 19q141 -141 141 -378q0 -303 -136 -465.5t-306 -162.5q-165 0 -259.5 94.5t-94.5 337.5q0 341 -71 533zM463 1116q0 33 90 203t90 191h216q0 -22 -138 -195 t-138 -199h-120z" />
<glyph unicode="&#x3ce;" horiz-adv-x="1543" d="M95 431q0 307 281 540l78 -82q-186 -185 -185 -414q1 -151 42 -243q60 -135 217 -135q127 0 188 138v21q-37 108 -37 308q0 196 42 273l92 10q52 -78 52 -293q0 -225 -26 -300v-21q69 -136 194 -136q245 0 245 337q0 233 -196 445l79 82q287 -201 287 -509 q0 -486 -400 -486q-82 0 -165.5 44t-113.5 106h-21q-37 -64 -110 -107t-160 -43q-164 0 -273.5 110.5t-109.5 354.5zM715 1116q0 33 90 203t90 191h216q0 -22 -138 -195t-138 -199h-120z" />
<glyph unicode="&#x3de;" horiz-adv-x="1098" d="M69 705q85 147 165.5 292t163.5 305h195q-87 -140 -168.5 -277t-159.5 -279h707l57 -98q-89 -158 -177.5 -323t-172.5 -325h-201q44 73 90 150.5t92 156.5t91 156.5t87 150.5h-711z" />
<glyph unicode="&#x3df;" horiz-adv-x="970" d="M75 349q69 151 134 305.5t134 317.5l165 -30q-66 -136 -127 -267t-118 -267h592l40 -74q-89 -204 -169.5 -407.5t-158.5 -407.5l-170 34q82 184 161 361t154 360h-598z" />
<glyph unicode="&#x3e0;" horiz-adv-x="1124" d="M20 1284q37 12 73.5 20.5t75 13.5t80.5 7.5t90 2.5q139 0 263.5 -42t218.5 -126.5t149 -211t55 -295.5q0 -100 -17.5 -191t-49.5 -172.5t-76.5 -153.5t-97.5 -136h-197q65 74 113.5 148.5t81 153.5t49 164.5t16.5 181.5q0 14 -0.5 27t-1.5 26l-326 -215l-67 108l369 241 q-25 85 -74 152l-381 -251l-66 110l358 232q-70 56 -160 83.5t-195 27.5q-69 0 -137 -14t-134 -45z" />
<glyph unicode="&#x3e1;" horiz-adv-x="1074" d="M10 1396q37 11 71 19t69 12.5t74 6.5t85 2q144 0 266 -48t211 -145.5t139 -244.5t50 -345q0 -173 -30 -327.5t-82 -293t-122 -262.5t-150 -237l-173 35q92 129 163 252t120.5 248t76 257.5t28.5 279.5l-327 -215l-67 108l389 251q-9 95 -35 178l-440 -287l-66 110 l462 298q-63 128 -177.5 192t-261.5 64q-69 0 -131 -13.5t-128 -44.5z" />
<glyph unicode="&#x400;" horiz-adv-x="1066" d="M188 0q14 310 14 684q0 352 -14 618h756l-8 -149q-275 12 -583 12q6 -155 6 -419q266 0 474 12v-149q-222 9 -474 9q0 -257 9 -482q332 0 632 15l-6 -151h-806zM285 1690h216q0 -11 90 -134.5t90 -139.5h-120q-10 16 -143 139t-133 135z" />
<glyph unicode="&#x401;" horiz-adv-x="1066" d="M188 0q14 310 14 684q0 352 -14 618h756l-8 -149q-275 12 -583 12q6 -155 6 -419q266 0 474 12v-149q-222 9 -474 9q0 -257 9 -482q332 0 632 15l-6 -151h-806zM295 1546q0 44 30.5 77.5t85.5 33.5q45 0 69.5 -28.5t24.5 -69.5q0 -46 -30.5 -80.5t-84.5 -34.5 q-45 0 -70 30t-25 72zM673 1546q0 44 30.5 77.5t85.5 33.5q45 0 69.5 -28.5t24.5 -69.5q0 -46 -30.5 -80.5t-84.5 -34.5q-45 0 -70 30t-25 72z" />
<glyph unicode="&#x402;" horiz-adv-x="1296" d="M22 1159l5 143h983l-5 -141q-223 10 -432 10q-5 -171 -6 -420q43 5 105 5q558 0 558 -353q0 -197 -136.5 -308t-400.5 -111l-13 130q217 0 299 69.5t82 202.5q0 240 -416 240q-29 0 -78 -6q0 -267 8 -620h-183q12 341 12 684q0 291 -6 487q-148 0 -376 -12z" />
<glyph unicode="&#x403;" horiz-adv-x="989" d="M188 0q12 242 12 618q0 437 -12 684h768l-6 -157q-354 10 -599 10q11 -195 11 -537q0 -416 12 -618h-186zM468 1416q0 16 90 139.5t90 134.5h216q0 -12 -133 -135t-143 -139h-120z" />
<glyph unicode="&#x404;" horiz-adv-x="1137" d="M99 622q0 311 167 504.5t494 193.5q157 0 293 -27l-25 -153q-153 40 -301 40q-405 0 -451 -423q312 0 575 3v-152q-311 9 -568 9q11 -259 108 -382t344 -123q126 0 347 51l-14 -153q-223 -37 -362 -37q-337 0 -472 168.5t-135 480.5z" />
<glyph unicode="&#x405;" horiz-adv-x="1047" d="M99 10l35 157q168 -58 319 -58q340 0 340 192q0 97 -88 166q-59 46 -232 123q-182 81 -255 149q-101 94 -101 236q0 148 103 241q115 104 325 104q238 0 326 -31l-24 -159q-152 48 -323 48q-257 0 -257 -172q0 -83 74 -139q48 -35 212 -106q187 -81 270 -154 q125 -110 125 -270q0 -370 -515 -370q-188 0 -334 43z" />
<glyph unicode="&#x406;" horiz-adv-x="566" d="M188 0q15 324 15 684q0 354 -15 618h190q-14 -273 -14 -618q0 -362 14 -684h-190z" />
<glyph unicode="&#x407;" horiz-adv-x="566" d="M188 0q15 324 15 684q0 354 -15 618h190q-14 -273 -14 -618q0 -362 14 -684h-190zM-8 1546q0 44 30.5 77.5t85.5 33.5q45 0 69.5 -28.5t24.5 -69.5q0 -46 -30.5 -80.5t-84.5 -34.5q-45 0 -70 30t-25 72zM370 1546q0 44 30.5 77.5t85.5 33.5q45 0 69.5 -28.5t24.5 -69.5 q0 -46 -30.5 -80.5t-84.5 -34.5q-45 0 -70 30t-25 72z" />
<glyph unicode="&#x408;" horiz-adv-x="818" d="M22 -6l15 146q71 -33 148 -33q86 0 150.5 24.5t103 76.5t55 128t16.5 199q0 454 -15 767h190q-7 -152 -10.5 -337t-3.5 -407q0 -161 -27 -266t-84.5 -177t-147.5 -107t-216 -35q-97 0 -174 21z" />
<glyph unicode="&#x409;" horiz-adv-x="1739" d="M9 163q27 6 61.5 43.5t73.5 97.5t80 138.5t80.5 167t76.5 182.5t67 185t51.5 174.5t31.5 150.5h496q-17 -232 -17 -551q43 5 105 5q558 0 558 -353q0 -191 -158 -300t-429 -109q-78 0 -243 6q10 280 10 657q0 299 7 519h-215q-8 -47 -28 -122.5t-49.5 -167t-67 -193 t-81.5 -200.5t-92.5 -189.5t-99.5 -160.5t-103.5 -113t-104.5 -47zM1010 620q0 -268 10 -487q46 -9 73 -9q236 0 323.5 65.5t87.5 196.5q0 240 -416 240q-29 0 -78 -6z" />
<glyph unicode="&#x40a;" horiz-adv-x="1764" d="M188 0q14 365 14 684q0 334 -14 618h190q-12 -286 -12 -556h508q0 217 -13 556h190q-7 -110 -16 -551q43 5 105 5q558 0 558 -353q0 -191 -158 -300t-429 -109q-78 0 -250 6q13 346 13 620h-506q0 -222 10 -620h-190zM1035 620q0 -268 10 -487q46 -9 73 -9 q236 0 323.5 65.5t87.5 196.5q0 240 -416 240q-29 0 -78 -6z" />
<glyph unicode="&#x40b;" horiz-adv-x="1338" d="M22 1159l5 143h983l-5 -141q-223 10 -433 10q-5 -171 -5 -430q123 15 275 15q388 0 388 -263q0 -272 9 -493h-191q13 166 13 426q0 200 -246 200q-119 0 -248 -16q0 -257 8 -610h-183q12 341 12 684q0 291 -6 487q-148 0 -376 -12z" />
<glyph unicode="&#x40c;" horiz-adv-x="1230" d="M188 0q14 310 14 684q0 352 -14 618h188q-10 -300 -10 -574q49 -3 92 -3q170 0 282 112t163 387q9 50 29 78h172q-11 -28 -37 -109q-64 -229 -140 -340.5t-190 -166.5v-11q127 -45 195 -138.5t178 -416.5q13 -37 43 -120h-207q-8 17 -29 86q-81 319 -171.5 415t-287.5 96 q-60 0 -92 -3q0 -323 10 -594h-188zM542 1416q0 16 90 139.5t90 134.5h216q0 -12 -133 -135t-143 -139h-120z" />
<glyph unicode="&#x40d;" horiz-adv-x="1386" d="M188 0q17 265 17 618q0 359 -17 684h188q-14 -270 -14 -606q0 -172 -9 -382h11q41 100 383 509q310 371 310 479h141q-15 -325 -15 -684q0 -353 15 -618h-190q14 186 14 556q0 170 6 432h-10q-35 -100 -374 -511q-316 -383 -316 -477h-140zM403 1690h216q0 -11 90 -134.5 t90 -139.5h-120q-10 16 -143 139t-133 135z" />
<glyph unicode="&#x40e;" horiz-adv-x="1050" d="M11 1302h207q0 -30 187.5 -374.5t187.5 -384.5h10q276 610 276 759h182q0 -55 -143.5 -399.5t-265 -559t-235.5 -293.5t-314 -79l-8 141q169 0 253.5 53.5t152.5 200.5q0 73 -245 495t-245 441zM256 1671l144 19q0 -200 172 -200q101 0 137 51.5t36 148.5l134 -21 q0 -110 -69.5 -198.5t-237.5 -88.5q-174 0 -245 89.5t-71 199.5z" />
<glyph unicode="&#x40f;" horiz-adv-x="1299" d="M188 0q12 318 12 609q0 303 -12 693h184q-11 -280 -11 -657v-509h577v492q0 381 -10 674h183q-12 -397 -12 -693q0 -280 12 -609h-376q-30 -274 -30 -415h-114q0 127 -30 415h-373z" />
<glyph unicode="&#x410;" horiz-adv-x="1262" d="M11 0q0 37 258 639.5t258 662.5h232q0 -59 246 -653t246 -649h-211q0 67 -126 421h-577q-124 -349 -124 -421h-202zM379 552h489q-235 587 -235 624h-11q0 -31 -243 -624z" />
<glyph unicode="&#x411;" horiz-adv-x="1167" d="M188 0q14 310 14 684q0 352 -14 618h837l-6 -149q-360 12 -668 12q4 -157 4 -409q91 4 168 4q250 0 381 -56q197 -85 197 -307q0 -194 -163 -298.5t-444 -104.5q-78 0 -306 6zM355 620q0 -267 11 -477q38 -9 134 -9q242 0 337 60t95 186q0 246 -436 246q-80 0 -141 -6z " />
<glyph unicode="&#x412;" horiz-adv-x="1200" d="M188 0q14 310 14 684q0 352 -14 618h120q35 0 141 3t154 3q416 0 416 -287q0 -224 -197 -298v-10q279 -50 279 -316q0 -194 -165 -300q-161 -103 -442 -103q-78 0 -306 6zM345 1163q8 -72 8 -407q49 -2 108 -2q198 0 288 45q102 50 102 172q0 207 -279 207 q-140 0 -227 -15zM355 620q0 -267 11 -477q38 -9 134 -9q241 0 342 63q90 57 90 183q0 246 -436 246q-80 0 -141 -6z" />
<glyph unicode="&#x413;" horiz-adv-x="989" d="M188 0q12 242 12 618q0 437 -12 684h768l-6 -157q-354 10 -599 10q11 -195 11 -537q0 -416 12 -618h-186z" />
<glyph unicode="&#x414;" horiz-adv-x="1329" d="M10 136h96q171 520 469 1166h510q-12 -319 -12 -610q0 -294 18 -556h194q0 -59 -28 -253t-28 -298h-119q0 127 -4 420q-159 10 -472 10q-267 0 -450 -10q-54 -293 -54 -420h-114q0 103 -3 296.5t-3 254.5zM261 136h662q-12 192 -12 521q0 299 -4 519h-245 q-302 -710 -401 -1040z" />
<glyph unicode="&#x415;" horiz-adv-x="1066" d="M188 0q14 310 14 684q0 352 -14 618h756l-8 -149q-275 12 -583 12q6 -155 6 -419q266 0 474 12v-149q-222 9 -474 9q0 -257 9 -482q332 0 632 15l-6 -151h-806z" />
<glyph unicode="&#x416;" horiz-adv-x="1750" d="M77 0q15 40 43 120q110 321 178.5 415.5t194.5 139.5v11q-118 56 -190 160t-140 347q-14 50 -37 109h182q9 -12 29 -78q52 -280 160.5 -389.5t279.5 -109.5q10 0 17 3q0 274 -10 574h182q-10 -300 -10 -574q12 -3 22 -3q170 0 282 112t163 387q9 50 29 78h172 q-11 -28 -37 -109q-64 -229 -140 -340.5t-190 -166.5v-11q127 -45 195 -138.5t178 -416.5q13 -37 43 -120h-207q-8 17 -29 86q-81 319 -171.5 415t-287.5 96q-14 0 -22 -3q0 -323 10 -594h-182q10 271 10 594q-18 3 -32 3q-197 0 -287.5 -96t-171.5 -415q-12 -49 -29 -86 h-197z" />
<glyph unicode="&#x417;" horiz-adv-x="1091" d="M66 31l25 159q192 -81 393 -81q338 0 338 253q0 129 -117.5 188.5t-300.5 59.5q-86 0 -158 -5l23 149q59 -5 162 -5q332 0 332 230q0 199 -302 199q-194 0 -338 -60l24 155q133 47 396 47q193 0 290 -83.5t97 -211.5q0 -215 -217 -302v-10q279 -54 279 -327 q0 -187 -140.5 -303t-367.5 -116q-244 0 -418 64z" />
<glyph unicode="&#x418;" horiz-adv-x="1386" d="M188 0q17 265 17 618q0 359 -17 684h188q-14 -270 -14 -606q0 -172 -9 -382h11q41 100 383 509q310 371 310 479h141q-15 -325 -15 -684q0 -353 15 -618h-190q14 186 14 556q0 170 6 432h-10q-35 -100 -374 -511q-316 -383 -316 -477h-140z" />
<glyph unicode="&#x419;" horiz-adv-x="1386" d="M188 0q17 265 17 618q0 359 -17 684h188q-14 -270 -14 -606q0 -172 -9 -382h11q41 100 383 509q310 371 310 479h141q-15 -325 -15 -684q0 -353 15 -618h-190q14 186 14 556q0 170 6 432h-10q-35 -100 -374 -511q-316 -383 -316 -477h-140zM389 1671l144 19 q0 -200 172 -200q101 0 137 51.5t36 148.5l134 -21q0 -110 -69.5 -198.5t-237.5 -88.5q-174 0 -245 89.5t-71 199.5z" />
<glyph unicode="&#x41a;" horiz-adv-x="1230" d="M188 0q14 310 14 684q0 352 -14 618h188q-10 -300 -10 -574q49 -3 92 -3q170 0 282 112t163 387q9 50 29 78h172q-11 -28 -37 -109q-64 -229 -140 -340.5t-190 -166.5v-11q127 -45 195 -138.5t178 -416.5q13 -37 43 -120h-207q-8 17 -29 86q-81 319 -171.5 415t-287.5 96 q-60 0 -92 -3q0 -323 10 -594h-188z" />
<glyph unicode="&#x41b;" horiz-adv-x="1257" d="M9 163q27 6 61.5 43.5t73.5 97.5t80 138.5t80.5 167t76.5 182.5t67 185t51.5 174.5t31.5 150.5h538q-12 -319 -12 -610q0 -366 12 -692h-184q11 280 11 657q0 299 -4 519h-247q-8 -47 -28 -122.5t-49.5 -167t-67 -193t-81.5 -200.5t-92.5 -189.5t-99.5 -160.5 t-103.5 -113t-104.5 -47z" />
<glyph unicode="&#x41c;" horiz-adv-x="1748" d="M144 0q0 10 68 550.5t68 751.5h263q0 -110 160 -550t160 -533h10q0 93 180 534.5t180 548.5h257q0 -211 46 -748t46 -554h-188q0 223 -31 645t-33 506h-10q-100 -325 -253.5 -705.5t-153.5 -445.5h-135q0 70 -143 453.5t-181 513.5t-52 184h-10q-3 -137 -39.5 -553 t-36.5 -598h-172z" />
<glyph unicode="&#x41d;" horiz-adv-x="1335" d="M188 0q14 365 14 684q0 334 -14 618h190q-12 -286 -12 -556h603q0 217 -12 556h190q-15 -278 -15 -618q0 -373 15 -684h-190q10 346 10 620h-599q0 -222 10 -620h-190z" />
<glyph unicode="&#x41e;" horiz-adv-x="1421" d="M99 618q0 327 189 518.5t437 191.5q238 0 417.5 -177.5t179.5 -479.5q0 -323 -189 -516.5t-437 -193.5q-238 0 -417.5 177.5t-179.5 479.5zM276 642q0 -259 136.5 -400.5t312.5 -141.5q164 0 291.5 151t127.5 397q0 258 -135.5 399.5t-312.5 141.5q-164 0 -292 -149 t-128 -398z" />
<glyph unicode="&#x41f;" horiz-adv-x="1279" d="M188 0q13 396 13 692q0 280 -13 610h903q-12 -319 -12 -610q0 -303 12 -692h-184q10 280 10 657q0 299 17 519h-589q17 -210 17 -502q0 -381 10 -674h-184z" />
<glyph unicode="&#x420;" horiz-adv-x="1132" d="M188 0q15 284 15 684q0 344 -15 618h143q23 0 131.5 3t184.5 3q192 0 305.5 -87.5t113.5 -241.5q0 -228 -173 -341t-465 -113q-37 0 -64 2q0 -218 16 -527h-192zM355 1163q7 -163 7 -508q35 -2 86 -2q451 0 451 268q0 257 -351 257q-86 0 -193 -15z" />
<glyph unicode="&#x421;" horiz-adv-x="1125" d="M99 622q0 285 193 491.5t519 206.5q90 0 190 -27l-28 -159q-115 36 -205 36q-242 0 -367 -150t-125 -367q0 -221 144 -379t398 -158q97 0 252 43l-13 -149q-123 -37 -268 -37q-344 0 -517 188.5t-173 460.5z" />
<glyph unicode="&#x422;" horiz-adv-x="1043" d="M22 1159l5 143h994l-5 -141q-198 10 -409 10q-2 -192 -2 -487q0 -326 10 -684h-183q12 341 12 684q0 291 -6 487q-148 0 -416 -12z" />
<glyph unicode="&#x423;" horiz-adv-x="1050" d="M11 1302h207q0 -30 187.5 -374.5t187.5 -384.5h10q276 610 276 759h182q0 -55 -143.5 -399.5t-265 -559t-235.5 -293.5t-314 -79l-8 141q169 0 253.5 53.5t152.5 200.5q0 73 -245 495t-245 441z" />
<glyph unicode="&#x424;" horiz-adv-x="1396" d="M66 673q0 206 134.5 349.5t415.5 166.5q0 88 -6 164h176q-4 -66 -6 -164q287 -15 418.5 -142t131.5 -321q0 -206 -134.5 -349.5t-415.5 -166.5q0 -77 6 -210h-176q6 109 6 210q-287 15 -418.5 142t-131.5 321zM228 704q0 -336 392 -375q4 178 4 349q0 184 -4 392 q-392 -33 -392 -366zM771 721q0 -184 5 -392q392 33 392 366q0 336 -392 375q-5 -178 -5 -349z" />
<glyph unicode="&#x425;" horiz-adv-x="1143" d="M11 0q0 30 211 345q209 312 260 360v10q-54 61 -222 307q-173 254 -173 280h215q0 -30 120 -232q118 -198 169 -258h10q51 62 162 261t111 229h211q0 -28 -183 -270q-177 -232 -241 -297v-10q76 -85 270 -380q201 -305 201 -345h-217q0 39 -150 288q-145 241 -215 326 h-11q-60 -81 -186 -318q-132 -249 -132 -296h-210z" />
<glyph unicode="&#x426;" horiz-adv-x="1304" d="M188 0q12 318 12 609q0 303 -12 693h184q-10 -280 -10 -657v-509h535v492q0 381 -11 674h184q-12 -397 -12 -693q0 -259 8 -473h194q0 -61 -23 -254.5t-23 -296.5h-124q0 127 -3 415h-899z" />
<glyph unicode="&#x427;" horiz-adv-x="1245" d="M111 1302h185q-13 -122 -13 -214q0 -260 72.5 -332.5t274.5 -72.5q152 0 251 30q0 338 -14 589h190q-15 -273 -15 -618q0 -362 15 -684h-190q14 265 14 583q-139 -33 -341 -33q-213 0 -317 93.5t-104 381.5q0 116 -8 277z" />
<glyph unicode="&#x428;" horiz-adv-x="1828" d="M188 0q12 318 12 609q0 303 -12 693h184q-11 -280 -11 -657v-509h471v492q0 381 -10 674h184q-10 -280 -10 -657v-509h471v492q0 381 -11 674h184q-12 -397 -12 -693q0 -280 12 -609h-1452z" />
<glyph unicode="&#x429;" horiz-adv-x="1877" d="M188 0q12 318 12 609q0 303 -12 693h184q-11 -280 -11 -657v-509h472v492q0 381 -11 674h184q-10 -280 -10 -657v-509h471v492q0 381 -10 674h183q-12 -397 -12 -693q0 -164 8 -473h197q0 -60 -23.5 -254t-23.5 -297h-124q0 127 -3 415h-1471z" />
<glyph unicode="&#x42a;" horiz-adv-x="1371" d="M22 1159l5 143h597q-7 -87 -15 -505q63 5 128 5q568 0 568 -374q0 -198 -161 -316t-436 -118q-90 0 -274 6q14 310 14 684q0 299 12 487q-146 0 -438 -12zM609 661q0 -267 6 -518q56 -9 100 -9q235 0 328 72t93 205q0 256 -426 256q-46 0 -101 -6z" />
<glyph unicode="&#x42b;" horiz-adv-x="1620" d="M188 0q15 310 15 684q0 352 -15 618h190q-6 -87 -14 -505q66 5 128 5q568 0 568 -385q0 -197 -160 -310t-437 -113q-78 0 -275 6zM364 661q0 -267 6 -518q50 -9 99 -9q237 0 329.5 68t92.5 199q0 266 -426 266q-52 0 -101 -6zM1242 0q14 324 14 684q0 354 -14 618h190 q-15 -273 -15 -618q0 -362 15 -684h-190z" />
<glyph unicode="&#x42c;" horiz-adv-x="1165" d="M188 0q15 310 15 684q0 352 -15 618h190q-6 -87 -14 -505q105 5 167 5q568 0 568 -385q0 -197 -160 -310t-437 -113q-78 0 -314 6zM364 661q0 -267 10 -518q62 -9 134 -9q237 0 329.5 68t92.5 199q0 266 -426 266q-80 0 -140 -6z" />
<glyph unicode="&#x42d;" horiz-adv-x="1139" d="M55 0l24 153q165 -39 313 -39q231 0 352.5 136.5t126.5 360.5q-258 0 -577 -3v150q318 -8 577 -8q-47 432 -478 432q-134 0 -326 -52l15 153q173 37 343 37q327 0 471 -167t144 -482q0 -306 -170.5 -502t-501.5 -196q-157 0 -313 27z" />
<glyph unicode="&#x42e;" horiz-adv-x="1898" d="M188 0q15 324 15 684q0 354 -15 618h190q-6 -110 -14 -556h261q36 277 205.5 429.5t391.5 152.5q238 0 407.5 -174t169.5 -483q0 -332 -177 -521t-428 -189q-278 0 -427.5 192t-149.5 467h-253q1 -332 14 -620h-190zM790 642q0 -262 126 -402t306 -140q167 0 283 147.5 t116 400.5q0 263 -125 402t-302 139q-165 0 -284.5 -147.5t-119.5 -399.5z" />
<glyph unicode="&#x42f;" horiz-adv-x="1218" d="M44 0q12 30 38 100q99 290 161.5 378.5t180.5 122.5v11q-295 62 -295 343q0 353 488 353q73 0 163 -3t109 -3h141q-15 -266 -15 -618q0 -374 15 -684h-186q12 233 12 556q-66 2 -151 2q-183 0 -273 -94t-167 -398q-13 -53 -24 -66h-197zM301 969q0 -281 422 -281 q85 0 133 2q0 225 -12 473q-153 13 -241 13q-163 0 -232.5 -48.5t-69.5 -158.5z" />
<glyph unicode="&#x430;" horiz-adv-x="1005" d="M88 235q0 154 130 247.5t483 98.5q3 24 3 55q0 123 -65.5 164t-198.5 41q-157 0 -309 -39l17 138q150 43 345 43q178 0 275 -73.5t97 -250.5q0 -47 -4.5 -170.5t-4.5 -164.5q0 -182 27 -324l-157 -6q-12 49 -12 93h-10q-123 -112 -335 -112q-115 0 -198 67.5t-83 192.5z M251 248q0 -136 192 -136q165 0 263 82q-5 152 -5 273q-188 0 -286 -28q-164 -50 -164 -191z" />
<glyph unicode="&#x431;" horiz-adv-x="1144" d="M108 665q0 375 165 546q133 138 408 167q155 17 341 43l-9 -160q-85 -5 -352 -34q-204 -27 -284 -99q-109 -97 -109 -339h10q124 143 336 143q192 0 322 -110t130 -339q0 -252 -150 -387t-354 -135q-270 0 -374 207q-80 157 -80 497zM271 661q2 -304 77 -439t237 -135 q141 0 224.5 107t83.5 254q0 153 -77.5 255.5t-224.5 102.5q-207 0 -320 -145z" />
<glyph unicode="&#x432;" horiz-adv-x="1022" d="M111 950h104q149 11 303 11q356 0 356 -220q0 -162 -145 -222v-10q188 -36 188 -228q0 -140 -114 -213.5t-325 -73.5q-112 0 -346 6q14 137 14 459q0 299 -35 491zM285 829q8 -145 8 -279q125 -5 211 -5q103 0 161 44q55 41 55 109q0 140 -204 140q-100 0 -231 -9z M293 425q0 -178 2 -296q91 -12 218 -12q242 0 242 154q0 103 -94 139q-58 22 -181 22q-94 0 -187 -7z" />
<glyph unicode="&#x433;" horiz-adv-x="780" d="M111 0q15 200 15 457q0 289 -15 493h649l-6 -154q-175 17 -484 17q5 -201 5 -356q0 -240 14 -457h-178z" />
<glyph unicode="&#x434;" horiz-adv-x="1153" d="M36 128h99q101 363 347 822h289l135 19q-13 -209 -13 -512q0 -122 18 -329h187q0 -52 -23.5 -245t-23.5 -298h-119q0 127 -3 420q-136 6 -384 6q-159 0 -340 -6q-47 -293 -47 -420h-119q0 90 -1.5 254.5t-1.5 288.5zM280 128h478q-11 195 -11 329q0 200 -8 368h-174 q-62 -112 -147 -299.5t-138 -397.5z" />
<glyph unicode="&#x435;" horiz-adv-x="1051" d="M99 461q0 218 124.5 375.5t334.5 157.5q193 0 293.5 -114t100.5 -293q0 -42 -4 -116l-687 -12q10 -146 113 -244.5t273 -98.5q152 0 285 37l-17 -141q-98 -39 -283 -39q-260 0 -396.5 142t-136.5 346zM267 574l518 11q0 281 -235 281q-240 0 -283 -292z" />
<glyph unicode="&#x436;" horiz-adv-x="1466" d="M78 0q12 26 44 110q59 172 122.5 261t158.5 117v10q-142 54 -256 367q-13 36 -34 85h170q8 -11 22 -46q90 -362 312 -362q25 0 40 2q0 233 -13 406h178q-13 -173 -13 -406q20 -2 45 -2q222 0 312 362q6 23 22 46h165q-10 -23 -34 -85q-114 -313 -256 -367v-10 q95 -28 158.5 -117t122.5 -261q18 -53 44 -110h-181q-8 14 -24 52q-64 209 -137 290t-192 81q-24 0 -45 -2q0 -231 15 -421h-182q15 190 15 421q-29 2 -53 2q-119 0 -192 -81t-137 -290q-7 -22 -24 -52h-173z" />
<glyph unicode="&#x437;" horiz-adv-x="898" d="M68 14l17 135q119 -50 305 -50q253 0 253 164q0 167 -301 167q-91 0 -171 -6l17 132q82 -6 159 -6q269 0 269 165q0 133 -236 133q-163 0 -283 -41l17 133q126 43 287 43q365 0 365 -221q0 -166 -154 -232v-10q69 -13 121 -65q67 -67 67 -171q0 -152 -123.5 -231.5 t-286.5 -79.5q-180 0 -322 41z" />
<glyph unicode="&#x438;" horiz-adv-x="1083" d="M111 942l198 27q-13 -185 -13 -471q0 -101 -6 -256h10q23 63 272 362q234 281 234 338l142 27q-12 -209 -12 -512q0 -240 14 -457h-179q15 171 15 457q0 81 10 243h-10q-21 -69 -273 -363q-239 -281 -239 -337h-142q14 200 14 457q0 289 -35 485z" />
<glyph unicode="&#x439;" horiz-adv-x="1083" d="M111 942l198 27q-13 -185 -13 -471q0 -101 -6 -256h10q23 63 272 362q234 281 234 338l142 27q-12 -209 -12 -512q0 -240 14 -457h-179q15 171 15 457q0 81 10 243h-10q-21 -69 -273 -363q-239 -281 -239 -337h-142q14 200 14 457q0 289 -35 485zM240 1378l144 19 q0 -200 172 -200q101 0 137 51.5t36 148.5l134 -21q0 -110 -69.5 -198.5t-237.5 -88.5q-174 0 -245 89.5t-71 199.5z" />
<glyph unicode="&#x43a;" horiz-adv-x="999" d="M111 942l198 27q-13 -192 -13 -425q60 -2 106 -2q222 0 312 362q6 23 22 46h165q-10 -23 -34 -85q-114 -313 -256 -367v-10q95 -28 158.5 -117t122.5 -261q18 -53 44 -110h-181q-8 14 -24 52q-64 209 -137 290t-192 81q-41 0 -106 -2q0 -231 15 -421h-179q15 200 15 457 q0 289 -36 485z" />
<glyph unicode="&#x43b;" horiz-adv-x="1023" d="M9 143q25 2 58.5 32.5t71 85t77 129.5t77.5 164t72.5 189.5t60.5 206.5h328l135 19q-13 -209 -13 -512q0 -240 14 -457h-174q14 180 14 437q0 203 -8 388h-199q-29 -112 -65 -218.5t-77 -200t-86 -171.5t-91 -134t-93 -87t-92 -31z" />
<glyph unicode="&#x43c;" horiz-adv-x="1398" d="M133 0q0 29 37 425.5t37 524.5h244q0 -122 127 -425t127 -345h11q0 41 138 342.5t138 427.5h238q0 -128 17.5 -517.5t17.5 -432.5h-169q0 188 -2 466.5t-2 337.5h-13q-26 -76 -115 -285q-217 -458 -217 -519h-137q0 87 -177 508q-42 99 -108 296h-12q0 -65 -14.5 -385 t-14.5 -419h-151z" />
<glyph unicode="&#x43d;" horiz-adv-x="1065" d="M111 942l194 27q-5 -72 -13 -401h477q-6 224 -33 374l194 27q-13 -209 -13 -512q0 -240 15 -457h-175q13 191 14 440h-479q0 -224 15 -440h-175q15 200 15 457q0 289 -36 485z" />
<glyph unicode="&#x43e;" horiz-adv-x="1144" d="M99 446q0 258 147.5 403t346.5 145q186 0 319 -128.5t133 -361.5q0 -256 -147 -399.5t-346 -143.5q-186 0 -319.5 127t-133.5 358zM271 486q0 -157 78.5 -278t224.5 -121q144 0 221 115.5t77 266.5q0 156 -78.5 277.5t-223.5 121.5q-144 0 -221.5 -115t-77.5 -267z" />
<glyph unicode="&#x43f;" horiz-adv-x="1034" d="M111 942l197 8h452l139 19q-13 -209 -13 -512q0 -240 15 -457h-178q14 200 14 457q0 155 -2 365h-438q-2 -167 -2 -365q0 -240 15 -457h-178q15 200 15 457q0 289 -36 485z" />
<glyph unicode="&#x440;" horiz-adv-x="1138" d="M111 946l176 25l15 -99h10q97 113 314 113q191 0 302 -139.5t111 -331.5q0 -216 -123.5 -378.5t-343.5 -162.5q-184 0 -242 66h-10q0 -278 6 -496h-188q23 266 23 657q0 482 -50 746zM306 740q16 -336 16 -577q81 -68 211 -68q165 0 246.5 116t81.5 279q0 148 -78 253.5 t-219 105.5q-180 0 -258 -109z" />
<glyph unicode="&#x441;" horiz-adv-x="925" d="M99 461q0 214 144 368t381 154q119 0 194 -24l-27 -157q-105 39 -213 39q-142 0 -226 -99t-84 -248q0 -162 100 -270t283 -108q75 0 208 37l-10 -134q-81 -46 -217 -46q-259 0 -396 143t-137 345z" />
<glyph unicode="&#x442;" horiz-adv-x="902" d="M44 801l6 149h808l-6 -149q-163 16 -320 16q-4 -139 -4 -360q0 -240 15 -457h-182q14 200 14 457q0 215 -8 360q-156 0 -323 -16z" />
<glyph unicode="&#x443;" horiz-adv-x="952" d="M44 950h207q0 -27 126 -364t126 -415h10q0 65 106.5 377t106.5 402h182q0 -64 -151 -408q-173 -393 -215 -554q-69 -261 -128 -332q-80 -98 -285 -98l-8 140q125 0 208 85t83 213q0 111 -184 528t-184 426z" />
<glyph unicode="&#x444;" horiz-adv-x="1363" d="M99 443q0 496 506 544q0 225 -17 379l185 31q-15 -158 -15 -410q230 -8 368 -111.5t138 -351.5q0 -486 -506 -544q0 -212 15 -437h-180q12 198 12 437q-239 11 -372.5 114.5t-133.5 348.5zM267 483q0 -202 87.5 -284t250.5 -102v773q-159 -9 -248.5 -92.5t-89.5 -294.5z M758 97q339 38 339 386q0 200 -88.5 283.5t-250.5 103.5v-773z" />
<glyph unicode="&#x445;" horiz-adv-x="1032" d="M55 0q0 29 143 220t231 284v8q-66 73 -198 246.5t-132 191.5h214q0 -24 80.5 -154t134.5 -199h9q49 59 127.5 193t78.5 160h190q0 -17 -135.5 -194.5t-194.5 -236.5v-11q85 -99 229.5 -292t144.5 -216h-217q0 25 -96 170t-169 243h-8q-51 -70 -141 -226.5t-90 -186.5 h-201z" />
<glyph unicode="&#x446;" horiz-adv-x="1094" d="M111 942l201 27q-13 -209 -13 -512q0 -122 -4 -329h424q-4 202 -4 329q0 289 -35 485l198 27q-12 -209 -12 -512q0 -169 10 -329h163q0 -51 -23 -244.5t-23 -298.5h-114q0 127 -3 415h-744q15 200 15 457q0 289 -36 485z" />
<glyph unicode="&#x447;" horiz-adv-x="964" d="M44 946l176 25q-9 -95 -9 -153q0 -181 48 -245.5t168 -64.5q146 0 239 46q-6 232 -30 388l193 27q-12 -209 -12 -512q0 -240 14 -457h-178q15 184 15 436q-114 -63 -281 -63q-169 0 -250 79.5t-81 326.5q0 51 -12 167z" />
<glyph unicode="&#x448;" horiz-adv-x="1533" d="M111 942l196 27q-12 -208 -12 -512q0 -122 -4 -329h395q6 202 6 329q0 289 -35 485l196 27q-13 -208 -13 -512q0 -122 7 -329h394q-4 202 -4 329q0 289 -35 485l196 27q-12 -209 -12 -512q0 -240 14 -457h-1268q14 200 14 457q0 289 -35 485z" />
<glyph unicode="&#x449;" horiz-adv-x="1632" d="M111 942l196 27q-12 -208 -12 -512q0 -122 -5 -329h395q6 202 6 329q0 289 -35 485l196 27q-12 -208 -12 -512q0 -122 6 -329h395q-4 202 -4 329q0 289 -35 485l196 27q-13 -209 -13 -512q0 -180 9 -329h183q0 -55 -23.5 -247t-23.5 -296h-113q0 127 -3 415h-1283 q15 200 15 457q0 289 -35 485z" />
<glyph unicode="&#x44a;" horiz-adv-x="1160" d="M22 804l6 144q267 0 520 21q-29 -194 -29 -379q73 19 138 19q439 0 439 -291q0 -155 -127 -239.5t-286 -84.5q-81 0 -324 6q10 200 10 457q0 141 15 374q-194 -27 -362 -27zM519 473q0 -178 4 -345q80 -12 163 -12q256 0 256 185q0 187 -285 187q-52 0 -138 -15z" />
<glyph unicode="&#x44b;" horiz-adv-x="1312" d="M111 942l188 27q-8 -126 -8 -379q70 19 135 19q428 0 428 -291q0 -155 -123.5 -239.5t-281.5 -84.5q-81 0 -314 6q11 200 11 457q0 289 -35 485zM291 473q0 -178 4 -345q74 -12 157 -12q248 0 248 185q0 187 -274 187q-52 0 -135 -15zM985 942l192 27q-13 -209 -13 -512 q0 -240 15 -457h-173q14 200 14 457q0 289 -35 485z" />
<glyph unicode="&#x44c;" horiz-adv-x="958" d="M111 942l194 27q-9 -126 -9 -379q105 19 170 19q428 0 428 -291q0 -155 -127 -239.5t-286 -84.5q-81 0 -345 6q10 200 10 457q0 289 -35 485zM296 473q0 -178 4 -345q101 -12 184 -12q256 0 256 185q0 187 -274 187q-52 0 -170 -15z" />
<glyph unicode="&#x44d;" horiz-adv-x="958" d="M66 4l18 151q127 -48 311 -48q144 0 224 94.5t80 234.5q-220 0 -472 -8l6 150q250 -10 466 -10q-52 275 -325 275q-135 0 -275 -39l16 138q127 41 273 41q471 0 471 -487q0 -226 -130 -374.5t-374 -148.5q-159 0 -289 31z" />
<glyph unicode="&#x44e;" horiz-adv-x="1530" d="M111 942l197 27q-5 -72 -13 -401h240q32 204 161.5 315t303.5 111q184 0 308 -128t124 -362q0 -255 -137 -399t-337 -144q-185 0 -307 125.5t-124 353.5h-232q0 -224 15 -440h-178q15 200 15 457q0 289 -36 485zM693 486q0 -159 74 -279t214 -120q137 0 209.5 113.5 t72.5 268.5q0 163 -74 281t-212 118t-211 -112t-73 -270z" />
<glyph unicode="&#x44f;" horiz-adv-x="1028" d="M44 0q81 244 136 344t124 113v10q-204 49 -204 218q0 278 355 278q140 0 316 -13l124 21q-14 -213 -14 -512q0 -322 14 -459h-175q8 166 8 397q-84 8 -180 8q-151 0 -202 -65t-135 -340h-167zM261 678q0 -159 288 -159q81 0 179 4q0 194 -8 299q-119 13 -286 13 q-173 0 -173 -157z" />
<glyph unicode="&#x450;" horiz-adv-x="1051" d="M99 461q0 218 124.5 375.5t334.5 157.5q193 0 293.5 -114t100.5 -293q0 -42 -4 -116l-687 -12q10 -146 113 -244.5t273 -98.5q152 0 285 37l-17 -141q-98 -39 -283 -39q-260 0 -396.5 142t-136.5 346zM267 574l518 11q0 281 -235 281q-240 0 -283 -292zM240 1410h216 q0 -11 90 -159.5t90 -164.5h-120q0 16 -138 164t-138 160z" />
<glyph unicode="&#x451;" horiz-adv-x="1051" d="M99 461q0 218 124.5 375.5t334.5 157.5q193 0 293.5 -114t100.5 -293q0 -42 -4 -116l-687 -12q10 -146 113 -244.5t273 -98.5q152 0 285 37l-17 -141q-98 -39 -283 -39q-260 0 -396.5 142t-136.5 346zM267 574l518 11q0 281 -235 281q-240 0 -283 -292zM281 1238 q0 44 30.5 77.5t85.5 33.5q45 0 69.5 -28.5t24.5 -69.5q0 -46 -30.5 -80.5t-84.5 -34.5q-45 0 -70 30t-25 72zM659 1238q0 44 30.5 77.5t85.5 33.5q45 0 69.5 -28.5t24.5 -69.5q0 -46 -30.5 -80.5t-84.5 -34.5q-45 0 -70 30t-25 72z" />
<glyph unicode="&#x452;" horiz-adv-x="1107" d="M0 1096l6 102h130q-7 102 -16 209l188 10q-7 -97 -7 -219h333l-6 -102h-329q-2 -135 -2 -327h10q100 113 317 113q188 0 280 -153.5t92 -393.5q0 -287 -121 -507.5t-336 -284.5l-39 122q156 53 241.5 224.5t85.5 405.5q0 198 -62.5 324.5t-197.5 126.5q-180 0 -264 -112 q0 -546 8 -634h-171q9 264 9 746q0 125 -9 350h-140z" />
<glyph unicode="&#x453;" horiz-adv-x="780" d="M111 0q15 200 15 457q0 289 -15 493h649l-6 -154q-175 17 -484 17q5 -201 5 -356q0 -240 14 -457h-178zM360 1086q0 16 90 164.5t90 159.5h216q0 -12 -138 -160t-138 -164h-120z" />
<glyph unicode="&#x454;" horiz-adv-x="946" d="M99 461q0 237 128.5 379.5t375.5 142.5q159 0 248 -31l-18 -150q-96 47 -280 47q-246 0 -294 -287q218 1 493 8l-6 -140q-268 10 -487 10q15 -326 325 -326q135 0 296 39l-16 -139q-148 -41 -294 -41q-259 0 -365 127.5t-106 360.5z" />
<glyph unicode="&#x455;" horiz-adv-x="858" d="M86 12l31 147q130 -50 282 -50q218 0 218 124q0 60 -48.5 95.5t-160.5 79.5q-142 56 -206 108q-94 77 -94 186q0 114 86 195.5t262 81.5q172 0 276 -29l-31 -144q-108 43 -250 43q-192 0 -192 -111q0 -56 43 -90.5t168 -83.5q135 -53 200 -104q97 -79 97 -189 q0 -292 -373 -292q-165 0 -308 33z" />
<glyph unicode="&#x456;" horiz-adv-x="446" d="M111 942l200 27q-12 -209 -12 -512q0 -240 14 -457h-181q14 200 14 457q0 289 -35 485zM121 1235q0 50 34 87t94 37q49 0 77.5 -32.5t28.5 -76.5q0 -51 -33 -88.5t-93 -37.5q-51 0 -79.5 32.5t-28.5 78.5z" />
<glyph unicode="&#x457;" horiz-adv-x="446" d="M111 942l200 27q-12 -209 -12 -512q0 -240 14 -457h-181q14 200 14 457q0 289 -35 485zM-75 1238q0 44 30.5 77.5t85.5 33.5q45 0 69.5 -28.5t24.5 -69.5q0 -46 -30.5 -80.5t-84.5 -34.5q-45 0 -70 30t-25 72zM303 1238q0 44 30.5 77.5t85.5 33.5q45 0 69.5 -28.5 t24.5 -69.5q0 -46 -30.5 -80.5t-84.5 -34.5q-45 0 -70 30t-25 72z" />
<glyph unicode="&#x458;" horiz-adv-x="446" d="M10 -372q89 75 110 160q31 122 31 520q0 427 -40 638l201 25q-17 -310 -17 -622q0 -83 5.5 -219.5t5.5 -185.5q0 -323 -246 -392zM121 1235q0 50 34 87t94 37q49 0 77.5 -32.5t28.5 -76.5q0 -51 -33 -88.5t-93 -37.5q-51 0 -79.5 32.5t-28.5 78.5z" />
<glyph unicode="&#x459;" horiz-adv-x="1445" d="M9 143q25 2 58.5 32.5t71 85t77 129.5t77.5 164t72.5 189.5t60.5 206.5h290l135 19q-8 -126 -8 -379q45 19 110 19q428 0 428 -291q0 -155 -123.5 -239.5t-281.5 -84.5q-81 0 -294 6q5 200 5 457q0 233 3 368h-167q-29 -112 -65 -218.5t-77 -200t-86 -171.5t-91 -134 t-93 -87t-92 -31zM843 473q0 -178 4 -345q49 -12 132 -12q248 0 248 185q0 187 -274 187q-52 0 -110 -15z" />
<glyph unicode="&#x45a;" horiz-adv-x="1488" d="M111 942l198 27q-5 -72 -13 -401h436q-6 224 -33 374l195 27q-8 -126 -8 -379q45 19 110 19q428 0 428 -291q0 -155 -123.5 -239.5t-281.5 -84.5q-81 0 -294 6q9 191 9 440h-438q0 -224 15 -440h-179q15 200 15 457q0 289 -36 485zM886 473q0 -178 4 -345q49 -12 132 -12 q248 0 248 185q0 187 -274 187q-52 0 -110 -15z" />
<glyph unicode="&#x45b;" horiz-adv-x="1067" d="M0 1096l6 102h130q-7 102 -16 209l185 10q-4 -90 -4 -219h333l-6 -102h-329q-2 -167 -2 -338h6q140 132 311 132q156 0 239.5 -72t83.5 -268q0 -19 -2 -72.5t-2 -72.5q0 -153 4 -405h-172q22 204 22 476q0 160 -53.5 216t-157.5 56q-152 0 -273 -103q0 -413 8 -645h-171 q9 264 9 746q0 144 -9 350h-140z" />
<glyph unicode="&#x45c;" horiz-adv-x="999" d="M111 942l198 27q-13 -192 -13 -425q60 -2 106 -2q222 0 312 362q6 23 22 46h165q-10 -23 -34 -85q-114 -313 -256 -367v-10q95 -28 158.5 -117t122.5 -261q18 -53 44 -110h-181q-8 14 -24 52q-64 209 -137 290t-192 81q-41 0 -106 -2q0 -231 15 -421h-179q15 200 15 457 q0 289 -36 485zM437 1086q0 16 90 164.5t90 159.5h216q0 -12 -138 -160t-138 -164h-120z" />
<glyph unicode="&#x45d;" horiz-adv-x="1083" d="M111 942l198 27q-13 -185 -13 -471q0 -101 -6 -256h10q23 63 272 362q234 281 234 338l142 27q-12 -209 -12 -512q0 -240 14 -457h-179q15 171 15 457q0 81 10 243h-10q-21 -69 -273 -363q-239 -281 -239 -337h-142q14 200 14 457q0 289 -35 485zM277 1410h216 q0 -11 90 -159.5t90 -164.5h-120q0 16 -138 164t-138 160z" />
<glyph unicode="&#x45e;" horiz-adv-x="952" d="M44 950h207q0 -27 126 -364t126 -415h10q0 65 106.5 377t106.5 402h182q0 -64 -151 -408q-173 -393 -215 -554q-69 -261 -128 -332q-80 -98 -285 -98l-8 140q125 0 208 85t83 213q0 111 -184 528t-184 426zM194 1378l144 19q0 -200 172 -200q101 0 137 51.5t36 148.5 l134 -21q0 -110 -69.5 -198.5t-237.5 -88.5q-174 0 -245 89.5t-71 199.5z" />
<glyph unicode="&#x45f;" horiz-adv-x="1026" d="M111 942l201 27q-13 -209 -13 -512q0 -122 -4 -329h435q-4 202 -4 329q0 289 -35 485l200 27q-12 -209 -12 -512q0 -240 14 -457h-304q-26 -274 -26 -415h-113q0 127 -26 415h-292q15 200 15 457q0 289 -36 485z" />
<glyph unicode="&#x462;" horiz-adv-x="1339" d="M22 1039l5 143h381q0 156 -4 244h190q-4 -76 -4 -244h451l-5 -141q-96 4 -449 10q-8 -157 -8 -295q61 4 177 4q224 0 370.5 -83.5t146.5 -279.5q0 -194 -163 -298.5t-444 -104.5q-78 0 -264 6q14 310 14 684q0 151 -6 367q-159 -2 -388 -12zM577 620q0 -267 6 -477 q40 -9 89 -9q242 0 337 60t95 186q0 246 -436 246q-52 0 -91 -6z" />
<glyph unicode="&#x463;" horiz-adv-x="1137" d="M44 812l6 145q182 -11 281 -10q0 279 -27 460l198 10q-21 -134 -24 -470q182 0 398 7l-7 -145q-240 11 -395 11q-1 -152 -1 -250q103 19 168 19q432 0 432 -281q0 -154 -126 -234t-287 -80q-81 0 -345 6q10 200 10 457q0 203 4 362q-112 0 -285 -7zM473 453 q0 -178 4 -322q101 -12 188 -12q256 0 256 172q0 177 -275 177q-57 0 -173 -15z" />
<glyph unicode="&#x472;" horiz-adv-x="1421" d="M99 618q0 327 189 518.5t437 191.5q238 0 417.5 -177.5t179.5 -479.5q0 -323 -189 -516.5t-437 -193.5q-238 0 -417.5 177.5t-179.5 479.5zM271 617q7 -248 143.5 -382.5t310.5 -134.5q160 0 287.5 141t136.5 376h-878zM278 743h865q-26 215 -156.5 330.5t-290.5 115.5 q-147 0 -269 -120t-149 -326z" />
<glyph unicode="&#x473;" horiz-adv-x="1144" d="M99 446q0 254 147.5 401t346.5 147q186 0 319 -131t133 -359q0 -248 -143.5 -395.5t-349.5 -147.5q-196 0 -324.5 132t-128.5 353zM256 445q4 -143 89 -250.5t229 -107.5q150 0 229.5 110t83.5 248h-631zM264 560h610q-21 145 -96 226.5t-208 81.5q-136 0 -212 -82 t-94 -226z" />
<glyph unicode="&#x474;" horiz-adv-x="1178" d="M11 1302h190q0 -72 165 -570t165 -532h10q0 39 21 125t47 171.5t59.5 176.5t73.5 178.5t86.5 168t97.5 145.5t106.5 110.5t113.5 63.5l10 -180q-47 -30 -89.5 -83.5t-88 -123t-88.5 -152t-81 -170t-71 -176t-78.5 -244t-45.5 -210.5h-165q0 55 -219 642.5t-219 659.5z " />
<glyph unicode="&#x475;" horiz-adv-x="995" d="M44 950h194q0 -48 120 -381t120 -381h9q0 48 78 261t141.5 317t131.5 162.5t136 58.5l10 -160q-25 -2 -63 -33t-76 -85.5t-78 -129t-78 -163.5t-85 -216t-47 -200h-176q0 73 -169 490q-168 419 -168 460z" />
<glyph unicode="&#x490;" horiz-adv-x="983" d="M188 0q12 242 12 618q0 437 -12 684h609q15 180 15 268h134q0 -56 2 -213t2 -212q-354 10 -599 10q11 -195 11 -537q0 -416 12 -618h-186z" />
<glyph unicode="&#x491;" horiz-adv-x="780" d="M111 0q15 200 15 457q0 289 -15 493h511q25 212 25 279h123q0 -29 2.5 -211t2.5 -222q-233 18 -505 18q5 -202 5 -357q0 -240 14 -457h-178z" />
<glyph unicode="&#x1e80;" horiz-adv-x="1815" d="M11 1302h190q0 -41 151.5 -518t151.5 -584h11q0 113 154 580.5t154 521.5h175q0 -65 160 -554.5t160 -547.5h11q0 98 145.5 554.5t145.5 547.5h184q0 -73 -216 -654t-216 -648h-130q0 88 -157 510q-171 457 -194 589h-13q-20 -140 -172 -600q-142 -431 -142 -499h-130 q0 102 -211.5 683.5t-211.5 618.5zM589 1690h216q0 -11 90 -134.5t90 -139.5h-120q-10 16 -143 139t-133 135z" />
<glyph unicode="&#x1e81;" horiz-adv-x="1569" d="M44 950h178q0 -52 116.5 -380t116.5 -382h11q0 82 120.5 395.5t120.5 366.5h170q0 -46 125 -383t125 -379h10q0 61 108.5 372.5t108.5 389.5h171q0 -60 -171.5 -470.5t-171.5 -479.5h-136q0 38 -101 291q-124 311 -176 486h-8q-48 -169 -164 -487q-92 -252 -92 -290h-137 q0 58 -162 480.5t-162 469.5zM454 1410h216q0 -11 90 -159.5t90 -164.5h-120q0 16 -138 164t-138 160z" />
<glyph unicode="&#x1e82;" horiz-adv-x="1815" d="M11 1302h190q0 -41 151.5 -518t151.5 -584h11q0 113 154 580.5t154 521.5h175q0 -65 160 -554.5t160 -547.5h11q0 98 145.5 554.5t145.5 547.5h184q0 -73 -216 -654t-216 -648h-130q0 88 -157 510q-171 457 -194 589h-13q-20 -140 -172 -600q-142 -431 -142 -499h-130 q0 102 -211.5 683.5t-211.5 618.5zM828 1416q0 16 90 139.5t90 134.5h216q0 -12 -133 -135t-143 -139h-120z" />
<glyph unicode="&#x1e83;" horiz-adv-x="1569" d="M44 950h178q0 -52 116.5 -380t116.5 -382h11q0 82 120.5 395.5t120.5 366.5h170q0 -46 125 -383t125 -379h10q0 61 108.5 372.5t108.5 389.5h171q0 -60 -171.5 -470.5t-171.5 -479.5h-136q0 38 -101 291q-124 311 -176 486h-8q-48 -169 -164 -487q-92 -252 -92 -290h-137 q0 58 -162 480.5t-162 469.5zM735 1086q0 16 90 164.5t90 159.5h216q0 -12 -138 -160t-138 -164h-120z" />
<glyph unicode="&#x1e84;" horiz-adv-x="1815" d="M11 1302h190q0 -41 151.5 -518t151.5 -584h11q0 113 154 580.5t154 521.5h175q0 -65 160 -554.5t160 -547.5h11q0 98 145.5 554.5t145.5 547.5h184q0 -73 -216 -654t-216 -648h-130q0 88 -157 510q-171 457 -194 589h-13q-20 -140 -172 -600q-142 -431 -142 -499h-130 q0 102 -211.5 683.5t-211.5 618.5zM621 1546q0 44 30.5 77.5t85.5 33.5q45 0 69.5 -28.5t24.5 -69.5q0 -46 -30.5 -80.5t-84.5 -34.5q-45 0 -70 30t-25 72zM999 1546q0 44 30.5 77.5t85.5 33.5q45 0 69.5 -28.5t24.5 -69.5q0 -46 -30.5 -80.5t-84.5 -34.5q-45 0 -70 30 t-25 72z" />
<glyph unicode="&#x1e85;" horiz-adv-x="1569" d="M44 950h178q0 -52 116.5 -380t116.5 -382h11q0 82 120.5 395.5t120.5 366.5h170q0 -46 125 -383t125 -379h10q0 61 108.5 372.5t108.5 389.5h171q0 -60 -171.5 -470.5t-171.5 -479.5h-136q0 38 -101 291q-124 311 -176 486h-8q-48 -169 -164 -487q-92 -252 -92 -290h-137 q0 58 -162 480.5t-162 469.5zM513 1238q0 44 30.5 77.5t85.5 33.5q45 0 69.5 -28.5t24.5 -69.5q0 -46 -30.5 -80.5t-84.5 -34.5q-45 0 -70 30t-25 72zM891 1238q0 44 30.5 77.5t85.5 33.5q45 0 69.5 -28.5t24.5 -69.5q0 -46 -30.5 -80.5t-84.5 -34.5q-45 0 -70 30t-25 72z " />
<glyph unicode="&#x1ea0;" horiz-adv-x="1262" d="M11 0q0 37 258 639.5t258 662.5h232q0 -59 246 -653t246 -649h-211q0 67 -126 421h-577q-124 -349 -124 -421h-202zM379 552h489q-235 587 -235 624h-11q0 -31 -243 -624zM514 -237q0 50 34 87t94 37q49 0 77.5 -32.5t28.5 -76.5q0 -51 -33 -88.5t-93 -37.5 q-51 0 -79.5 32.5t-28.5 78.5z" />
<glyph unicode="&#x1ea1;" horiz-adv-x="1005" d="M88 235q0 154 130 247.5t483 98.5q3 24 3 55q0 123 -65.5 164t-198.5 41q-157 0 -309 -39l17 138q150 43 345 43q178 0 275 -73.5t97 -250.5q0 -47 -4.5 -170.5t-4.5 -164.5q0 -182 27 -324l-157 -6q-12 49 -12 93h-10q-123 -112 -335 -112q-115 0 -198 67.5t-83 192.5z M251 248q0 -136 192 -136q165 0 263 82q-5 152 -5 273q-188 0 -286 -28q-164 -50 -164 -191zM375 -237q0 50 34 87t94 37q49 0 77.5 -32.5t28.5 -76.5q0 -51 -33 -88.5t-93 -37.5q-51 0 -79.5 32.5t-28.5 78.5z" />
<glyph unicode="&#x1ea2;" horiz-adv-x="1262" d="M11 0q0 37 258 639.5t258 662.5h232q0 -59 246 -653t246 -649h-211q0 67 -126 421h-577q-124 -349 -124 -421h-202zM379 552h489q-235 587 -235 624h-11q0 -31 -243 -624zM502 1734l18 75q145 0 223.5 -43t78.5 -133q0 -59 -48 -100.5t-132 -63.5l-7 -59l-75 -8l-21 129 q72 16 103 41t31 65q0 41 -43.5 69t-127.5 28z" />
<glyph unicode="&#x1ea3;" horiz-adv-x="1005" d="M88 235q0 154 130 247.5t483 98.5q3 24 3 55q0 123 -65.5 164t-198.5 41q-157 0 -309 -39l17 138q150 43 345 43q178 0 275 -73.5t97 -250.5q0 -47 -4.5 -170.5t-4.5 -164.5q0 -182 27 -324l-157 -6q-12 49 -12 93h-10q-123 -112 -335 -112q-115 0 -198 67.5t-83 192.5z M251 248q0 -136 192 -136q165 0 263 82q-5 152 -5 273q-188 0 -286 -28q-164 -50 -164 -191zM349 1450l18 75q145 0 223.5 -43t78.5 -133q0 -59 -48 -100.5t-132 -63.5l-7 -59l-75 -8l-21 129q72 16 103 41t31 65q0 41 -43.5 69t-127.5 28z" />
<glyph unicode="&#x1ea4;" horiz-adv-x="1262" d="M11 0q0 37 258 639.5t258 662.5h232q0 -59 246 -653t246 -649h-211q0 67 -126 421h-577q-124 -349 -124 -421h-202zM379 552h489q-235 587 -235 624h-11q0 -31 -243 -624zM340 1416q0 13 94.5 135.5t99.5 138.5h194q5 -16 99.5 -138.5t94.5 -135.5h-114q-10 13 -177 158 q-167 -145 -177 -158h-114zM845 1584q0 13 57 133q58 119 58 129h157q0 -10 -88 -129q-88 -121 -88 -133h-96z" />
<glyph unicode="&#x1ea5;" horiz-adv-x="1005" d="M88 235q0 154 130 247.5t483 98.5q3 24 3 55q0 123 -65.5 164t-198.5 41q-157 0 -309 -39l17 138q150 43 345 43q178 0 275 -73.5t97 -250.5q0 -47 -4.5 -170.5t-4.5 -164.5q0 -182 27 -324l-157 -6q-12 49 -12 93h-10q-123 -112 -335 -112q-115 0 -198 67.5t-83 192.5z M251 248q0 -136 192 -136q165 0 263 82q-5 152 -5 273q-188 0 -286 -28q-164 -50 -164 -191zM191 1086q0 13 94.5 160.5t99.5 163.5h194q5 -16 99.5 -163.5t94.5 -160.5h-104q0 13 -187 208q-187 -195 -187 -208h-104zM694 1293q0 15 72 148q72 134 72 144h172 q0 -10 -110 -144t-110 -148h-96z" />
<glyph unicode="&#x1ea6;" horiz-adv-x="1262" d="M11 0q0 37 258 639.5t258 662.5h232q0 -59 246 -653t246 -649h-211q0 67 -126 421h-577q-124 -349 -124 -421h-202zM379 552h489q-235 587 -235 624h-11q0 -31 -243 -624zM145 1846h157q0 -10 58 -129q57 -120 57 -133h-96q0 12 -88 133q-88 119 -88 129zM340 1416 q0 13 94.5 135.5t99.5 138.5h194q5 -16 99.5 -138.5t94.5 -135.5h-114q-10 13 -177 158q-167 -145 -177 -158h-114z" />
<glyph unicode="&#x1ea7;" horiz-adv-x="1005" d="M88 235q0 154 130 247.5t483 98.5q3 24 3 55q0 123 -65.5 164t-198.5 41q-157 0 -309 -39l17 138q150 43 345 43q178 0 275 -73.5t97 -250.5q0 -47 -4.5 -170.5t-4.5 -164.5q0 -182 27 -324l-157 -6q-12 49 -12 93h-10q-123 -112 -335 -112q-115 0 -198 67.5t-83 192.5z M251 248q0 -136 192 -136q165 0 263 82q-5 152 -5 273q-188 0 -286 -28q-164 -50 -164 -191zM-46 1585h172q0 -10 72 -144q72 -133 72 -148h-96q0 14 -110 148t-110 144zM191 1086q0 13 94.5 160.5t99.5 163.5h194q5 -16 99.5 -163.5t94.5 -160.5h-104q0 13 -187 208 q-187 -195 -187 -208h-104z" />
<glyph unicode="&#x1ea8;" horiz-adv-x="1262" d="M11 0q0 37 258 639.5t258 662.5h232q0 -59 246 -653t246 -649h-211q0 67 -126 421h-577q-124 -349 -124 -421h-202zM379 552h489q-235 587 -235 624h-11q0 -31 -243 -624zM340 1416q0 13 94.5 135.5t99.5 138.5h194q5 -16 99.5 -138.5t94.5 -135.5h-114q-10 13 -177 158 q-167 -145 -177 -158h-114zM812 1870l14 68q240 0 240 -162q0 -107 -118 -141l5 -53l-75 -11l-35 116q75 22 75 105q0 32 -29 55t-77 23z" />
<glyph unicode="&#x1ea9;" horiz-adv-x="1005" d="M88 235q0 154 130 247.5t483 98.5q3 24 3 55q0 123 -65.5 164t-198.5 41q-157 0 -309 -39l17 138q150 43 345 43q178 0 275 -73.5t97 -250.5q0 -47 -4.5 -170.5t-4.5 -164.5q0 -182 27 -324l-157 -6q-12 49 -12 93h-10q-123 -112 -335 -112q-115 0 -198 67.5t-83 192.5z M251 248q0 -136 192 -136q165 0 263 82q-5 152 -5 273q-188 0 -286 -28q-164 -50 -164 -191zM191 1086q0 13 94.5 160.5t99.5 163.5h194q5 -16 99.5 -163.5t94.5 -160.5h-104q0 13 -187 208q-187 -195 -187 -208h-104zM669 1583l14 68q240 0 240 -162q0 -107 -118 -141 l5 -53l-75 -11l-35 116q75 22 75 105q0 32 -29 55t-77 23z" />
<glyph unicode="&#x1eaa;" horiz-adv-x="1262" d="M11 0q0 37 258 639.5t258 662.5h232q0 -59 246 -653t246 -649h-211q0 67 -126 421h-577q-124 -349 -124 -421h-202zM379 552h489q-235 587 -235 624h-11q0 -31 -243 -624zM309 1730q99 161 225 161q46 0 115.5 -17.5t113.5 -17.5q79 0 154 88l56 -37q-99 -161 -225 -161 q-46 0 -115.5 17.5t-113.5 17.5q-79 0 -154 -88zM340 1416q0 13 94.5 135.5t99.5 138.5h194q5 -16 99.5 -138.5t94.5 -135.5h-114q-10 13 -177 158q-167 -145 -177 -158h-114z" />
<glyph unicode="&#x1eab;" horiz-adv-x="1005" d="M88 235q0 154 130 247.5t483 98.5q3 24 3 55q0 123 -65.5 164t-198.5 41q-157 0 -309 -39l17 138q150 43 345 43q178 0 275 -73.5t97 -250.5q0 -47 -4.5 -170.5t-4.5 -164.5q0 -182 27 -324l-157 -6q-12 49 -12 93h-10q-123 -112 -335 -112q-115 0 -198 67.5t-83 192.5z M251 248q0 -136 192 -136q165 0 263 82q-5 152 -5 273q-188 0 -286 -28q-164 -50 -164 -191zM160 1479q99 179 225 179q46 0 115.5 -19.5t113.5 -19.5q79 0 154 98l56 -41q-99 -179 -225 -179q-46 0 -115.5 19.5t-113.5 19.5q-79 0 -154 -98zM191 1086q0 13 94.5 160.5 t99.5 163.5h194q5 -16 99.5 -163.5t94.5 -160.5h-104q0 13 -187 208q-187 -195 -187 -208h-104z" />
<glyph unicode="&#x1eac;" horiz-adv-x="1262" d="M11 0q0 37 258 639.5t258 662.5h232q0 -59 246 -653t246 -649h-211q0 67 -126 421h-577q-124 -349 -124 -421h-202zM379 552h489q-235 587 -235 624h-11q0 -31 -243 -624zM349 1416q0 13 94.5 135.5t99.5 138.5h194q5 -16 99.5 -138.5t94.5 -135.5h-114q-10 13 -177 158 q-167 -145 -177 -158h-114zM514 -237q0 50 34 87t94 37q49 0 77.5 -32.5t28.5 -76.5q0 -51 -33 -88.5t-93 -37.5q-51 0 -79.5 32.5t-28.5 78.5z" />
<glyph unicode="&#x1ead;" horiz-adv-x="1005" d="M88 235q0 154 130 247.5t483 98.5q3 24 3 55q0 123 -65.5 164t-198.5 41q-157 0 -309 -39l17 138q150 43 345 43q178 0 275 -73.5t97 -250.5q0 -47 -4.5 -170.5t-4.5 -164.5q0 -182 27 -324l-157 -6q-12 49 -12 93h-10q-123 -112 -335 -112q-115 0 -198 67.5t-83 192.5z M251 248q0 -136 192 -136q165 0 263 82q-5 152 -5 273q-188 0 -286 -28q-164 -50 -164 -191zM375 -237q0 50 34 87t94 37q49 0 77.5 -32.5t28.5 -76.5q0 -51 -33 -88.5t-93 -37.5q-51 0 -79.5 32.5t-28.5 78.5zM192 1086q0 13 94.5 160.5t99.5 163.5h194q5 -16 99.5 -163.5 t94.5 -160.5h-104q0 13 -187 208q-187 -195 -187 -208h-104z" />
<glyph unicode="&#x1eae;" horiz-adv-x="1262" d="M11 0q0 37 258 639.5t258 662.5h232q0 -59 246 -653t246 -649h-211q0 67 -126 421h-577q-124 -349 -124 -421h-202zM379 552h489q-235 587 -235 624h-11q0 -31 -243 -624zM324 1640l100 50q72 -144 206 -144q124 0 208 144l100 -50q-95 -218 -306 -218q-221 0 -308 218z M577 1688q0 13 57 133q58 119 58 129h157q0 -10 -88 -129q-88 -121 -88 -133h-96z" />
<glyph unicode="&#x1eaf;" horiz-adv-x="1005" d="M88 235q0 154 130 247.5t483 98.5q3 24 3 55q0 123 -65.5 164t-198.5 41q-157 0 -309 -39l17 138q150 43 345 43q178 0 275 -73.5t97 -250.5q0 -47 -4.5 -170.5t-4.5 -164.5q0 -182 27 -324l-157 -6q-12 49 -12 93h-10q-123 -112 -335 -112q-115 0 -198 67.5t-83 192.5z M251 248q0 -136 192 -136q165 0 263 82q-5 152 -5 273q-188 0 -286 -28q-164 -50 -164 -191zM206 1340l100 50q72 -154 206 -154q124 0 208 154l100 -50q-95 -228 -306 -228q-221 0 -308 228zM455 1387q0 15 72 148q72 134 72 144h172q0 -10 -110 -144t-110 -148h-96z" />
<glyph unicode="&#x1eb0;" horiz-adv-x="1262" d="M11 0q0 37 258 639.5t258 662.5h232q0 -59 246 -653t246 -649h-211q0 67 -126 421h-577q-124 -349 -124 -421h-202zM379 552h489q-235 587 -235 624h-11q0 -31 -243 -624zM324 1640l100 50q84 -144 208 -144q134 0 206 144l100 -50q-87 -218 -308 -218q-211 0 -306 218z M413 1950h157q0 -10 58 -129q57 -120 57 -133h-96q0 12 -88 133q-88 119 -88 129z" />
<glyph unicode="&#x1eb1;" horiz-adv-x="1005" d="M88 235q0 154 130 247.5t483 98.5q3 24 3 55q0 123 -65.5 164t-198.5 41q-157 0 -309 -39l17 138q150 43 345 43q178 0 275 -73.5t97 -250.5q0 -47 -4.5 -170.5t-4.5 -164.5q0 -182 27 -324l-157 -6q-12 49 -12 93h-10q-123 -112 -335 -112q-115 0 -198 67.5t-83 192.5z M251 248q0 -136 192 -136q165 0 263 82q-5 152 -5 273q-188 0 -286 -28q-164 -50 -164 -191zM206 1340l100 50q84 -154 208 -154q134 0 206 154l100 -50q-87 -228 -308 -228q-211 0 -306 228zM255 1679h172q0 -10 72 -144q72 -133 72 -148h-96q0 14 -110 148t-110 144z" />
<glyph unicode="&#x1eb2;" horiz-adv-x="1262" d="M11 0q0 37 258 639.5t258 662.5h232q0 -59 246 -653t246 -649h-211q0 67 -126 421h-577q-124 -349 -124 -421h-202zM379 552h489q-235 587 -235 624h-11q0 -31 -243 -624zM324 1619l100 45q84 -120 208 -120q134 0 206 120l100 -45q-87 -197 -308 -197q-211 0 -306 197z M523 1876l14 64q240 0 240 -135q0 -45 -29 -77t-89 -49l5 -53l-75 -11l-35 116q75 18 75 83q0 25 -29 43.5t-77 18.5z" />
<glyph unicode="&#x1eb3;" horiz-adv-x="1005" d="M88 235q0 154 130 247.5t483 98.5q3 24 3 55q0 123 -65.5 164t-198.5 41q-157 0 -309 -39l17 138q150 43 345 43q178 0 275 -73.5t97 -250.5q0 -47 -4.5 -170.5t-4.5 -164.5q0 -182 27 -324l-157 -6q-12 49 -12 93h-10q-123 -112 -335 -112q-115 0 -198 67.5t-83 192.5z M251 248q0 -136 192 -136q165 0 263 82q-5 152 -5 273q-188 0 -286 -28q-164 -50 -164 -191zM206 1340l100 50q72 -154 206 -154q124 0 208 154l100 -50q-95 -228 -306 -228q-221 0 -308 228zM398 1677l14 68q240 0 240 -162q0 -107 -118 -141l5 -53l-75 -11l-35 116 q75 22 75 105q0 32 -29 55t-77 23z" />
<glyph unicode="&#x1eb4;" horiz-adv-x="1262" d="M11 0q0 37 258 639.5t258 662.5h232q0 -59 246 -653t246 -649h-211q0 67 -126 421h-577q-124 -349 -124 -421h-202zM379 552h489q-235 587 -235 624h-11q0 -31 -243 -624zM309 1730q99 161 225 161q46 0 115.5 -17.5t113.5 -17.5q79 0 154 88l56 -37q-99 -161 -225 -161 q-46 0 -115.5 17.5t-113.5 17.5q-79 0 -154 -88zM324 1619l100 45q84 -120 208 -120q134 0 206 120l100 -45q-87 -197 -308 -197q-211 0 -306 197z" />
<glyph unicode="&#x1eb5;" horiz-adv-x="1005" d="M88 235q0 154 130 247.5t483 98.5q3 24 3 55q0 123 -65.5 164t-198.5 41q-157 0 -309 -39l17 138q150 43 345 43q178 0 275 -73.5t97 -250.5q0 -47 -4.5 -170.5t-4.5 -164.5q0 -182 27 -324l-157 -6q-12 49 -12 93h-10q-123 -112 -335 -112q-115 0 -198 67.5t-83 192.5z M251 248q0 -136 192 -136q165 0 263 82q-5 152 -5 273q-188 0 -286 -28q-164 -50 -164 -191zM181 1460q99 179 225 179q46 0 115.5 -19.5t113.5 -19.5q79 0 154 98l56 -41q-99 -179 -225 -179q-46 0 -115.5 19.5t-113.5 19.5q-79 0 -154 -98zM196 1340l100 50 q72 -154 206 -154q124 0 208 154l100 -50q-95 -228 -306 -228q-221 0 -308 228z" />
<glyph unicode="&#x1eb6;" horiz-adv-x="1262" d="M11 0q0 37 258 639.5t258 662.5h232q0 -59 246 -653t246 -649h-211q0 67 -126 421h-577q-124 -349 -124 -421h-202zM379 552h489q-235 587 -235 624h-11q0 -31 -243 -624zM332 1640l100 50q72 -144 206 -144q124 0 208 144l100 -50q-95 -218 -306 -218q-221 0 -308 218z M514 -237q0 50 34 87t94 37q49 0 77.5 -32.5t28.5 -76.5q0 -51 -33 -88.5t-93 -37.5q-51 0 -79.5 32.5t-28.5 78.5z" />
<glyph unicode="&#x1eb7;" horiz-adv-x="1005" d="M88 235q0 154 130 247.5t483 98.5q3 24 3 55q0 123 -65.5 164t-198.5 41q-157 0 -309 -39l17 138q150 43 345 43q178 0 275 -73.5t97 -250.5q0 -47 -4.5 -170.5t-4.5 -164.5q0 -182 27 -324l-157 -6q-12 49 -12 93h-10q-123 -112 -335 -112q-115 0 -198 67.5t-83 192.5z M251 248q0 -136 192 -136q165 0 263 82q-5 152 -5 273q-188 0 -286 -28q-164 -50 -164 -191zM375 -237q0 50 34 87t94 37q49 0 77.5 -32.5t28.5 -76.5q0 -51 -33 -88.5t-93 -37.5q-51 0 -79.5 32.5t-28.5 78.5zM195 1340l100 50q72 -154 206 -154q124 0 208 154l100 -50 q-95 -228 -306 -228q-221 0 -308 228z" />
<glyph unicode="&#x1eb8;" horiz-adv-x="1066" d="M188 0q14 310 14 684q0 352 -14 618h756l-8 -149q-275 12 -583 12q6 -155 6 -419q266 0 474 12v-149q-222 9 -474 9q0 -257 9 -482q332 0 632 15l-6 -151h-806zM477 -237q0 50 34 87t94 37q49 0 77.5 -32.5t28.5 -76.5q0 -51 -33 -88.5t-93 -37.5q-51 0 -79.5 32.5 t-28.5 78.5z" />
<glyph unicode="&#x1eb9;" horiz-adv-x="1051" d="M99 461q0 218 124.5 375.5t334.5 157.5q193 0 293.5 -114t100.5 -293q0 -42 -4 -116l-687 -12q10 -146 113 -244.5t273 -98.5q152 0 285 37l-17 -141q-98 -39 -283 -39q-260 0 -396.5 142t-136.5 346zM267 574l518 11q0 281 -235 281q-240 0 -283 -292zM443 -237 q0 50 34 87t94 37q49 0 77.5 -32.5t28.5 -76.5q0 -51 -33 -88.5t-93 -37.5q-51 0 -79.5 32.5t-28.5 78.5z" />
<glyph unicode="&#x1eba;" horiz-adv-x="1066" d="M188 0q14 310 14 684q0 352 -14 618h756l-8 -149q-275 12 -583 12q6 -155 6 -419q266 0 474 12v-149q-222 9 -474 9q0 -257 9 -482q332 0 632 15l-6 -151h-806zM429 1734l18 75q145 0 223.5 -43t78.5 -133q0 -59 -48 -100.5t-132 -63.5l-7 -59l-75 -8l-21 129 q72 16 103 41t31 65q0 41 -43.5 69t-127.5 28z" />
<glyph unicode="&#x1ebb;" horiz-adv-x="1051" d="M99 461q0 218 124.5 375.5t334.5 157.5q193 0 293.5 -114t100.5 -293q0 -42 -4 -116l-687 -12q10 -146 113 -244.5t273 -98.5q152 0 285 37l-17 -141q-98 -39 -283 -39q-260 0 -396.5 142t-136.5 346zM267 574l518 11q0 281 -235 281q-240 0 -283 -292zM402 1450l18 75 q145 0 223.5 -43t78.5 -133q0 -59 -48 -100.5t-132 -63.5l-7 -59l-75 -8l-21 129q72 16 103 41t31 65q0 41 -43.5 69t-127.5 28z" />
<glyph unicode="&#x1ebc;" horiz-adv-x="1066" d="M188 0q14 310 14 684q0 352 -14 618h756l-8 -149q-275 12 -583 12q6 -155 6 -419q266 0 474 12v-149q-222 9 -474 9q0 -257 9 -482q332 0 632 15l-6 -151h-806zM216 1469q110 185 250 185q51 0 128.5 -24t125.5 -24q88 0 172 84l62 -50q-110 -185 -250 -185 q-51 0 -128.5 24t-125.5 24q-88 0 -172 -84z" />
<glyph unicode="&#x1ebd;" horiz-adv-x="1051" d="M99 461q0 218 124.5 375.5t334.5 157.5q193 0 293.5 -114t100.5 -293q0 -42 -4 -116l-687 -12q10 -146 113 -244.5t273 -98.5q152 0 285 37l-17 -141q-98 -39 -283 -39q-260 0 -396.5 142t-136.5 346zM267 574l518 11q0 281 -235 281q-240 0 -283 -292zM155 1123 q110 221 250 221q51 0 128.5 -24t125.5 -24q88 0 172 120l62 -50q-110 -221 -250 -221q-51 0 -128.5 24t-125.5 24q-88 0 -172 -120z" />
<glyph unicode="&#x1ebe;" horiz-adv-x="1066" d="M188 0q14 310 14 684q0 352 -14 618h756l-8 -149q-275 12 -583 12q6 -155 6 -419q266 0 474 12v-149q-222 9 -474 9q0 -257 9 -482q332 0 632 15l-6 -151h-806zM277 1416q0 13 94.5 135.5t99.5 138.5h194q5 -16 99.5 -138.5t94.5 -135.5h-114q-10 13 -177 158 q-167 -145 -177 -158h-114zM782 1584q0 13 57 133q58 119 58 129h157q0 -10 -88 -129q-88 -121 -88 -133h-96z" />
<glyph unicode="&#x1ebf;" horiz-adv-x="1051" d="M99 461q0 218 124.5 375.5t334.5 157.5q193 0 293.5 -114t100.5 -293q0 -42 -4 -116l-687 -12q10 -146 113 -244.5t273 -98.5q152 0 285 37l-17 -141q-98 -39 -283 -39q-260 0 -396.5 142t-136.5 346zM267 574l518 11q0 281 -235 281q-240 0 -283 -292zM265 1086 q0 13 94.5 160.5t99.5 163.5h194q5 -16 99.5 -163.5t94.5 -160.5h-104q0 13 -187 208q-187 -195 -187 -208h-104zM768 1293q0 15 72 148q72 134 72 144h172q0 -10 -110 -144t-110 -148h-96z" />
<glyph unicode="&#x1ec0;" horiz-adv-x="1066" d="M188 0q14 310 14 684q0 352 -14 618h756l-8 -149q-275 12 -583 12q6 -155 6 -419q266 0 474 12v-149q-222 9 -474 9q0 -257 9 -482q332 0 632 15l-6 -151h-806zM83 1846h157q0 -10 58 -129q57 -120 57 -133h-96q0 12 -88 133q-88 119 -88 129zM278 1416q0 13 94.5 135.5 t99.5 138.5h194q5 -16 99.5 -138.5t94.5 -135.5h-114q-10 13 -177 158q-167 -145 -177 -158h-114z" />
<glyph unicode="&#x1ec1;" horiz-adv-x="1051" d="M99 461q0 218 124.5 375.5t334.5 157.5q193 0 293.5 -114t100.5 -293q0 -42 -4 -116l-687 -12q10 -146 113 -244.5t273 -98.5q152 0 285 37l-17 -141q-98 -39 -283 -39q-260 0 -396.5 142t-136.5 346zM267 574l518 11q0 281 -235 281q-240 0 -283 -292zM28 1585h172 q0 -10 72 -144q72 -133 72 -148h-96q0 14 -110 148t-110 144zM265 1086q0 13 94.5 160.5t99.5 163.5h194q5 -16 99.5 -163.5t94.5 -160.5h-104q0 13 -187 208q-187 -195 -187 -208h-104z" />
<glyph unicode="&#x1ec2;" horiz-adv-x="1066" d="M188 0q14 310 14 684q0 352 -14 618h756l-8 -149q-275 12 -583 12q6 -155 6 -419q266 0 474 12v-149q-222 9 -474 9q0 -257 9 -482q332 0 632 15l-6 -151h-806zM277 1416q0 13 94.5 135.5t99.5 138.5h194q5 -16 99.5 -138.5t94.5 -135.5h-114q-10 13 -177 158 q-167 -145 -177 -158h-114zM749 1870l14 68q240 0 240 -162q0 -107 -118 -141l5 -53l-75 -11l-35 116q75 22 75 105q0 32 -29 55t-77 23z" />
<glyph unicode="&#x1ec3;" horiz-adv-x="1051" d="M99 461q0 218 124.5 375.5t334.5 157.5q193 0 293.5 -114t100.5 -293q0 -42 -4 -116l-687 -12q10 -146 113 -244.5t273 -98.5q152 0 285 37l-17 -141q-98 -39 -283 -39q-260 0 -396.5 142t-136.5 346zM267 574l518 11q0 281 -235 281q-240 0 -283 -292zM265 1086 q0 13 94.5 160.5t99.5 163.5h194q5 -16 99.5 -163.5t94.5 -160.5h-104q0 13 -187 208q-187 -195 -187 -208h-104zM743 1583l14 68q240 0 240 -162q0 -107 -118 -141l5 -53l-75 -11l-35 116q75 22 75 105q0 32 -29 55t-77 23z" />
<glyph unicode="&#x1ec4;" horiz-adv-x="1066" d="M188 0q14 310 14 684q0 352 -14 618h756l-8 -149q-275 12 -583 12q6 -155 6 -419q266 0 474 12v-149q-222 9 -474 9q0 -257 9 -482q332 0 632 15l-6 -151h-806zM246 1730q99 161 225 161q46 0 115.5 -17.5t113.5 -17.5q79 0 154 88l56 -37q-99 -161 -225 -161 q-46 0 -115.5 17.5t-113.5 17.5q-79 0 -154 -88zM277 1416q0 13 94.5 135.5t99.5 138.5h194q5 -16 99.5 -138.5t94.5 -135.5h-114q-10 13 -177 158q-167 -145 -177 -158h-114z" />
</font>
</defs>
</svg>
